<svg width="16" height="17" viewBox="0 0 16 17" fill="none" xmlns="http://www.w3.org/2000/svg">
<path d="M10.1538 3.47654C9.24493 3.47839 8.35044 3.70391 7.54929 4.13319C6.74814 4.56248 6.06495 5.18234 5.56 5.93808H1.84615C1.68294 5.93808 1.52642 6.00292 1.41101 6.11832C1.2956 6.23373 1.23077 6.39026 1.23077 6.55347C1.23077 6.71668 1.2956 6.8732 1.41101 6.98861C1.52642 7.10402 1.68294 7.16885 1.84615 7.16885H7.07692C7.24013 7.16885 7.39666 7.23369 7.51207 7.34909C7.62747 7.4645 7.69231 7.62103 7.69231 7.78424C7.69231 7.94745 7.62747 8.10397 7.51207 8.21938C7.39666 8.33479 7.24013 8.39962 7.07692 8.39962H0.615385C0.452174 8.39962 0.295649 8.46446 0.180242 8.57986C0.0648351 8.69527 0 8.8518 0 9.01501C0 9.17822 0.0648351 9.33474 0.180242 9.45015C0.295649 9.56556 0.452174 9.63039 0.615385 9.63039H5.53846C5.70167 9.63039 5.8582 9.69522 5.9736 9.81063C6.08901 9.92604 6.15385 10.0826 6.15385 10.2458C6.15385 10.409 6.08901 10.5655 5.9736 10.6809C5.8582 10.7963 5.70167 10.8612 5.53846 10.8612H3.38462C3.22141 10.8612 3.06488 10.926 2.94947 11.0414C2.83407 11.1568 2.76923 11.3133 2.76923 11.4765C2.76923 11.6398 2.83407 11.7963 2.94947 11.9117C3.06488 12.0271 3.22141 12.0919 3.38462 12.0919H5.56C6.09185 12.8879 6.82094 13.5325 7.67615 13.9627C8.53135 14.3929 9.48347 14.5941 10.4396 14.5466C11.3958 14.4992 12.3233 14.2047 13.1317 13.6919C13.9401 13.1792 14.6018 12.4656 15.0522 11.6209C15.5027 10.7761 15.7264 9.82907 15.7017 8.87207C15.677 7.91506 15.4047 6.9808 14.9113 6.16043C14.4179 5.34006 13.7202 4.66159 12.8864 4.19121C12.0526 3.72082 11.1112 3.4746 10.1538 3.47654Z" fill="url(#paint0_linear_7137_2807)"/>
<path d="M1.53848 12.0919C1.87835 12.0919 2.15386 11.8164 2.15386 11.4765C2.15386 11.1367 1.87835 10.8611 1.53848 10.8611C1.19861 10.8611 0.923096 11.1367 0.923096 11.4765C0.923096 11.8164 1.19861 12.0919 1.53848 12.0919Z" fill="url(#paint1_linear_7137_2807)"/>
<path d="M11.8185 9.81191L10.7692 8.7596V6.24576C10.7692 6.08255 10.7044 5.92602 10.589 5.81061C10.4736 5.69521 10.317 5.63037 10.1538 5.63037C9.99063 5.63037 9.8341 5.69521 9.71869 5.81061C9.60329 5.92602 9.53845 6.08255 9.53845 6.24576V9.01499C9.53914 9.17793 9.60443 9.33396 9.71999 9.44883L10.9508 10.6796C11.0685 10.7804 11.2199 10.8331 11.3748 10.8271C11.5297 10.8211 11.6766 10.7569 11.7862 10.6473C11.8958 10.5377 11.96 10.3908 11.966 10.2359C11.9719 10.0811 11.9193 9.92963 11.8185 9.81191Z" fill="white"/>
<defs>
<linearGradient id="paint0_linear_7137_2807" x1="3.47692" y1="3.81808" x2="13.0985" y2="12.9319" gradientUnits="userSpaceOnUse">
<stop stop-color="#FF005D"/>
<stop offset="1" stop-color="#FF5924"/>
</linearGradient>
<linearGradient id="paint1_linear_7137_2807" x1="-1.26152" y1="8.82422" x2="8.36002" y2="17.935" gradientUnits="userSpaceOnUse">
<stop stop-color="#FF005D"/>
<stop offset="1" stop-color="#FF5924"/>
</linearGradient>
</defs>
</svg>
