<svg width="11" height="10" viewBox="0 0 11 10" fill="none" xmlns="http://www.w3.org/2000/svg">
<g clip-path="url(#clip0_356_1339)">
<path fill-rule="evenodd" clip-rule="evenodd" d="M3.66666 9.5C3.66666 9.22386 3.85517 9 4.08771 9H7.2456C7.47814 9 7.66666 9.22386 7.66666 9.5C7.66666 9.77614 7.47814 10 7.2456 10H4.08771C3.85517 10 3.66666 9.77614 3.66666 9.5Z" fill="#363636"/>
<path fill-rule="evenodd" clip-rule="evenodd" d="M5.30404 0.141397C5.50431 -0.0471322 5.82901 -0.0471322 6.02927 0.141397L10.5164 4.36553C10.6631 4.5036 10.707 4.71125 10.6276 4.89164C10.5482 5.07203 10.3612 5.18966 10.1538 5.18966H8.10255V7.51724C8.10255 7.78386 7.87295 8 7.58973 8H3.74359C3.46036 8 3.23077 7.78386 3.23077 7.51724V5.18966H1.17949C0.972075 5.18966 0.785082 5.07203 0.705708 4.89164C0.626333 4.71125 0.670207 4.5036 0.816873 4.36553L5.30404 0.141397ZM2.41755 4.22414H3.74359C4.02681 4.22414 4.2564 4.44028 4.2564 4.7069V7.03448H7.07691V4.7069C7.07691 4.44028 7.30651 4.22414 7.58973 4.22414H8.91577L5.66666 1.16548L2.41755 4.22414Z" fill="#363636"/>
</g>
<defs>
<clipPath id="clip0_356_1339">
<rect width="10" height="10" fill="white" transform="translate(0.666656)"/>
</clipPath>
</defs>
</svg>
