<svg width="26" height="26" viewBox="0 0 26 26" fill="none" xmlns="http://www.w3.org/2000/svg">
<circle cx="13" cy="13" r="12.5" fill="white" fill-opacity="0.3" stroke="white"/>
<g clip-path="url(#clip0_251_4143)">
<path d="M12.4066 13.5941L17.5664 18.7537C17.8946 19.0821 18.4268 19.0821 18.7549 18.7537C19.083 18.4256 19.083 17.8935 18.7549 17.5654L14.1892 12.9999L18.7547 8.43458C19.0828 8.10635 19.0828 7.57426 18.7547 7.24617C18.4266 6.91794 17.8945 6.91794 17.5663 7.24617L12.4064 12.4059C12.2424 12.57 12.1605 12.7849 12.1605 12.9999C12.1605 13.215 12.2426 13.43 12.4066 13.5941Z" fill="white"/>
<path d="M13.5953 13.5941L8.43551 18.7537C8.10728 19.0821 7.57511 19.0821 7.24705 18.7537C6.91895 18.4256 6.91895 17.8935 7.24705 17.5654L11.8127 12.9999L7.24718 8.43458C6.91909 8.10635 6.91909 7.57427 7.24718 7.24618C7.57527 6.91795 8.10741 6.91795 8.43564 7.24618L13.5955 12.4059C13.7595 12.57 13.8414 12.7849 13.8414 12.9999C13.8414 13.215 13.7593 13.43 13.5953 13.5941Z" fill="white"/>
</g>
<defs>
<clipPath id="clip0_251_4143">
<rect width="12" height="12" fill="white" transform="translate(7 7)"/>
</clipPath>
</defs>
</svg>
