<svg width="16" height="16" viewBox="0 0 16 16" fill="none" xmlns="http://www.w3.org/2000/svg">
<circle cx="8" cy="8" r="8" fill="#FFBE40"/>
<path d="M12.125 5.75H3.875C3.66789 5.75 3.5 5.91789 3.5 6.125V7.625C3.5 7.83211 3.66789 8 3.875 8H12.125C12.3321 8 12.5 7.83211 12.5 7.625V6.125C12.5 5.91789 12.3321 5.75 12.125 5.75Z" stroke="white" stroke-linecap="round" stroke-linejoin="round"/>
<path d="M11.75 8V11.375C11.75 11.4745 11.7105 11.5698 11.6402 11.6402C11.5698 11.7105 11.4745 11.75 11.375 11.75H4.625C4.52554 11.75 4.43016 11.7105 4.35984 11.6402C4.28951 11.5698 4.25 11.4745 4.25 11.375V8" stroke="white" stroke-linecap="round" stroke-linejoin="round"/>
<path d="M8 5.75V11.75" stroke="white" stroke-linecap="round" stroke-linejoin="round"/>
<path d="M10.1213 5.21966C9.59099 5.74999 8 5.74999 8 5.74999C8 5.74999 8 4.159 8.53033 3.62867C8.74135 3.41789 9.02744 3.29954 9.32569 3.29962C9.62395 3.29971 9.90997 3.41823 10.1209 3.62913C10.3318 3.84003 10.4503 4.12604 10.4504 4.4243C10.4505 4.72256 10.3321 5.00864 10.1213 5.21966V5.21966Z" stroke="white" stroke-linecap="round" stroke-linejoin="round"/>
<path d="M5.87867 5.21966C6.409 5.74999 7.99999 5.74999 7.99999 5.74999C7.99999 5.74999 7.99999 4.159 7.46966 3.62867C7.25864 3.41789 6.97256 3.29954 6.6743 3.29962C6.37604 3.29971 6.09003 3.41823 5.87913 3.62913C5.66823 3.84003 5.54971 4.12604 5.54962 4.4243C5.54954 4.72256 5.66789 5.00864 5.87867 5.21966V5.21966Z" stroke="white" stroke-linecap="round" stroke-linejoin="round"/>
</svg>
