<svg width="24" height="24" viewBox="0 0 24 24" fill="none" xmlns="http://www.w3.org/2000/svg">
<path d="M21.1746 9.63895C20.8209 9.27017 20.4553 8.88895 20.3171 8.55487C20.1901 8.24799 20.1824 7.73969 20.175 7.24805C20.1612 6.33316 20.1455 5.29623 19.4247 4.57535C18.7038 3.85446 17.6668 3.83881 16.752 3.82498C16.2603 3.81757 15.752 3.80988 15.4451 3.68289C15.1111 3.54474 14.7298 3.17908 14.3611 2.82541C13.7133 2.20413 12.979 1.5 12 1.5C11.021 1.5 10.2868 2.20413 9.63895 2.82541C9.27017 3.17908 8.88895 3.54474 8.55487 3.68289C8.24799 3.80988 7.73969 3.81757 7.24805 3.82498C6.33316 3.83881 5.29623 3.85446 4.57535 4.57535C3.85446 5.29623 3.83881 6.33316 3.82498 7.24805C3.81757 7.73969 3.80988 8.24798 3.68289 8.55487C3.54474 8.88885 3.17908 9.27017 2.82541 9.63895C2.20413 10.2867 1.5 11.021 1.5 12C1.5 12.979 2.20413 13.7132 2.82541 14.3611C3.17908 14.7298 3.54474 15.1111 3.68289 15.4451C3.80988 15.752 3.81757 16.2603 3.82498 16.752C3.83881 17.6668 3.85446 18.7038 4.57535 19.4247C5.29623 20.1455 6.33316 20.1612 7.24805 20.175C7.73969 20.1824 8.24798 20.1901 8.55487 20.3171C8.88885 20.4553 9.27017 20.8209 9.63895 21.1746C10.2867 21.7959 11.021 22.5 12 22.5C12.979 22.5 13.7132 21.7959 14.3611 21.1746C14.7298 20.8209 15.1111 20.4553 15.4451 20.3171C15.752 20.1901 16.2603 20.1824 16.752 20.175C17.6668 20.1612 18.7038 20.1455 19.4247 19.4247C20.1455 18.7038 20.1612 17.6668 20.175 16.752C20.1824 16.2603 20.1901 15.752 20.3171 15.4451C20.4553 15.1111 20.8209 14.7298 21.1746 14.3611C21.7959 13.7133 22.5 12.979 22.5 12C22.5 11.021 21.7959 10.2868 21.1746 9.63895ZM16.6428 10.2925L11.1428 15.5425C11.0033 15.6757 10.8178 15.75 10.625 15.75C10.4321 15.75 10.2467 15.6757 10.1071 15.5425L7.35718 12.9175C7.28589 12.8496 7.22869 12.7682 7.18886 12.6781C7.14902 12.588 7.12733 12.4909 7.12502 12.3924C7.1227 12.2939 7.13981 12.196 7.17537 12.1041C7.21093 12.0122 7.26424 11.9283 7.33226 11.857C7.40028 11.7857 7.48167 11.7286 7.57178 11.6888C7.6619 11.649 7.75897 11.6273 7.85746 11.625C7.95595 11.6227 8.05392 11.6399 8.14578 11.6755C8.23764 11.7111 8.32158 11.7644 8.39282 11.8325L10.625 13.9632L15.6072 9.20746C15.6784 9.13942 15.7624 9.08607 15.8542 9.05048C15.9461 9.01489 16.0441 8.99774 16.1425 9.00002C16.241 9.0023 16.3381 9.02395 16.4282 9.06376C16.5183 9.10356 16.5997 9.16073 16.6677 9.23199C16.7358 9.30325 16.7891 9.38722 16.8246 9.47909C16.8602 9.57096 16.8773 9.66894 16.875 9.76743C16.8727 9.86591 16.851 9.96298 16.8111 10.0531C16.7713 10.1432 16.7141 10.2246 16.6428 10.2925Z" fill="#33CC7F"/>
</svg>
