<svg width="40" height="40" viewBox="0 0 40 40" fill="none" xmlns="http://www.w3.org/2000/svg">
<circle cx="20" cy="20" r="20" fill="#F5F6FA"/>
<path d="M28.024 15.7133L22.7804 10.4696C22.7729 10.4621 22.7647 10.4555 22.7569 10.4484C22.7468 10.4391 22.737 10.4295 22.7263 10.4207C22.7193 10.415 22.7117 10.4099 22.7045 10.4044C22.6922 10.395 22.6801 10.3855 22.6673 10.3768C22.6615 10.373 22.6553 10.3697 22.6494 10.366C22.6346 10.3566 22.6197 10.3473 22.6041 10.3389C22.5999 10.3367 22.5955 10.3349 22.5913 10.3328C22.5737 10.3237 22.556 10.315 22.5376 10.3074C22.5348 10.3062 22.5318 10.3053 22.5289 10.3042C22.5091 10.2962 22.4891 10.2888 22.4686 10.2826C22.4656 10.2817 22.4626 10.2811 22.4596 10.2803C22.4393 10.2743 22.4187 10.2689 22.3977 10.2647C22.391 10.2634 22.3841 10.2628 22.3773 10.2616C22.36 10.2586 22.3426 10.2555 22.3249 10.2538C22.3 10.2513 22.275 10.25 22.25 10.25H13.2493C12.8516 10.2505 12.4703 10.4086 12.1891 10.6898C11.9079 10.971 11.7497 11.3523 11.7493 11.75V28.25C11.7497 28.6477 11.9079 29.029 12.1891 29.3102C12.4703 29.5914 12.8516 29.7495 13.2493 29.75H26.75C27.1477 29.7495 27.529 29.5914 27.8102 29.3102C28.0914 29.029 28.2495 28.6477 28.25 28.25V16.2645C28.2501 16.2596 28.2507 16.2549 28.2507 16.25C28.2508 16.1499 28.2308 16.0508 28.1918 15.9586C28.1529 15.8664 28.0958 15.783 28.024 15.7133ZM23 24.5H17C16.8011 24.5 16.6103 24.421 16.4697 24.2803C16.329 24.1397 16.25 23.9489 16.25 23.75C16.25 23.5511 16.329 23.3603 16.4697 23.2197C16.6103 23.079 16.8011 23 17 23H23C23.1989 23 23.3897 23.079 23.5303 23.2197C23.671 23.3603 23.75 23.5511 23.75 23.75C23.75 23.9489 23.671 24.1397 23.5303 24.2803C23.3897 24.421 23.1989 24.5 23 24.5ZM23 21.5H17C16.8011 21.5 16.6103 21.421 16.4697 21.2803C16.329 21.1397 16.25 20.9489 16.25 20.75C16.25 20.5511 16.329 20.3603 16.4697 20.2197C16.6103 20.079 16.8011 20 17 20H23C23.1989 20 23.3897 20.079 23.5303 20.2197C23.671 20.3603 23.75 20.5511 23.75 20.75C23.75 20.9489 23.671 21.1397 23.5303 21.2803C23.3897 21.421 23.1989 21.5 23 21.5ZM22.25 16.25V12.0606L26.4393 16.25H22.25Z" fill="#2F80ED"/>
</svg>
