<svg width="22" height="22" viewBox="0 0 22 22" fill="none" xmlns="http://www.w3.org/2000/svg">
<g clip-path="url(#clip0_4476_21687)">
<circle cx="11" cy="11" r="10.5" fill="#CCEFDC" fill-opacity="0.4" stroke="white"/>
<path d="M15.8535 15.146C15.8999 15.1925 15.9368 15.2476 15.9619 15.3083C15.9871 15.369 16 15.4341 16 15.4997C16 15.5654 15.9871 15.6305 15.9619 15.6912C15.9368 15.7519 15.8999 15.807 15.8535 15.8535C15.807 15.8999 15.7519 15.9368 15.6912 15.9619C15.6305 15.9871 15.5654 16 15.4997 16C15.4341 16 15.369 15.9871 15.3083 15.9619C15.2476 15.9368 15.1925 15.8999 15.146 15.8535L11 11.7068L6.85398 15.8535C6.76017 15.9473 6.63292 16 6.50025 16C6.36758 16 6.24033 15.9473 6.14652 15.8535C6.0527 15.7597 6 15.6324 6 15.4997C6 15.3671 6.0527 15.2398 6.14652 15.146L10.2932 11L6.14652 6.85398C6.0527 6.76017 6 6.63292 6 6.50025C6 6.36758 6.0527 6.24033 6.14652 6.14652C6.24033 6.0527 6.36758 6 6.50025 6C6.63292 6 6.76017 6.0527 6.85398 6.14652L11 10.2932L15.146 6.14652C15.2398 6.0527 15.3671 6 15.4997 6C15.6324 6 15.7597 6.0527 15.8535 6.14652C15.9473 6.24033 16 6.36758 16 6.50025C16 6.63292 15.9473 6.76017 15.8535 6.85398L11.7068 11L15.8535 15.146Z" fill="white"/>
</g>
<defs>
<clipPath id="clip0_4476_21687">
<rect width="22" height="22" fill="white"/>
</clipPath>
</defs>
</svg>
