<svg width="40" height="40" viewBox="0 0 40 40" fill="none" xmlns="http://www.w3.org/2000/svg">
<g clip-path="url(#clip0)">
<path d="M20 40C31.0457 40 40 31.0457 40 20C40 8.9543 31.0457 0 20 0C8.9543 0 0 8.9543 0 20C0 31.0457 8.9543 40 20 40Z" fill="#008E3F"/>
<path d="M40 20.0003C40 18.9816 39.9233 17.9809 39.7764 17.0032L32.9542 10.126L6.80641 10.8532L11.9807 16.0275L5.76172 25.8206L10.1934 30.2523L8.9932 31.5991L17.198 39.8039C18.1138 39.9324 19.0489 40.0003 20 40.0003C31.0457 40.0003 40 31.046 40 20.0003Z" fill="#004720"/>
<path d="M31.006 20.0415H8.99268V31.5985H31.006V20.0415Z" fill="#D9E021"/>
<path d="M31.0063 20.0415H19.9961V31.5985H31.0063V20.0415Z" fill="#8CC63F"/>
<path d="M29.7839 28.3887V23.2523C28.6694 23.2523 27.766 22.3488 27.766 21.2344H12.2342C12.2342 22.3488 11.3308 23.2523 10.2163 23.2523V28.3887C11.3308 28.3887 12.2342 29.2922 12.2342 30.4066H27.766C27.766 29.2922 28.6694 28.3887 29.7839 28.3887Z" fill="#60C344"/>
<path d="M27.7657 21.2344H19.9961V30.4067H27.7657C27.7657 29.2923 28.6691 28.3888 29.7836 28.3888V23.2523C28.6691 23.2523 27.7657 22.3488 27.7657 21.2344Z" fill="#47AB4B"/>
<path d="M20.0001 29.3214C21.1314 29.3214 22.0485 27.754 22.0485 25.8206C22.0485 23.8872 21.1314 22.3198 20.0001 22.3198C18.8688 22.3198 17.9517 23.8872 17.9517 25.8206C17.9517 27.754 18.8688 29.3214 20.0001 29.3214Z" fill="#D9E021"/>
<path d="M19.9998 22.3198C19.9986 22.3198 19.9973 22.32 19.9961 22.32V29.3212C19.9973 29.3212 19.9986 29.3214 19.9998 29.3214C21.1312 29.3214 22.0484 27.754 22.0484 25.8206C22.0484 23.8872 21.1312 22.3198 19.9998 22.3198Z" fill="#8CC63F"/>
<path d="M34.2383 12.8516H5.76172V25.8203H34.2383V12.8516Z" fill="white"/>
<path d="M34.2383 12.8516H19.9961V25.8203H34.2383V12.8516Z" fill="#E0E0E0"/>
<path d="M32.3926 11.8101H9.72975L6.80615 10.853L9.72975 9.896H32.3925C32.8347 9.896 33.1933 10.2545 33.1933 10.6968V11.0093C33.1933 11.4515 32.8348 11.8101 32.3926 11.8101Z" fill="#FF6838"/>
<path d="M32.3927 9.896H19.9961V11.8101H32.3926C32.8348 11.8101 33.1934 11.4515 33.1934 11.0093V10.6968C33.1934 10.2545 32.8349 9.896 32.3927 9.896Z" fill="#AE4E32"/>
<path d="M16.8359 14.8438H7.77344V15.9635H16.8359V14.8438Z" fill="#C0C0C0"/>
<path d="M32.2266 22.7085H23.1641V23.8283H32.2266V22.7085Z" fill="#758F9B"/>
<path d="M32.2266 17.4653H7.77344V18.5851H32.2266V17.4653Z" fill="#C0C0C0"/>
<path d="M32.2266 17.4653H19.9961V18.5851H32.2266V17.4653Z" fill="#758F9B"/>
<path d="M32.2266 20.0869H7.77344V21.2067H32.2266V20.0869Z" fill="#C0C0C0"/>
<path d="M32.2266 20.0869H19.9961V21.2067H32.2266V20.0869Z" fill="#758F9B"/>
</g>
<defs>
<clipPath id="clip0">
<rect width="40" height="40" fill="white"/>
</clipPath>
</defs>
</svg>
