<svg width="24" height="24" viewBox="0 0 24 24" fill="none" xmlns="http://www.w3.org/2000/svg">
<path d="M11.4697 12.5304C11.4721 12.5328 11.4748 12.5349 11.4773 12.5372C11.4925 12.552 11.5081 12.5664 11.5245 12.5799C11.5336 12.5874 11.5434 12.594 11.5528 12.601C11.5629 12.6086 11.5729 12.6165 11.5835 12.6236C11.5944 12.6309 11.6057 12.6373 11.617 12.6439C11.6268 12.6498 11.6363 12.6559 11.6464 12.6613C11.6577 12.6674 11.6693 12.6725 11.6808 12.6779C11.6915 12.683 11.7021 12.6883 11.713 12.6929C11.7241 12.6974 11.7354 12.7012 11.7467 12.7052C11.7585 12.7094 11.7702 12.714 11.7823 12.7176C11.7935 12.721 11.8049 12.7235 11.8163 12.7264C11.8286 12.7295 11.8409 12.733 11.8535 12.7355C11.8666 12.7381 11.8798 12.7396 11.8929 12.7415C11.904 12.7431 11.9148 12.7451 11.926 12.7462C11.9506 12.7487 11.9753 12.75 12 12.75C12.0247 12.75 12.0494 12.7487 12.074 12.7462C12.0852 12.7451 12.0961 12.7431 12.1071 12.7415C12.1203 12.7396 12.1335 12.7381 12.1465 12.7355C12.1591 12.733 12.1714 12.7295 12.1838 12.7264C12.1951 12.7235 12.2065 12.721 12.2177 12.7176C12.2298 12.714 12.2415 12.7094 12.2533 12.7052C12.2646 12.7012 12.276 12.6974 12.287 12.6929C12.298 12.6883 12.3085 12.683 12.3192 12.6779C12.3307 12.6725 12.3423 12.6674 12.3536 12.6613C12.3637 12.6559 12.3733 12.6498 12.3831 12.6439C12.3943 12.6373 12.4056 12.6309 12.4165 12.6236C12.4271 12.6165 12.4371 12.6086 12.4473 12.601C12.4567 12.594 12.4664 12.5874 12.4755 12.5799C12.4922 12.5662 12.5081 12.5516 12.5236 12.5365C12.5258 12.5343 12.5282 12.5325 12.5303 12.5304L17.0303 8.03036C17.1 7.96072 17.1552 7.87804 17.1929 7.78705C17.2306 7.69605 17.25 7.59853 17.25 7.50003C17.25 7.40154 17.2306 7.30401 17.193 7.21301C17.1553 7.12201 17.1 7.03933 17.0304 6.96968C16.9607 6.90003 16.8781 6.84478 16.7871 6.80709C16.6961 6.76939 16.5985 6.74999 16.5 6.74998C16.4016 6.74998 16.304 6.76937 16.213 6.80706C16.122 6.84475 16.0393 6.89999 15.9697 6.96963L12.75 10.1894V2.25C12.75 2.05109 12.671 1.86032 12.5303 1.71967C12.3897 1.57902 12.1989 1.5 12 1.5C11.8011 1.5 11.6103 1.57902 11.4697 1.71967C11.329 1.86032 11.25 2.05109 11.25 2.25V10.1894L8.03034 6.96963C7.96069 6.89999 7.878 6.84475 7.78701 6.80706C7.69601 6.76937 7.59848 6.74998 7.49998 6.74998C7.40149 6.74999 7.30396 6.76939 7.21297 6.80709C7.12197 6.84478 7.03929 6.90003 6.96965 6.96968C6.90001 7.03933 6.84477 7.12201 6.80708 7.21301C6.76939 7.30401 6.75 7.40154 6.75 7.50003C6.75 7.59853 6.76941 7.69605 6.8071 7.78705C6.8448 7.87804 6.90005 7.96072 6.9697 8.03036L11.4697 12.5304Z" fill="white"/>
<path d="M21 11.25H15.932L13.591 13.591C13.169 14.013 12.5967 14.25 12 14.25C11.4033 14.25 10.831 14.013 10.409 13.591L8.06799 11.25H3C2.60231 11.2505 2.22105 11.4086 1.93984 11.6898C1.65864 11.971 1.50045 12.3523 1.5 12.75V18.75C1.50045 19.1477 1.65864 19.529 1.93984 19.8102C2.22105 20.0914 2.60231 20.2495 3 20.25H21C21.3977 20.2495 21.779 20.0914 22.0602 19.8102C22.3414 19.529 22.4995 19.1477 22.5 18.75V12.75C22.4995 12.3523 22.3414 11.971 22.0602 11.6898C21.779 11.4086 21.3977 11.2505 21 11.25ZM17.625 16.875C17.4025 16.875 17.185 16.809 17 16.6854C16.815 16.5618 16.6708 16.3861 16.5857 16.1805C16.5005 15.975 16.4783 15.7488 16.5217 15.5305C16.5651 15.3123 16.6722 15.1118 16.8296 14.9545C16.9869 14.7972 17.1873 14.69 17.4056 14.6466C17.6238 14.6032 17.85 14.6255 18.0556 14.7106C18.2611 14.7958 18.4368 14.94 18.5604 15.125C18.6841 15.31 18.75 15.5275 18.75 15.75C18.75 16.0484 18.6315 16.3345 18.4205 16.5455C18.2096 16.7565 17.9234 16.875 17.625 16.875Z" fill="white"/>
</svg>
