<svg width="16" height="16" viewBox="0 0 16 16" fill="none" xmlns="http://www.w3.org/2000/svg">
<g clip-path="url(#clip0_9636_1344)">
<path d="M8 16C12.4183 16 16 12.4183 16 8C16 3.58172 12.4183 0 8 0C3.58172 0 0 3.58172 0 8C0 12.4183 3.58172 16 8 16Z" fill="#F46666"/>
<path d="M7.70279 8.29703L10.2827 10.8769C10.4468 11.041 10.7129 11.041 10.8769 10.8769C11.041 10.7128 11.041 10.4467 10.8769 10.2827L8.59411 7.99995L10.8769 5.71729C11.0409 5.55317 11.0409 5.28713 10.8769 5.12308C10.7128 4.95897 10.4467 4.95897 10.2826 5.12308L7.70273 7.70295C7.62071 7.78501 7.57974 7.89245 7.57974 7.99994C7.57974 8.10749 7.62078 8.21501 7.70279 8.29703Z" fill="white"/>
<path d="M8.29717 8.29703L5.71726 10.8769C5.55315 11.041 5.28707 11.041 5.12303 10.8769C4.95899 10.7128 4.95899 10.4467 5.12303 10.2827L7.40585 7.99996L5.1231 5.71729C4.95905 5.55318 4.95905 5.28713 5.1231 5.12309C5.28715 4.95898 5.55322 4.95898 5.71733 5.12309L8.29723 7.70295C8.37925 7.78501 8.42022 7.89245 8.42022 7.99995C8.42022 8.10749 8.37918 8.21501 8.29717 8.29703Z" fill="white"/>
<path d="M7.70279 8.29703L10.2827 10.8769C10.4468 11.041 10.7129 11.041 10.8769 10.8769C11.041 10.7128 11.041 10.4467 10.8769 10.2827L8.59411 7.99995L10.8769 5.71729C11.0409 5.55317 11.0409 5.28713 10.8769 5.12308C10.7128 4.95897 10.4467 4.95897 10.2826 5.12308L7.70273 7.70295C7.62071 7.78501 7.57974 7.89245 7.57974 7.99994C7.57974 8.10749 7.62078 8.21501 7.70279 8.29703Z" stroke="white" stroke-width="0.499999"/>
<path d="M8.29717 8.29703L5.71726 10.8769C5.55315 11.041 5.28707 11.041 5.12303 10.8769C4.95899 10.7128 4.95899 10.4467 5.12303 10.2827L7.40585 7.99996L5.1231 5.71729C4.95905 5.55318 4.95905 5.28713 5.1231 5.12309C5.28715 4.95898 5.55322 4.95898 5.71733 5.12309L8.29723 7.70295C8.37925 7.78501 8.42022 7.89245 8.42022 7.99995C8.42022 8.10749 8.37918 8.21501 8.29717 8.29703Z" stroke="white" stroke-width="0.499999"/>
</g>
<defs>
<clipPath id="clip0_9636_1344">
<rect width="16" height="16" fill="white"/>
</clipPath>
</defs>
</svg>
