<svg width="12" height="24" viewBox="0 0 12 24" fill="none" xmlns="http://www.w3.org/2000/svg">
<path d="M10.9324 19.7426C10.8247 19.6145 10.618 19.569 10.4454 19.6353C8.53588 20.369 6.36862 21.1446 5.94324 21.2124C5.93252 21.2047 5.91551 21.1905 5.89322 21.1659C5.83558 21.1026 5.80754 21.0198 5.80754 20.9128C5.80754 20.0362 6.62278 17.3694 8.23052 12.9869C9.58611 9.30467 9.74286 8.54227 9.74286 8.28914C9.74286 7.89839 9.55853 7.56822 9.20959 7.33426C8.87813 7.11241 8.41501 7 7.83319 7C6.86538 7 5.74368 7.2982 4.40394 7.91169C3.10568 8.5064 1.65781 9.51366 0.100804 10.9055C-0.0210749 11.0145 -0.0338147 11.1775 0.0701206 11.2982C0.174211 11.4189 0.367244 11.4648 0.53511 11.4094C1.08174 11.2283 3.82888 10.315 4.22932 10.1108C4.55721 9.94401 4.84105 9.85934 5.073 9.85934C5.08131 9.85934 5.08846 9.85959 5.09444 9.85997C5.09723 9.87245 5.09987 9.89149 5.09987 9.91879C5.09987 10.1109 5.05117 10.3383 4.9557 10.5936C2.61475 16.7493 1.47682 20.523 1.47682 22.1304C1.47682 22.6977 1.6711 23.1544 2.05414 23.4876C2.44448 23.8276 2.97099 24 3.61907 24C4.30972 24 5.15029 23.7659 6.18871 23.2842C7.19357 22.8182 8.72728 21.793 10.8777 20.1498C11.017 20.0434 11.0402 19.8707 10.9324 19.7426Z" fill="#5490F9"/>
<path d="M10.9317 0.594408C10.5465 0.20015 10.0536 0.000244141 9.4669 0.000244141C8.73641 0.000244141 8.10017 0.288918 7.57608 0.85829C7.06036 1.41828 6.79883 2.10543 6.79883 2.9006C6.79883 3.52886 6.99146 4.04951 7.37133 4.44799C7.75628 4.85249 8.24251 5.05756 8.81634 5.05756C9.51695 5.05756 10.1498 4.75269 10.6971 4.15141C11.2348 3.56069 11.5076 2.86618 11.5076 2.08721C11.5076 1.48859 11.3139 0.986398 10.9317 0.594408Z" fill="#5490F9"/>
</svg>
