<svg width="19" height="17" viewBox="0 0 19 17" fill="none" xmlns="http://www.w3.org/2000/svg">
<g clip-path="url(#clip0_536_14924)">
<path d="M7.83306 17C7.65622 17 7.48662 16.9298 7.36158 16.8047C7.23653 16.6797 7.16629 16.5101 7.16629 16.3333V9.92333L0.985275 3.12667C0.741959 2.85858 0.5817 2.52565 0.523947 2.16828C0.466194 1.8109 0.513431 1.44445 0.659924 1.1134C0.806417 0.782342 1.04587 0.500917 1.34922 0.303279C1.65256 0.10564 2.00677 0.000285075 2.36883 0H16.6312C16.9932 0.000285075 17.3474 0.10564 17.6508 0.303279C17.9541 0.500917 18.1936 0.782342 18.3401 1.1134C18.4866 1.44445 18.5338 1.8109 18.4761 2.16828C18.4183 2.52565 18.258 2.85858 18.0147 3.12667L11.8337 9.92333V13.6667C11.8337 13.7665 11.8112 13.8651 11.7679 13.9551C11.7246 14.0451 11.6616 14.1243 11.5837 14.1867L8.2498 16.8533C8.13159 16.9482 7.98461 16.9999 7.83306 17ZM2.36883 1.33333C2.26508 1.33359 2.16362 1.36391 2.07674 1.42063C1.98986 1.47734 1.92128 1.55801 1.87931 1.65288C1.83733 1.74776 1.82376 1.85276 1.84023 1.95518C1.85669 2.05761 1.9025 2.15306 1.9721 2.23L8.32647 9.23C8.43534 9.3497 8.49696 9.5049 8.49984 9.66667V14.9467L10.5002 13.3333V9.66667C10.4998 9.50029 10.5616 9.33978 10.6735 9.21667L17.0279 2.21667C17.0934 2.13939 17.1356 2.04517 17.1498 1.94489C17.1639 1.84462 17.1494 1.74238 17.1079 1.65C17.0664 1.55762 16.9997 1.47886 16.9153 1.42282C16.8309 1.36679 16.7324 1.33576 16.6312 1.33333H2.36883Z" fill="#00B14F"/>
<circle cx="13.5" cy="12" r="4.33333" stroke="white" stroke-width="0.666667"/>
<circle cx="13.5" cy="12" r="3.33333" fill="white"/>
<g clip-path="url(#clip1_536_14924)">
<path fill-rule="evenodd" clip-rule="evenodd" d="M13.5 7.99989C15.7088 7.99989 17.5 9.79114 17.5 11.9999C17.5 14.2086 15.7088 15.9999 13.5 15.9999C11.2912 15.9999 9.5 14.2086 9.5 11.9999C9.5 9.79114 11.2912 7.99989 13.5 7.99989ZM12.6693 13.2991L11.6901 12.319C11.5232 12.1521 11.5232 11.8798 11.6901 11.7129C11.857 11.5461 12.1304 11.5471 12.2961 11.7129L12.9865 12.4039L14.704 10.6864C14.8709 10.5195 15.1431 10.5195 15.31 10.6864C15.4769 10.8533 15.4767 11.1258 15.31 11.2924L13.289 13.3134C13.1224 13.4801 12.8499 13.4803 12.683 13.3134C12.6783 13.3087 12.6738 13.304 12.6693 13.2991Z" fill="#00B14F"/>
</g>
</g>
<defs>
<clipPath id="clip0_536_14924">
<rect width="18" height="17" fill="white" transform="translate(0.5)"/>
</clipPath>
<clipPath id="clip1_536_14924">
<rect width="8" height="8.00004" fill="white" transform="translate(9.5 7.99989)"/>
</clipPath>
</defs>
</svg>
