<svg width="19" height="17" viewBox="0 0 19 17" fill="none" xmlns="http://www.w3.org/2000/svg">
<g clip-path="url(#clip0_1275_10030)">
<path d="M7.83306 17.5C7.65622 17.5 7.48662 17.4298 7.36158 17.3047C7.23653 17.1797 7.16629 17.0101 7.16629 16.8333V10.4233L0.985275 3.62667C0.741959 3.35858 0.5817 3.02565 0.523947 2.66828C0.466194 2.3109 0.513431 1.94445 0.659924 1.6134C0.806417 1.28234 1.04587 1.00092 1.34922 0.803279C1.65256 0.60564 2.00677 0.500285 2.36883 0.5H16.6312C16.9932 0.500285 17.3474 0.60564 17.6508 0.803279C17.9541 1.00092 18.1936 1.28234 18.3401 1.6134C18.4866 1.94445 18.5338 2.3109 18.4761 2.66828C18.4183 3.02565 18.258 3.35858 18.0147 3.62667L11.8337 10.4233V14.1667C11.8337 14.2665 11.8112 14.3651 11.7679 14.4551C11.7246 14.5451 11.6616 14.6243 11.5837 14.6867L8.2498 17.3533C8.13159 17.4482 7.98461 17.4999 7.83306 17.5ZM2.36883 1.83333C2.26508 1.83359 2.16362 1.86391 2.07674 1.92063C1.98986 1.97734 1.92128 2.05801 1.87931 2.15288C1.83733 2.24776 1.82376 2.35276 1.84023 2.45518C1.85669 2.55761 1.9025 2.65306 1.9721 2.73L8.32647 9.73C8.43534 9.8497 8.49696 10.0049 8.49984 10.1667V15.4467L10.5002 13.8333V10.1667C10.4998 10.0003 10.5616 9.83978 10.6735 9.71667L17.0279 2.71667C17.0934 2.63939 17.1356 2.54517 17.1498 2.44489C17.1639 2.34462 17.1494 2.24238 17.1079 2.15C17.0664 2.05762 16.9997 1.97886 16.9153 1.92282C16.8309 1.86679 16.7324 1.83576 16.6312 1.83333H2.36883Z" fill="#363636"/>
</g>
<defs>
<clipPath id="clip0_1275_10030">
<rect width="18" height="17" fill="white" transform="translate(0.5 0.5)"/>
</clipPath>
</defs>
</svg>
