<svg width="64" height="64" viewBox="0 0 64 64" fill="none" xmlns="http://www.w3.org/2000/svg">
<path d="M32 64C14.3269 64 0 49.6731 0 32C0 14.3269 14.3269 0 32 0C49.6731 0 64 14.3269 64 32C64 49.6731 49.6731 64 32 64Z" fill="#00B14F"/>
<path d="M-0.000144958 32C-0.000144958 30.3533 0.124233 28.7355 0.364231 27.1558L16.2492 11.2708L44.2726 30.159L50.0161 45.8936L31.91 63.9999C14.2782 63.9514 -0.000144958 49.6431 -0.000144958 32Z" fill="#006A2F"/>
<path d="M16.2492 37.4336H41.41L50.0161 45.8936V11.2705H16.2492V37.4336Z" fill="white"/>
<path d="M33.063 11.2708H16.2494V37.4339H33.063V11.2708Z" fill="#E9ECF4"/>
<path d="M46.2549 16.071H20.011V19.9539H46.2549V16.071Z" fill="#717687"/>
<path d="M33.0635 16.071H20.0114V19.9539H33.0635V16.071Z" fill="#575A65"/>
<path d="M46.2549 22.4692H20.011V26.3521H46.2549V22.4692Z" fill="#717687"/>
<path d="M33.0635 22.4692H20.0114V26.3521H33.0635V22.4692Z" fill="#575A65"/>
<path d="M46.2549 28.8672H20.011V32.7501H46.2549V28.8672Z" fill="#717687"/>
<path d="M33.0635 28.8672H20.0114V32.7501H33.0635V28.8672Z" fill="#575A65"/>
<path d="M29.7168 42.4436L31.1655 48.3785L25.2305 46.9299L25.6979 42.9109L29.7168 42.4436Z" fill="#F1CC30"/>
<path d="M29.7241 42.4434L9.75278 22.472L5.26722 26.9576L25.2386 46.9289L29.7241 42.4434Z" fill="#E06A24"/>
</svg>
