<svg width="20" height="20" viewBox="0 0 20 20" fill="none" xmlns="http://www.w3.org/2000/svg">
<g clip-path="url(#clip0)">
<path d="M5.00008 7.5C4.53925 7.5 4.16675 7.12667 4.16675 6.66667V5.83333C4.16675 5.37333 4.53925 5 5.00008 5C5.46091 5 5.83341 5.37333 5.83341 5.83333V6.66667C5.83341 7.12667 5.46091 7.5 5.00008 7.5Z" fill="#33CC7F"/>
<path d="M14.1666 7.5C13.7058 7.5 13.3333 7.12667 13.3333 6.66667V5.83333C13.3333 5.37333 13.7058 5 14.1666 5C14.6274 5 14.9999 5.37333 14.9999 5.83333V6.66667C14.9999 7.12667 14.6274 7.5 14.1666 7.5Z" fill="#33CC7F"/>
<path d="M8.33341 12.5H7.50008C7.03925 12.5 6.66675 12.1267 6.66675 11.6667C6.66675 11.2067 7.03925 10.8333 7.50008 10.8333H8.33341C8.79341 10.8333 9.16674 10.4592 9.16674 10V5.83333C9.16674 5.37333 9.53924 5 10.0001 5C10.4609 5 10.8334 5.37333 10.8334 5.83333V10C10.8334 11.3783 9.71174 12.5 8.33341 12.5Z" fill="#33CC7F"/>
<path d="M9.58327 16.6666C8.09661 16.6666 6.70411 15.8708 5.94911 14.5899C5.71578 14.1933 5.84745 13.6824 6.24411 13.4491C6.63911 13.2149 7.15078 13.3466 7.38494 13.7441C7.84161 14.5183 8.68411 14.9999 9.58327 14.9999C10.4824 14.9999 11.3249 14.5183 11.7824 13.7433C12.0158 13.3458 12.5266 13.2141 12.9233 13.4483C13.3199 13.6816 13.4516 14.1933 13.2183 14.5891C12.4624 15.8708 11.0699 16.6666 9.58327 16.6666Z" fill="#33CC7F"/>
<path d="M19.1666 6.66667C18.7066 6.66667 18.3332 6.29333 18.3332 5.83333V2.5C18.3332 2.04083 17.9591 1.66667 17.4999 1.66667H14.1666C13.7066 1.66667 13.3333 1.29333 13.3333 0.833333C13.3333 0.373333 13.7066 0 14.1666 0H17.4999C18.8782 0 19.9999 1.12167 19.9999 2.5V5.83333C19.9999 6.29333 19.6266 6.66667 19.1666 6.66667Z" fill="#33CC7F"/>
<path d="M0.833333 6.66667C0.373333 6.66667 0 6.29333 0 5.83333V2.5C0 1.12167 1.12167 0 2.5 0H5.83333C6.29333 0 6.66667 0.373333 6.66667 0.833333C6.66667 1.29333 6.29333 1.66667 5.83333 1.66667H2.5C2.04083 1.66667 1.66667 2.04083 1.66667 2.5V5.83333C1.66667 6.29333 1.29333 6.66667 0.833333 6.66667Z" fill="#33CC7F"/>
<path d="M17.4999 19.9998H14.1666C13.7066 19.9998 13.3333 19.6265 13.3333 19.1665C13.3333 18.7065 13.7066 18.3332 14.1666 18.3332H17.4999C17.9591 18.3332 18.3332 17.959 18.3332 17.4998V14.1665C18.3332 13.7065 18.7066 13.3332 19.1666 13.3332C19.6266 13.3332 19.9999 13.7065 19.9999 14.1665V17.4998C19.9999 18.8782 18.8782 19.9998 17.4999 19.9998Z" fill="#33CC7F"/>
<path d="M5.83333 19.9998H2.5C1.12167 19.9998 0 18.8782 0 17.4998V14.1665C0 13.7065 0.373333 13.3332 0.833333 13.3332C1.29333 13.3332 1.66667 13.7065 1.66667 14.1665V17.4998C1.66667 17.959 2.04083 18.3332 2.5 18.3332H5.83333C6.29333 18.3332 6.66667 18.7065 6.66667 19.1665C6.66667 19.6265 6.29333 19.9998 5.83333 19.9998Z" fill="#33CC7F"/>
</g>
<defs>
<clipPath id="clip0">
<rect width="20" height="20" fill="white"/>
</clipPath>
</defs>
</svg>
