<svg width="56" height="56" viewBox="0 0 56 56" fill="none" xmlns="http://www.w3.org/2000/svg">
<circle cx="28" cy="28" r="26.5" fill="#CCEFDC" stroke="white" stroke-width="3"/>
<path d="M19.1238 52.292C19.7336 52.3913 20.3279 52.5961 20.926 52.7481C21.6144 52.9231 22.3104 53.0478 23.0106 53.163C26.7266 53.7735 30.6875 53.6449 34.3863 52.9763L36.823 52.4247L36.8339 53.6302L36.8324 54.6178L34.089 55.3487C30.2526 56.1708 26.2598 56.2195 22.4085 55.4682L20.1717 54.9387L19.1206 54.6397L19.1238 52.292Z" fill="#33CC7F"/>
<path d="M19.1187 47.9438L21.6052 47.971L21.6107 48.9088L26.8485 48.9167L29.3125 48.921L34.3347 48.9227L34.3386 47.9604L36.8255 47.9683L36.8294 52.4097L36.8234 52.4244L34.3867 52.976C30.6881 53.6448 26.727 53.7732 23.011 53.1627C22.3108 53.0477 21.6146 52.9228 20.9264 52.7478C20.3283 52.5958 19.7338 52.391 19.1242 52.2917L19.1191 52.145L19.1187 47.9436V47.9438Z" fill="#36D987"/>
<path d="M35.3793 49.5376C35.4987 49.541 35.6191 49.554 35.7283 49.6061C35.8891 49.6829 36.0057 49.8257 36.0551 49.9966C36.1006 50.154 36.08 50.3545 35.9974 50.4968C35.888 50.6855 35.7442 50.7524 35.5423 50.8124C35.4082 50.8168 35.2703 50.819 35.1474 50.7575C34.995 50.6815 34.8993 50.5553 34.8461 50.3955C34.7948 50.2415 34.8082 50.0455 34.8839 49.9023C34.9997 49.6838 35.1501 49.6055 35.3791 49.5376H35.3793Z" fill="#723E33"/>
<path d="M20.5346 49.5081C20.6522 49.517 20.772 49.5329 20.878 49.5887C21.0444 49.6761 21.1444 49.8257 21.1989 50.0006C21.2476 50.1568 21.2169 50.3734 21.1386 50.5164C21.0395 50.6971 20.8944 50.7598 20.7056 50.8186C20.5829 50.8169 20.4531 50.8215 20.3405 50.7654C20.1822 50.6864 20.0622 50.5468 20.015 50.3753C19.9684 50.2055 19.9839 49.9911 20.0718 49.8355C20.1818 49.6408 20.3243 49.563 20.5346 49.5081Z" fill="#723E33"/>
<path d="M36.8281 37.7903L37.3607 38.0363C37.8905 38.2834 38.4331 38.5176 38.944 38.8027C39.3951 39.0545 39.8183 39.3539 40.2332 39.661L41.2991 40.6981C41.508 41.0026 41.7361 41.2871 41.9291 41.6036C42.3308 42.2624 42.6202 43.0081 42.8068 43.756L42.9756 44.5435C42.9979 44.6668 43.0056 44.8318 43.0507 44.9467L43.1322 47.9127L43.1473 51.4904C41.6914 52.4586 40.0877 53.3056 38.4753 53.9808L37.7748 54.2591L36.8443 54.6113L36.8341 53.6299L36.8232 52.4244L36.8292 52.4097L36.8254 47.9682L36.8277 37.7903H36.8281Z" fill="white"/>
<path d="M37.7856 50.4356L37.7695 47.2967C37.7665 46.8174 37.7131 46.2691 37.7735 45.7968C37.7852 45.7056 37.8356 45.6386 37.8999 45.5772C37.9614 45.5183 38.0254 45.4898 38.1031 45.457C38.2272 45.464 38.3629 45.5206 38.4402 45.6244C38.5231 45.736 38.4785 46.9396 38.4778 47.1697L38.4744 51.7913L38.4753 53.9808L37.7748 54.2591L36.8443 54.6113L36.8341 53.6299L36.8232 52.4244L36.8292 52.4097L37.7695 52.1058L37.7856 50.4354V50.4356Z" fill="#AAC6E6"/>
<path d="M37.7859 50.4355L37.7748 54.2592L36.8443 54.6114L36.8341 53.63L36.8232 52.4245L36.8292 52.4098L37.7695 52.1059L37.7856 50.4355H37.7859Z" fill="#AAC6E6"/>
<path d="M43.1319 47.9128L43.147 51.4905C41.6911 52.4587 40.0874 53.3057 38.475 53.9808L38.4741 51.7914L40.0523 50.8372C41.2215 50.0736 42.3063 49.0373 43.1317 47.9126L43.1319 47.9128Z" fill="#AAC6E6"/>
<path d="M19.1147 37.6743L19.1186 47.9441L19.119 52.1455L19.1241 52.2922L19.1209 54.6399L18.4117 54.3994L17.7442 54.1459C15.9381 53.4752 14.2542 52.507 12.6445 51.4603L12.6947 46.5908C12.6986 45.8767 12.8158 45.1631 12.9346 44.4611C13.1701 43.4368 13.5176 42.5466 14.0146 41.6254L14.9574 40.2897L15.6054 39.6435C15.7166 39.5803 15.8286 39.4566 15.9269 39.3717C16.5703 38.8441 17.3187 38.4994 18.0555 38.1277L19.1147 37.6752V37.6743Z" fill="white"/>
<path d="M17.7229 51.6361L17.7246 47.7222C17.7225 47.0628 17.6785 46.3749 17.7197 45.718C17.7255 45.6253 17.7534 45.5866 17.8168 45.5213C17.9185 45.4171 18.0157 45.4192 18.1549 45.4205C18.2593 45.4677 18.3317 45.5274 18.3783 45.6355C18.4364 45.7705 18.406 46.0308 18.4057 46.1799L18.4051 47.4188L18.4064 50.317L18.4038 51.8224C18.4766 51.9765 18.6268 51.9921 18.7843 52.0474C18.8924 52.0852 19.0064 52.1252 19.1192 52.1454L19.1243 52.2921L19.1211 54.6398L18.4119 54.3993L17.7444 54.1458L17.7234 51.6365L17.7229 51.6361Z" fill="#AAC6E6"/>
<path d="M18.4038 51.8225C18.4766 51.9767 18.6268 51.9922 18.7843 52.0475C18.8924 52.0853 19.0064 52.1253 19.1192 52.1455L19.1243 52.2923L19.1211 54.6399L18.4119 54.3994C18.4438 54.0994 18.4181 53.777 18.4172 53.4742L18.404 51.8227L18.4038 51.8225Z" fill="#AAC6E6"/>
<path d="M12.6445 51.4599L12.6947 46.5903C12.6996 46.7166 12.6792 46.988 12.7413 47.0879C12.8311 47.2323 12.8924 47.3956 12.975 47.5449C13.1456 47.8531 13.3307 48.1484 13.5327 48.437C14.564 49.9107 16.1503 50.8453 17.7232 51.6364L17.7442 54.1456C15.9381 53.4749 14.2542 52.5067 12.6445 51.4601V51.4599Z" fill="#AAC6E6"/>
<path d="M24.1995 34.7736C24.3959 34.6035 24.6172 34.4432 24.8521 34.3313L24.8536 35.3031C24.8534 35.5779 24.8398 35.8405 24.9121 36.1082C25.2117 37.217 25.9731 38.1308 26.8799 38.8055L27.814 39.3097C27.7134 39.4182 27.5883 39.4817 27.4678 39.5649C27.1527 39.782 26.684 40.0623 26.4576 40.374C26.5257 40.5867 26.6633 41.0043 26.618 41.2191C26.7286 41.4113 26.7361 41.722 26.7506 41.94C26.8059 42.7702 26.7661 43.6221 26.7821 44.4557L26.8484 48.9171L21.6107 48.9092L21.6051 47.9714L19.1186 47.9442L19.1147 37.6744L21.62 36.7515C21.8039 36.7013 21.9715 36.6464 22.1449 36.5665L22.2405 36.4742L23.1829 35.5672L24.1998 34.774L24.1995 34.7736Z" fill="white"/>
<path d="M22.2405 36.4738C22.3024 36.8026 22.336 37.1288 22.4128 37.4563C22.7195 38.7624 23.4312 39.9248 24.5468 40.6907C24.8662 40.91 25.1954 41.0905 25.562 41.219L26.4578 40.3739C26.5259 40.5865 26.6635 41.0042 26.6182 41.219C26.4259 41.543 26.3242 41.9407 26.0192 42.1825C25.7345 42.4081 25.3645 42.4747 25.0115 42.4185C24.3593 42.3148 23.7189 41.7023 23.3346 41.1932C22.3748 39.9214 21.93 38.1421 22.145 36.5659L22.2405 36.4736V36.4738Z" fill="#AAC6E6"/>
<path d="M24.1995 34.7736C24.3959 34.6035 24.6172 34.4432 24.8521 34.3313L24.8536 35.3031C24.8534 35.5779 24.8398 35.8405 24.9121 36.1082C25.2117 37.217 25.973 38.1308 26.8799 38.8055L27.814 39.3097C27.7134 39.4182 27.5882 39.4817 27.4678 39.5649C27.1527 39.782 26.6839 40.0623 26.4575 40.374L25.5617 41.2191C25.1951 41.0907 24.8661 40.9101 24.5466 40.6909C23.4309 39.9251 22.719 38.7628 22.4126 37.4564C22.3358 37.1287 22.3022 36.8025 22.2402 36.474L23.1826 35.567L24.1995 34.7738V34.7736Z" fill="white"/>
<path d="M24.1992 34.7736C24.3956 34.6035 24.6169 34.4432 24.8518 34.3313L24.8533 35.3031C24.8531 35.5779 24.8395 35.8405 24.9118 36.1082C25.2114 37.217 25.9727 38.1308 26.8796 38.8055C26.8277 38.8404 26.7868 38.8544 26.7262 38.8693C26.4519 38.7798 26.2113 38.6054 25.9774 38.4402C25.0667 37.7967 24.4886 36.9063 24.2845 35.8124C24.2213 35.4737 24.2296 35.1179 24.1992 34.7738V34.7736Z" fill="#AAC6E6"/>
<path d="M21.62 36.7512L21.6051 47.9712L19.1186 47.944L19.1147 37.6741L21.62 36.7512Z" fill="#BAF7D8"/>
<path d="M31.1534 34.4448C31.3681 34.4935 31.6403 34.7838 31.8126 34.9282L32.155 35.191L33.0838 35.9914C33.3121 36.1892 33.5474 36.4191 33.8017 36.5807L33.8242 36.5932C34.0006 36.654 34.1998 36.7132 34.3581 36.812L36.1303 37.4832C36.3546 37.5731 36.6272 37.6552 36.8283 37.7904L36.8259 47.9684L34.3389 47.9605L34.3351 48.9228L29.3129 48.9211L26.8489 48.9168L26.7825 44.4554C26.7663 43.6218 26.8063 42.7697 26.751 41.9397C26.7365 41.7217 26.7291 41.4111 26.6184 41.2188C26.6638 41.004 26.5261 40.5864 26.458 40.3737C26.6844 40.062 27.1532 39.7815 27.4683 39.5646C27.5887 39.4817 27.7136 39.4181 27.8145 39.3094C28.0651 39.4017 28.2034 39.3047 28.4318 39.2067L29.1603 38.8082L29.8572 38.2247C30.4395 37.6397 31.0362 36.6972 31.1381 35.8649C31.1941 35.4085 31.1551 34.906 31.1538 34.4446L31.1534 34.4448Z" fill="white"/>
<path d="M33.8011 36.5805L33.8237 36.593C33.9022 36.9433 33.9001 37.2548 33.8947 37.6125C33.8783 38.7328 33.5996 39.8488 32.9998 40.8033C32.6027 41.4349 32.0316 42.1188 31.308 42.3731L31.2646 42.3887C30.9496 42.4973 30.6092 42.4548 30.3119 42.3102C29.9777 42.1477 29.8181 41.8441 29.6513 41.5319C29.5953 41.4271 29.5436 41.301 29.4634 41.214C29.4485 40.9786 29.6072 40.6587 29.7 40.4442L30.4571 41.1848C30.6222 41.1865 30.7984 41.1038 30.9439 41.0311C31.3154 40.8457 31.641 40.6266 31.9529 40.3534C32.9338 39.4936 33.7107 37.8713 33.8009 36.5801L33.8011 36.5805Z" fill="#AAC6E6"/>
<path d="M31.1532 34.4448C31.3679 34.4935 31.64 34.7838 31.8124 34.9282L32.1547 35.191L33.0835 35.9914C33.3118 36.1892 33.5472 36.4191 33.8014 36.5807C33.7112 37.8719 32.9342 39.4942 31.9535 40.354C31.6415 40.6273 31.316 40.8463 30.9445 41.0317C30.7987 41.1044 30.6227 41.187 30.4576 41.1855L29.7005 40.4448C29.4861 40.1766 29.1333 39.9278 28.8601 39.7177C28.7296 39.6174 28.5922 39.4932 28.4447 39.4217L28.3881 39.3952L28.3628 39.3188C28.4081 39.2769 28.3977 39.2961 28.4188 39.2429L28.4313 39.2072L29.1599 38.8087L29.8567 38.2251C30.4391 37.6401 31.0357 36.6977 31.1377 35.8653C31.1936 35.409 31.1547 34.9065 31.1534 34.445L31.1532 34.4448Z" fill="white"/>
<path d="M31.1535 34.4448C31.3682 34.4935 31.6403 34.7838 31.8127 34.9282L31.8027 34.9675C31.7333 35.2555 31.7805 35.5895 31.7233 35.8904C31.5248 36.9335 30.8543 37.927 29.984 38.5311C29.7357 38.7036 29.4666 38.8337 29.1602 38.8087L29.857 38.2251C30.4394 37.6401 31.036 36.6977 31.1379 35.8653C31.1939 35.409 31.155 34.9065 31.1537 34.445L31.1535 34.4448Z" fill="#AAC6E6"/>
<path d="M27.8143 39.3095C28.0649 39.4018 28.2032 39.3048 28.4315 39.2068L28.419 39.2425C28.3979 39.2957 28.4081 39.2765 28.363 39.3184L28.3883 39.3948L28.4449 39.4214C28.5926 39.493 28.7299 39.617 28.8603 39.7174C29.1335 39.9275 29.4861 40.1763 29.7008 40.4444C29.608 40.6588 29.4493 40.9786 29.4642 41.2142C29.4001 41.4768 29.4097 41.7801 29.4067 42.0499L29.3965 43.3826L29.3129 48.9214L26.8489 48.9171L26.7825 44.4557C26.7663 43.6221 26.8063 42.77 26.751 41.94C26.7365 41.722 26.7291 41.4114 26.6184 41.2191C26.6638 41.0043 26.5261 40.5867 26.458 40.374C26.6844 40.0623 27.1532 39.7818 27.4683 39.5649C27.5887 39.482 27.7136 39.4184 27.8145 39.3097L27.8143 39.3095Z" fill="#AAC6E6"/>
<path d="M27.9843 40.4374C28.0539 40.4379 28.1268 40.4464 28.1941 40.4647C28.3103 40.4964 28.4213 40.597 28.4769 40.703C28.5373 40.8179 28.5533 40.9864 28.5024 41.1081C28.4292 41.283 28.2758 41.3571 28.1088 41.4222C28.0156 41.4215 27.8858 41.4269 27.8002 41.3864C27.6853 41.3322 27.6232 41.2643 27.5743 41.1471C27.5221 41.0228 27.5219 40.877 27.5789 40.7534C27.6611 40.5755 27.8126 40.5025 27.9843 40.437V40.4374Z" fill="#FAFCFC"/>
<path d="M27.8743 46.171L28.129 46.1665C28.253 46.178 28.3713 46.2767 28.4394 46.3757C28.5245 46.4993 28.5539 46.6361 28.516 46.7836C28.4726 46.9529 28.3366 47.0491 28.1945 47.1334C28.1026 47.1415 27.9972 47.1527 27.906 47.1364C27.7702 47.1121 27.6587 47.007 27.5896 46.8934C27.5242 46.7857 27.5104 46.6406 27.5459 46.5197C27.5938 46.3567 27.7372 46.2548 27.8743 46.1708V46.171Z" fill="#FAFCFC"/>
<path d="M27.8533 43.0891C27.9377 43.0827 28.029 43.074 28.1133 43.0853C28.2269 43.1006 28.3452 43.1823 28.4135 43.2719C28.501 43.3868 28.5448 43.5196 28.5212 43.6636C28.4905 43.8502 28.3686 43.9436 28.2207 44.0443C28.1456 44.0549 28.0726 44.0639 27.9965 44.0624C27.8571 44.0598 27.736 44.0251 27.6407 43.917C27.5343 43.7962 27.5084 43.614 27.5375 43.46C27.5724 43.2749 27.703 43.181 27.8533 43.0891Z" fill="#FAFCFC"/>
<path d="M34.3575 36.8117L36.1298 37.4829C36.354 37.5728 36.6266 37.6549 36.8277 37.7901L36.8253 47.9681L34.3384 47.9602L34.3575 36.8115V36.8117Z" fill="#BAF7D8"/>
<path d="M4.98291 43.9179C6.41875 43.5561 7.95629 43.7633 9.23531 44.5246C9.78705 44.8531 10.356 45.2807 10.7618 45.7837C11.0201 46.1039 11.2095 46.4503 11.4365 46.7882C11.7733 46.0044 12.0934 45.3647 12.7057 44.7551C12.8002 44.6611 12.9175 44.5124 13.0381 44.4605C12.9192 45.1625 12.8021 45.8762 12.7983 46.5903L12.7481 51.4598C10.6171 50.058 8.65655 48.3689 6.96772 46.4576C6.25342 45.6491 5.57763 44.8191 4.98291 43.9179Z" fill="#087A44"/>
<path d="M43.1543 44.9467C43.3173 45.066 43.4577 45.2023 43.6022 45.343C44.2229 44.777 44.9012 44.4125 45.6774 44.1005C47.0835 43.5355 48.6757 43.473 50.1543 43.7456C50.4503 43.8003 50.7641 43.8396 51.0416 43.9583C49.51 46.0792 47.7595 48.0148 45.7311 49.6733C44.934 50.3248 44.0973 50.9067 43.2511 51.4904L43.236 47.9127L43.1545 44.9467H43.1543Z" fill="#087A44"/>
<path d="M14.0589 40.0796C14.0627 40.3535 14.0191 41.4712 14.1185 41.6247C13.6214 42.5459 13.2742 43.4361 13.0384 44.4604C12.9178 44.5123 12.8005 44.661 12.7061 44.755C12.0937 45.3648 11.7737 46.0045 11.4368 46.7881C11.2098 46.4502 11.0206 46.1038 10.7621 45.7836C10.3563 45.2806 9.78736 44.8528 9.23562 44.5244C7.9566 43.7629 6.41906 43.556 4.98322 43.9177L3.35205 41.2498C3.51504 41.142 3.72952 41.062 3.91081 40.9866C4.72746 40.6465 5.53262 40.5396 6.41544 40.6014C8.04555 40.7158 9.48351 41.6079 10.5263 42.8207C10.6157 42.7628 10.6921 42.5982 10.7566 42.5096C10.8574 42.3709 10.9723 42.2416 11.0853 42.113C11.733 41.3766 12.5237 40.8062 13.3999 40.3694C13.6027 40.2684 13.8132 40.1508 14.0308 40.0872L14.0589 40.0796Z" fill="#35A24A"/>
<path d="M15.873 7.44971C16.2482 7.979 16.4301 8.52424 16.5142 9.16241C16.6184 9.95496 16.399 10.9476 15.9309 11.6058C15.8945 11.4454 15.9413 11.2757 15.9586 11.1141L16.0003 10.4781L16.0033 8.78027C15.9999 8.52169 16.0024 8.248 15.969 7.99133C15.9467 7.82015 15.8913 7.66278 15.8762 7.48862L15.873 7.44971Z" fill="#E99E49"/>
<path d="M16.1387 12.8333C16.2331 12.5018 16.4336 12.1773 16.6432 11.9053C17.0104 11.4289 17.68 11.0375 18.2797 10.959L18.3343 11.0011C18.3741 11.4017 18.245 11.8411 18.216 12.2455L16.1387 12.8333Z" fill="#FFBE40"/>
<path d="M38.7146 12.5227C38.9401 11.6073 39.4459 11.0442 40.2419 10.5629L40.5749 10.3679C40.6368 10.6165 40.7104 10.8723 40.7409 11.1267C40.823 11.8101 40.7187 12.4447 40.5123 13.0962L38.7144 12.5227H38.7146Z" fill="#FFBE40"/>
<path d="M14.7423 13.36C14.5833 13.2796 14.4023 13.2341 14.2365 13.1665C13.9635 13.0552 13.7178 12.9017 13.5039 12.6984C12.7724 12.0022 12.5898 11.1116 12.5664 10.1423L13.0647 10.2665L13.2926 10.3478C14.1871 10.705 14.7919 11.3898 15.1402 12.2771C15.2445 12.543 15.3045 12.8241 15.4183 13.0861L15.4319 13.1169L14.7419 13.36H14.7423Z" fill="#FFBE40"/>
<path d="M15.5434 12.2611C15.5436 12.2203 15.5545 12.178 15.5445 12.1382C15.5274 12.0717 15.3868 11.9207 15.3434 11.8594C15.2351 11.707 15.1402 11.549 15.0553 11.3824C14.6963 10.6781 14.5789 9.84731 14.685 9.06539L14.6931 9.00755C14.7921 8.27135 15.1344 7.62361 15.574 7.03223L15.873 7.44966L15.8762 7.48858C15.8913 7.66274 15.9466 7.8201 15.9689 7.99129C16.0024 8.24796 15.9998 8.52164 16.0032 8.78023L16.0002 10.478L15.9585 11.1141C15.9413 11.2757 15.8945 11.4454 15.9309 11.6057L15.9119 11.6391C15.8455 11.754 15.7723 11.8577 15.6923 11.9632C15.674 11.9874 15.5964 12.0706 15.5906 12.0963C15.5504 12.2777 15.5872 12.5612 15.5857 12.7534C15.5855 12.5833 15.5674 12.4291 15.5432 12.2609L15.5434 12.2611Z" fill="#FFBE40"/>
<path d="M13.6851 18.5558C15.1007 19.0923 16.5831 19.4479 18.0828 19.651L18.08 21.7771C17.5353 22.284 17.1598 22.9507 17.13 23.7092L17.1289 23.7435L17.207 24.529C17.1227 25.2057 16.9985 25.7556 16.6002 26.3227C16.827 26.3302 17.0657 26.2932 17.2928 26.2772C17.5753 26.2572 17.8645 26.2545 18.1439 26.207C18.5824 26.5849 19.2142 26.9022 19.8095 26.8558C19.8851 26.8499 19.951 26.8278 20.0202 26.7988C20.0744 26.8484 20.0789 26.866 20.1025 26.933C20.4723 28.0452 20.9785 29.0147 21.7284 29.9178L22.3301 30.5832C23.1276 31.3383 23.9749 31.9206 24.9624 32.4035L24.956 34.331C24.7211 34.4428 24.4998 34.6034 24.3034 34.7733L23.2866 35.5665L22.3441 36.4735L22.2486 36.5657C22.0752 36.6457 21.9075 36.7008 21.7237 36.7507L19.2184 37.6737L18.1592 38.1262C17.4223 38.4979 16.674 38.8426 16.0305 39.3702C15.9322 39.4553 15.8203 39.5788 15.709 39.642L15.0611 40.2882L14.1183 41.6239C14.0189 41.4704 14.0623 40.3526 14.0587 40.0788L14.0306 40.0864C13.813 40.15 13.6025 40.2676 13.3997 40.3686C12.5235 40.8054 11.733 41.3757 11.0851 42.1121C10.9721 42.2408 10.857 42.3701 10.7564 42.5087C10.6919 42.5974 10.6155 42.762 10.5261 42.8198C9.48332 41.6071 8.04514 40.715 6.41524 40.6006C5.53242 40.5387 4.72748 40.6457 3.91061 40.9857C3.72933 41.0612 3.51506 41.1412 3.35185 41.249C2.77246 40.2548 2.33796 39.1733 1.9224 38.1034L1 35.151C1.78622 34.5664 2.61436 34.1594 3.60719 34.1096L3.81231 34.0888C3.88359 34.028 3.84444 33.9033 3.83742 33.8108C3.72507 32.3299 4.02658 30.9747 4.80429 29.6988C5.45646 28.6289 6.51312 27.7628 7.67128 27.2945C8.10067 27.121 8.54517 27.0138 8.99371 26.9035C8.71646 25.7381 8.89072 24.3482 9.26692 23.2227C9.78695 21.6671 10.8583 20.2343 12.235 19.3324C12.6931 19.0324 13.1955 18.798 13.6853 18.5552L13.6851 18.5558Z" fill="#3AB952"/>
<path d="M5.96768 35.9853C5.89002 35.7637 5.8581 35.486 5.83725 35.2514C5.69085 33.5938 6.24089 31.9666 7.3167 30.7049C8.27719 29.5783 9.65239 28.8568 11.114 28.6577C11.4378 28.6137 11.7708 28.6354 12.097 28.6101C12.6581 29.2102 13.2513 29.5292 14.0771 29.6009L14.0578 30.6603C13.6069 30.6428 13.1581 30.5637 12.7077 30.5671C11.6044 30.5754 10.3743 31.0488 9.56259 31.8014C8.55678 32.7343 7.91419 33.9993 7.86865 35.3843C7.86227 35.5813 7.87099 35.7792 7.89376 35.9749C7.9027 36.0523 7.95823 36.2626 7.92972 36.3241C7.26862 36.1123 6.66985 35.9813 5.96768 35.9851V35.9853Z" fill="#35A24A"/>
<path d="M16.4964 26.323C16.7232 26.3304 16.9619 26.2934 17.189 26.2774C17.4715 26.2575 17.7607 26.2547 18.0401 26.2073C18.4786 26.5852 19.1104 26.9024 19.7057 26.8561C19.7813 26.8501 19.8472 26.828 19.9164 26.7991C19.9706 26.8486 19.9751 26.8663 19.9987 26.9333C20.3685 28.0454 20.8747 29.0149 21.6246 29.9181L22.2263 30.5834C23.0238 31.3386 23.8711 31.9208 24.8586 32.4037L24.8522 34.3312C24.6173 34.4431 24.396 34.6036 24.1996 34.7735L23.1828 35.5667L22.2403 36.4737L22.1448 36.566C21.9714 36.6459 21.8037 36.701 21.6199 36.751L19.1146 37.6739L18.0554 38.1264C17.3185 38.4981 16.5702 38.8428 15.9267 39.3704C15.8284 39.4555 15.7165 39.579 15.6052 39.6422L14.9573 40.2885C14.8697 39.9686 14.9197 39.561 14.9226 39.229L14.9209 32.0988L14.9682 31.1334C14.9041 30.9624 14.9367 30.7967 14.9426 30.6185L14.9405 30.1277C14.9288 29.1253 14.8763 28.0999 14.9407 27.0991C15.0007 27.1157 15.0558 27.1276 15.1182 27.1306C15.548 27.1512 15.945 26.8684 16.2497 26.5958L16.4961 26.3223L16.4964 26.323Z" fill="#3AB952"/>
<path d="M16.4962 26.323C16.723 26.3304 16.9617 26.2934 17.1888 26.2774C17.4714 26.2575 17.7605 26.2547 18.0399 26.2073C18.4784 26.5852 19.1102 26.9024 19.7055 26.8561C19.7811 26.8501 19.847 26.828 19.9162 26.7991C19.9705 26.8486 19.9749 26.8663 19.9985 26.9333C19.907 27.285 19.9177 27.6741 19.9077 28.0361C19.5466 27.9174 19.224 27.6939 18.8783 27.5393C18.2323 27.2505 17.565 26.9603 16.889 26.7504C16.68 26.6855 16.4619 26.6519 16.25 26.5962L16.4964 26.3227L16.4962 26.323Z" fill="#35A24A"/>
<path d="M22.226 30.5837C23.0235 31.3388 23.8708 31.9211 24.8583 32.404L24.8519 34.3315C24.617 34.4433 24.3957 34.6039 24.1993 34.7738L23.1824 35.567L22.24 36.474L22.1445 36.5663C21.9711 36.6462 21.8034 36.7013 21.6196 36.7513L19.1143 37.6742L18.0551 38.1267C17.3182 38.4984 16.5699 38.8431 15.9264 39.3707C15.9407 38.5879 15.8322 37.783 15.9686 37.0084C16.2577 35.3665 17.2144 33.7137 18.7543 32.9522C18.9494 32.8557 19.1539 32.7764 19.3633 32.717C19.5516 32.6637 19.822 32.6245 19.9793 32.5069C20.0988 32.4174 20.1999 32.2745 20.2995 32.1614L20.7738 31.6721C21.2183 31.2525 21.726 30.9293 22.2258 30.5835L22.226 30.5837Z" fill="#35A24A"/>
<path d="M18.0557 38.1269C18.0555 37.9213 18.2246 37.7048 18.3431 37.5349C19.0834 36.4733 20.1969 35.8011 21.4582 35.5676C22.0412 35.4596 22.5998 35.4974 23.183 35.567L22.2406 36.4739L22.1451 36.5662C21.9717 36.6462 21.804 36.7013 21.6202 36.7512L19.1149 37.6742L18.0557 38.1267V38.1269Z" fill="#087A44"/>
<path d="M5.96777 35.9854C6.67015 35.9816 7.2687 36.1126 7.92981 36.3244C7.95832 36.263 7.90279 36.0524 7.89385 35.9752C7.87108 35.7794 7.86236 35.5814 7.86874 35.3847C7.91428 33.9997 8.55687 32.7346 9.56268 31.8017C10.3742 31.0491 11.6045 30.5758 12.7078 30.5675C13.1584 30.5641 13.6072 30.6432 14.0579 30.6606L14.0621 33.4476L14.0649 34.0826C14.0657 34.1866 14.0891 34.2995 14.0417 34.395L14.0657 35.3558L14.0587 40.0798L14.0306 40.0875C13.813 40.1511 13.6025 40.2687 13.3997 40.3697C12.5235 40.8065 11.733 41.3768 11.0851 42.1132C10.9721 42.2419 10.857 42.3712 10.7564 42.5098C10.6919 42.5985 10.6155 42.7631 10.5261 42.8209C9.48331 41.6082 8.04514 40.7161 6.41524 40.6017C5.53242 40.5398 4.72747 40.6468 3.91061 40.9868C3.72933 41.0623 3.51506 41.1423 3.35185 41.2501C2.77245 40.2559 2.33796 39.1744 1.9224 38.1045L1 35.1521C1.78622 34.5675 2.61436 34.1605 3.60719 34.1107L3.85444 34.1307C4.05743 34.8873 4.51044 35.4834 4.95174 36.119C5.27602 36.0254 5.63179 36.0112 5.96755 35.9859L5.96777 35.9854Z" fill="#3AB952"/>
<path d="M1 35.1517C1.78622 34.5671 2.61436 34.1601 3.60719 34.1104L3.85444 34.1303C4.05743 34.887 4.51044 35.483 4.95174 36.1186C3.79146 36.4134 2.62628 37.1173 1.9224 38.1044L1 35.1519V35.1517Z" fill="#35A24A"/>
<path d="M37.8532 19.8695L39.7074 19.4285L39.764 19.4465C40.0195 19.5263 40.2802 19.5697 40.5344 19.66C42.1573 20.237 43.3663 21.2537 44.1809 22.7718C44.7313 23.7978 44.9573 24.863 44.9847 26.019C45.4077 26.0164 45.8267 26.0117 46.2472 26.0683C47.7209 26.2665 49.028 27.0046 50.0766 28.04C51.2809 29.2294 52.0407 30.9047 52.0548 32.6084C52.0588 33.0958 51.998 33.5722 51.8871 34.046C52.2171 34.0481 52.5473 34.0372 52.8723 34.1021C53.7381 34.2752 54.4996 34.6178 55.1567 35.2166L54.1475 38.1816L52.591 41.5158L51.4358 43.3858C51.3105 43.5726 51.1902 43.7909 51.0417 43.9583C50.7643 43.8396 50.4504 43.8001 50.1544 43.7456C48.6758 43.473 47.0836 43.5356 45.6775 44.1006C44.9013 44.4125 44.223 44.777 43.6023 45.3431C43.458 45.2023 43.3176 45.066 43.1544 44.9467C43.1093 44.8319 43.1016 44.6669 43.0793 44.5435L42.9106 43.7561C42.724 43.0082 42.4346 42.2624 42.0328 41.6036C41.8399 41.2872 41.6118 41.0027 41.4028 40.6981L40.337 39.661C39.9223 39.3542 39.4988 39.0548 39.0478 38.8028C38.5371 38.5176 37.9943 38.2835 37.4645 38.0364L36.9319 37.7903C36.7308 37.6551 36.4582 37.573 36.234 37.483L34.4617 36.8119C34.3036 36.713 34.1042 36.6537 33.9278 36.5931L33.9053 36.5806C33.651 36.4189 33.4157 36.1891 33.1874 35.9913L32.2586 35.1909L31.9162 34.928C31.7441 34.7836 31.4717 34.4934 31.257 34.4447L31.2428 34.4162L31.2236 32.4304L32.3343 31.8069C33.5065 31.0033 34.4247 30.0596 35.1624 28.839C35.4918 28.2053 35.7765 27.5849 35.995 26.9036C35.998 26.894 35.995 26.8796 36.0042 26.8751C36.0593 26.847 36.2778 26.8845 36.3525 26.8836C36.8972 26.8785 37.4572 26.6053 37.8632 26.2525C38.4471 25.7449 38.8752 24.9287 38.9265 24.153C38.9799 23.3451 38.7409 22.6119 38.2071 22.0039L37.8368 21.7068L37.8532 19.8695Z" fill="#3AB952"/>
<path d="M51.8871 34.0459C52.2171 34.048 52.5473 34.0372 52.8722 34.102C53.738 34.2751 54.4996 34.6177 55.1567 35.2165L54.1474 38.1816C53.8161 37.7782 53.4753 37.3722 53.074 37.0351C52.4124 36.4795 51.6641 36.1969 50.8228 36.0476C51.2804 35.4043 51.6509 34.8059 51.8871 34.0459Z" fill="#35A24A"/>
<path d="M41.423 40.1545C41.7022 40.2738 41.9839 40.3976 42.2333 40.5728C42.9031 41.0432 43.3727 41.7796 43.8021 42.4584C43.989 42.2564 44.1711 42.0554 44.382 41.8777C45.7133 40.7546 47.4358 40.2847 49.1597 40.417C50.3294 40.5067 51.5914 40.8963 52.591 41.5162L51.4358 43.3862C51.3105 43.5729 51.1903 43.7913 51.0417 43.9587C50.7643 43.84 50.4504 43.8005 50.1545 43.746C48.6759 43.4734 47.0836 43.5359 45.6776 44.1009C44.9014 44.4129 44.223 44.7774 43.6023 45.3435C43.4581 45.2027 43.3176 45.0664 43.1544 44.9471C43.1093 44.8322 43.1017 44.6672 43.0793 44.5439L42.9106 43.7564C42.724 43.0085 42.4346 42.2628 42.0329 41.604C41.8399 41.2876 41.6118 41.003 41.4028 40.6985C41.4309 40.5248 41.4201 40.3315 41.4233 40.1548L41.423 40.1545Z" fill="#35A24A"/>
<path d="M35.0585 28.8391L35.0822 28.8527C35.2571 28.9565 35.4007 29.0958 35.5782 29.1991C36.1844 29.5519 36.8776 29.8148 37.5885 29.6383C37.7464 29.5991 37.8828 29.5385 38.027 29.466C38.2575 30.1886 38.63 30.7126 39.3182 31.0628C39.6052 31.2089 39.915 31.2861 40.2267 31.3588L40.2276 33.5874L40.228 35.1678C40.228 35.3841 40.2587 35.6572 40.2121 35.867C40.2885 36.33 40.2478 36.8416 40.2463 37.3114L40.2325 39.6612C39.8178 39.3543 39.3944 39.0549 38.9433 38.8029C38.4326 38.5178 37.8898 38.2836 37.36 38.0365L36.8274 37.7905C36.6263 37.6552 36.3537 37.5732 36.1295 37.4832L34.3572 36.8121C34.1991 36.7132 33.9998 36.6539 33.8234 36.5933L33.8008 36.5807C33.5465 36.4191 33.3112 36.1892 33.0829 35.9914L32.1541 35.191L31.8117 34.9282C31.6396 34.7838 31.3672 34.4935 31.1525 34.4448L31.1383 34.4163L31.1191 32.4306L32.2298 31.8071C33.4021 31.0035 34.3202 30.0597 35.0579 28.8391H35.0585Z" fill="#3AB952"/>
<path d="M32.1548 35.1908C33.1468 34.87 34.2875 35.1177 35.1897 35.5834C36.0716 36.0387 36.9923 36.8744 37.3058 37.8413L37.3609 38.0363L36.8283 37.7903C36.6272 37.6551 36.3546 37.573 36.1304 37.483L34.3581 36.8119C34.2 36.713 34.0006 36.6537 33.8243 36.5931L33.8017 36.5805C33.5474 36.4189 33.3121 36.189 33.0838 35.9913L32.155 35.1908H32.1548Z" fill="#35A24A"/>
<path d="M35.1627 28.8391L35.1863 28.8527C35.3612 28.9565 35.5048 29.0958 35.6823 29.1991C36.2885 29.5519 36.9817 29.8148 37.6926 29.6383C37.8505 29.5991 37.9869 29.5385 38.1312 29.466C38.3616 30.1886 38.7342 30.7126 39.4223 31.0628C39.7094 31.2089 40.0192 31.2861 40.3309 31.3588L40.3317 33.5874C39.9947 33.5936 39.6676 33.6119 39.3374 33.6806C39.2687 33.5555 39.2351 33.4082 39.1797 33.2759C39.0612 32.9931 38.9148 32.7436 38.7378 32.495C38.5608 32.246 38.335 32.0325 38.0861 31.8564L37.8963 31.7318C37.2875 31.3837 36.4215 31.2012 35.7353 31.3863C35.1174 31.5528 34.5709 31.8462 34.1535 32.3434C33.9639 32.5692 33.8132 32.7785 33.6822 33.0428C33.4417 32.7679 33.1966 32.5074 32.9149 32.2732C32.7264 32.1165 32.4987 31.9861 32.334 31.8071C33.5062 31.0035 34.4243 30.0597 35.162 28.8391H35.1627Z" fill="#35A24A"/>
<path d="M37.6902 19.4459L39.5443 19.0049L39.6009 19.023C39.8565 19.1027 40.1171 19.1461 40.3714 19.2365C41.9943 19.8134 43.2033 20.8301 44.0178 22.3482C44.5683 23.3742 44.7942 24.4394 44.8217 25.5954C45.2447 25.5928 45.6637 25.5882 46.0841 25.6447C47.5578 25.8429 48.8649 26.581 49.9135 27.6164C51.1178 28.8058 51.8777 30.4811 51.8917 32.1848C51.8958 32.6722 51.8349 33.1486 51.7241 33.6224C51.4879 34.3824 51.1174 34.9808 50.6597 35.6241L50.0816 35.5905C49.4914 35.5866 48.9543 35.7195 48.3945 35.889C48.4811 35.4159 48.5079 34.8985 48.4353 34.4224L48.316 33.8372C47.9868 32.671 47.2508 31.6617 46.1871 31.065C45.0219 30.4115 43.5776 30.2901 42.3056 30.6978C41.9549 30.81 41.6274 31.0293 41.2798 31.1231L41.2534 31.1297L41.257 29.5069V27.7183L41.2498 26.6786L40.1671 26.6712L40.1665 28.8917L40.1559 29.6145L40.1682 30.9347C39.8565 30.8619 39.5465 30.7847 39.2596 30.6386C38.5715 30.2886 38.1989 29.7647 37.9685 29.0418C37.8242 29.1146 37.6878 29.175 37.5299 29.2141C36.8188 29.3906 36.1258 29.1278 35.5196 28.775C35.3421 28.6716 35.1985 28.5323 35.0236 28.4286L35 28.4149C35.3294 27.7812 35.6141 27.1609 35.8326 26.4796C35.8356 26.47 35.8326 26.4556 35.8418 26.4511C35.8969 26.423 36.1154 26.4605 36.1901 26.4596C36.7348 26.4545 37.2948 26.1813 37.7008 25.8285C38.2847 25.3209 38.7128 24.5047 38.7641 23.7289C38.8175 22.9211 38.5785 22.1879 38.0447 21.5799L37.6744 21.2828L37.6908 19.4455L37.6902 19.4459Z" fill="#3AB952"/>
<path d="M41.4578 33.8271C41.851 32.8204 42.7974 32.2565 43.7386 31.8105C43.5649 32.9131 43.5222 34.0985 42.54 34.8191C42.1942 35.0731 41.8199 35.2109 41.4193 35.3521C41.4184 34.8653 41.3629 34.3022 41.4578 33.8269V33.8271Z" fill="#FFBE40"/>
<path d="M40.3299 29.3155L40.3305 27.095L41.4131 27.1024L41.4206 28.1421V29.9307L41.4168 31.5534C41.4163 31.8733 41.3644 33.6657 41.458 33.8271C41.3631 34.3024 41.4187 34.8653 41.4195 35.3522L41.4236 40.1546C41.4204 40.3313 41.4312 40.5246 41.4031 40.6983L40.3373 39.6612L40.3512 37.3114C40.3526 36.8414 40.3931 36.33 40.3169 35.8671C40.3635 35.6572 40.3329 35.3844 40.3329 35.1679L40.3324 33.5874L40.3316 31.3589L40.3192 30.0387L40.3299 29.3155Z" fill="url(#paint0_linear_4164_23701)"/>
<path d="M40.3511 37.3111C39.8413 37.176 39.3781 37.0136 38.9621 36.678C38.1369 36.0122 38.0475 35.0144 37.9478 34.0286L38.2222 34.1226C38.8527 34.3618 39.5 34.6506 39.9317 35.1892C40.097 35.3955 40.209 35.6271 40.3171 35.8667C40.3934 36.3297 40.3528 36.8413 40.3513 37.3111H40.3511Z" fill="#FFBE40"/>
<path d="M41.7743 27.7591C42.2409 27.4744 42.7007 27.3123 43.2137 27.1365C43.1516 27.595 43.0724 28.0666 42.9288 28.5079C42.7239 29.0537 42.4062 29.5222 41.8602 29.7751L41.4204 29.9307V28.1421L41.7745 27.7591H41.7743Z" fill="#FFBE40"/>
<path d="M38.1315 29.4658C38.0362 28.9956 37.9888 28.5503 37.959 28.0725C38.7371 28.3906 39.4514 28.7313 39.9868 29.4043C40.1242 29.6072 40.2219 29.8139 40.3191 30.0385L40.3315 31.3586C40.0198 31.2859 39.7097 31.2087 39.4229 31.0626C38.7348 30.7126 38.3622 30.1886 38.1318 29.4658H38.1315Z" fill="#FFBE40"/>
<path d="M42.9285 28.508C43.4004 28.4563 43.86 28.3385 44.3347 28.2945C45.7214 28.1658 47.1568 28.5241 48.2524 29.4C49.5565 30.4425 50.3194 31.9253 50.507 33.5687C50.6013 34.394 50.4732 35.2212 50.2442 36.0144C49.654 36.0105 49.1169 36.1435 48.5571 36.3129C48.6437 35.8398 48.6705 35.3224 48.598 34.8463L48.4786 34.2611C48.1494 33.0949 47.4134 32.0856 46.3497 31.4889C45.1846 30.8354 43.7402 30.714 42.4682 31.1217C42.1175 31.234 41.7901 31.4532 41.4424 31.547L41.416 31.5536L41.4196 29.9308L41.8594 29.7752C42.4054 29.5225 42.7231 29.0538 42.928 28.508H42.9285Z" fill="#35A24A"/>
<path d="M14.955 26.2642C15.0069 25.8613 15.1218 25.4177 15.315 25.0591C15.7067 24.3319 16.2546 23.975 17.0251 23.7439L17.1032 24.5294C17.0189 25.2061 16.8947 25.756 16.4963 26.3232L16.2499 26.5966C15.9452 26.8692 15.5482 27.1521 15.1184 27.1314C15.0558 27.1285 15.0009 27.1166 14.9409 27.1L14.955 26.2645V26.2642Z" fill="#FFBE40"/>
<path d="M13.9724 24.7432C13.7473 24.6683 13.5041 24.6383 13.2749 24.5718C12.9196 24.4686 12.5596 24.2192 12.3077 23.9508C11.5327 23.1249 11.4908 22.1486 11.5178 21.0747C12.0902 21.3127 12.6113 21.5081 13.0664 21.9506C13.5477 22.4187 13.8203 22.9775 13.9656 23.6263L13.9724 24.7432Z" fill="#FFBE40"/>
<path d="M11.993 28.6103C11.7619 28.3011 11.6117 28.0213 11.497 27.6523C11.3408 27.1496 11.3545 26.5699 11.3394 26.0464C11.8307 26.2344 12.3301 26.4111 12.7592 26.7237C13.1927 27.0395 13.5106 27.5024 13.7263 27.9873C13.8238 28.2063 13.894 28.4334 13.9463 28.6671L13.9734 29.6009C13.1476 29.5294 12.5541 29.2102 11.9932 28.6101L11.993 28.6103Z" fill="#FFBE40"/>
<path d="M14.0697 23.6263L14.0801 21.0808L15.027 21.0819L15.0176 24.6659L15.0231 25.6167C15.024 25.8325 15.0152 26.052 15.0589 26.2642L15.0448 27.0997C14.9801 28.1005 15.0329 29.1257 15.0446 30.1283L15.0467 30.6191C15.041 30.7973 15.0084 30.9627 15.0723 31.1339L15.025 32.0994L15.0267 39.2296C15.024 39.5615 14.974 39.9692 15.0614 40.289L14.1186 41.6247C14.0192 41.4712 14.0626 40.3535 14.059 40.0796L14.066 35.3555L14.042 34.3947C14.0897 34.2993 14.066 34.1863 14.0652 34.0824L14.0624 33.4474L14.0582 30.6604L14.0775 29.6009L14.0505 28.6672C14.0858 28.5417 14.0707 28.4182 14.0697 28.2895L14.0714 27.643L14.0767 24.7429L14.0699 23.626L14.0697 23.6263Z" fill="url(#paint1_linear_4164_23701)"/>
<path d="M14.9684 31.134C14.9852 30.7535 15.0578 30.4097 15.225 30.0652C15.5778 29.3383 16.2602 29.0232 16.9875 28.7791C17.1203 29.2292 17.1251 29.6881 17.0345 30.1475C16.8764 30.7858 16.4687 31.4646 15.897 31.8132C15.5946 31.9973 15.2718 32.0815 14.9214 32.0996L14.9686 31.1342L14.9684 31.134Z" fill="#FFBE40"/>
<path d="M14.0659 35.3555C13.6041 35.1588 13.1445 35.035 12.7424 34.7192C11.903 34.06 11.614 33.2256 11.4849 32.2C11.8991 32.282 12.3062 32.3679 12.6796 32.5746C13.4229 32.9861 13.8157 33.5913 14.0418 34.3947L14.0659 35.3555Z" fill="#FFBE40"/>
<path d="M49.6625 21.6286C49.8323 21.6182 49.9938 21.6297 50.1536 21.6933C50.4421 21.8081 50.6719 22.0497 50.7802 22.34C50.8757 22.5962 50.8732 22.8956 50.7521 23.1434C50.5936 23.4681 50.3202 23.6414 49.9876 23.7507C49.7531 23.749 49.5559 23.743 49.3393 23.6363C49.0639 23.5006 48.8575 23.2367 48.7748 22.9449C48.6979 22.6742 48.7452 22.3804 48.8909 22.1405C49.0692 21.8466 49.3378 21.708 49.6623 21.6284L49.6625 21.6286Z" fill="#FAFCFC"/>
<path d="M8.32703 14.5013C8.55896 14.4917 8.78281 14.5253 8.99452 14.6236C9.33667 14.7824 9.64137 15.1138 9.76223 15.4699L9.77798 15.5178L9.80457 15.5975C9.89692 15.9286 9.80457 16.3263 9.62903 16.6125C9.39944 16.9864 9.03878 17.1644 8.62386 17.2632C8.25511 17.2713 7.96744 17.2579 7.65422 17.0446C7.32825 16.8228 7.09397 16.4535 7.04099 16.0632C6.99078 15.6926 7.08483 15.333 7.31356 15.0349C7.57081 14.6993 7.91658 14.5466 8.32725 14.5011L8.32703 14.5013Z" fill="#FAFCFC"/>
<path d="M19.4093 9.28406L21.8123 8.93701C21.7408 9.46843 21.6554 10.0081 21.6203 10.5436C21.5971 10.8983 21.6088 11.2619 21.612 11.6175L18.7163 12.1512C19.0697 11.1956 19.3219 10.302 19.4091 9.28427L19.4093 9.28406Z" fill="#AA2E27"/>
<path d="M19.4097 9.28417C19.4458 8.99858 19.4505 8.71065 19.5037 8.42676C19.6859 7.45366 20.2323 6.58732 20.9223 5.89046C21.7124 5.09237 22.7263 4.45208 23.8593 4.32045C24.1749 4.28387 24.5049 4.29706 24.8226 4.29557L25.2279 4.31364C24.9573 4.40147 24.6862 4.47419 24.4296 4.59945C23.5676 5.01986 22.8939 5.82985 22.4669 6.67217C22.1892 7.21996 22.0181 7.79539 21.91 8.39805C21.88 8.56477 21.8309 8.75488 21.8383 8.92373L21.8128 8.93691L19.4099 9.28396L19.4097 9.28417Z" fill="#E99E49"/>
<path d="M24.8224 4.29566L28.0707 4.271L30.1327 4.2727C30.8928 4.27397 31.6369 4.26334 32.3803 4.44622C33.2493 4.65972 34.1028 5.11501 34.7713 5.70831C35.8252 6.64355 36.4157 7.88204 36.6055 9.26428C36.1706 9.2445 35.7116 9.13733 35.2803 9.07374L32.9491 8.80197C29.2676 8.50235 25.5099 8.51638 21.8382 8.92404C21.8307 8.75519 21.8799 8.56508 21.9099 8.39836C22.018 7.7957 22.189 7.22048 22.4667 6.67248C22.8938 5.83016 23.5676 5.02017 24.4294 4.59976C24.686 4.4745 24.9571 4.40178 25.2277 4.31395L24.8224 4.29588V4.29566Z" fill="#F4C52A"/>
<path d="M21.6237 9.33361C25.2955 8.92595 29.0534 8.91192 32.7347 9.21155L35.0659 9.48332C35.4972 9.5469 35.9562 9.65408 36.3911 9.67385L36.7141 12.4983L38.5001 12.9325L40.2981 13.5061C40.6516 13.6164 40.9967 13.768 41.3378 13.9118C42.1887 14.2705 43.027 14.6856 43.7332 15.2894C44.0069 15.5233 44.2703 15.7823 44.4416 16.1023C44.621 16.4375 44.6146 16.7292 44.4961 17.0839L44.4812 17.1265C44.1222 18.0343 42.9628 18.5376 42.1227 18.9006L39.3889 19.8386L37.5348 20.2797L37.5184 22.117C36.9798 21.8307 36.63 21.7548 36.0179 21.7914L36.0202 19.6949C36.0202 19.5817 36.0576 19.2572 36.0208 19.1643C36.014 19.1473 35.9279 19.0771 35.9136 19.0633L35.6455 18.7851C35.3702 18.4808 35.1665 18.1855 34.9808 17.8206L34.9508 17.7349C34.7816 17.2111 34.7046 16.6644 34.619 16.1221C33.5471 15.9175 32.4568 15.7906 31.3714 15.683C31.2065 15.6666 30.8058 15.5783 30.679 15.6481C30.6252 15.8897 30.646 16.1234 30.6026 16.3594L30.5733 16.3679C30.4173 16.4236 30.2539 16.5504 30.1032 16.6286L28.8185 17.2421C26.7217 18.1221 24.3692 18.789 22.0823 18.7966C21.6595 18.7981 21.2326 18.8011 20.8128 18.7445L19.4689 18.5268C19.104 18.383 19.7248 18.2556 19.3925 18.0426C19.1384 17.8797 18.9075 17.6453 18.6826 17.4444C18.5135 17.293 18.4201 17.1709 18.1928 17.1233C18.3718 17.3848 18.5837 17.636 18.7218 17.9216L18.7409 17.9603C18.8124 18.1189 18.7773 18.382 18.7771 18.5544L18.7641 20.0611C17.2645 19.858 14.782 19.5026 13.3664 18.9659L12.6249 18.6123C11.9186 18.2373 11.2918 17.7923 11.0482 16.9978C10.9813 16.7392 10.9788 16.5144 11.0739 16.2637C11.2343 15.8414 11.5593 15.5041 11.9046 15.2262C12.6981 14.588 13.6192 14.2065 14.5273 13.77L15.2174 13.5269C15.2465 13.5018 15.2859 13.4852 15.3048 13.4518C15.3159 13.4325 15.3021 13.2672 15.3016 13.2377C15.2995 13.0467 15.3069 12.8613 15.3287 12.6712C15.3529 12.8392 15.371 12.9934 15.3712 13.1637L15.3721 13.4206C15.4953 13.4561 15.8 13.3077 15.9238 13.2436L18.0012 12.6559L18.5018 12.5615L21.3976 12.0277C21.3941 11.6721 21.3827 11.3085 21.4059 10.9538C21.441 10.4183 21.5261 9.87864 21.5978 9.34722L21.6237 9.33361Z" fill="#AA2E27"/>
<path d="M34.8335 15.7123L37.7633 16.4666L37.7492 19.8695L37.7328 21.7068C37.1943 21.4206 36.8445 21.3446 36.2323 21.3812L36.2347 19.2847C36.2347 19.1716 36.2721 18.847 36.2353 18.7541C36.2285 18.7371 36.1423 18.6669 36.128 18.6531L35.8599 18.375C35.5846 18.0707 35.381 17.7753 35.1952 17.4104L35.1652 17.3247C34.9961 16.8009 34.919 16.2542 34.8335 15.7119V15.7123Z" fill="#37383A"/>
<path d="M17.4075 16.7133L17.335 16.608L17.3603 16.5617C20.5405 15.5679 23.7428 15.1471 27.0654 15.0714L28.6772 15.0706C28.9829 15.0763 29.2957 15.0699 29.5994 15.1084C29.9143 15.1029 30.2296 15.1358 30.5428 15.1639C30.666 15.175 30.792 15.1652 30.8931 15.2383C30.8392 15.4799 30.8601 15.7136 30.8167 15.9497L30.7873 15.9582C30.6314 16.0139 30.4679 16.1406 30.3173 16.2189L29.0325 16.8324C26.9358 17.7123 24.5833 18.3792 22.2963 18.3869C21.8736 18.3884 21.4467 18.3913 21.0269 18.3348L19.683 18.117C19.3181 17.9733 18.9389 17.8459 18.6065 17.6328C18.3525 17.4699 18.1216 17.2356 17.8967 17.0346C17.7275 16.8832 17.6341 16.7611 17.4069 16.7135L17.4075 16.7133Z" fill="#37383A"/>
<path d="M21.0529 17.7761C22.572 17.5855 24.1117 17.1413 25.5532 16.6356L27.8955 15.704L28.6813 15.3452C28.8173 15.2783 28.9956 15.1575 29.1407 15.1228C29.275 15.0907 29.4597 15.1103 29.5997 15.109L29.5639 15.1386C29.1128 15.5003 28.5856 15.7963 28.0791 16.0725C26.5597 16.9017 24.8955 17.5143 23.1733 17.7393C22.4724 17.8307 21.7553 17.8675 21.0527 17.7765L21.0529 17.7761Z" fill="#464749"/>
<path d="M21.3973 11.6176L23.7298 11.3486C27.0717 11.0715 30.4481 11.1468 33.7743 11.5566L35.5936 11.8351C35.9655 11.9023 36.356 11.964 36.7134 12.0884L38.4995 12.5227L40.2975 13.0962C40.6509 13.2065 40.996 13.3582 41.3371 13.5019C42.188 13.8607 43.0264 14.2758 43.7326 14.8795C44.0062 15.1134 44.2697 15.3724 44.441 15.6924C44.6203 16.0276 44.6139 16.3193 44.4954 16.674L44.4805 16.7166C44.3599 16.4042 44.1475 16.1326 43.8933 15.9164C43.4796 15.5644 42.9847 15.2867 42.503 15.039C41.7027 14.6273 40.9012 14.2985 40.0488 14.0123C37.799 13.2567 35.4685 12.7834 33.1149 12.499C29.9145 12.1122 26.7596 12.0848 23.5488 12.3644C20.3217 12.6456 17.0871 13.2565 14.0935 14.5277C13.1679 14.9209 12.2099 15.3652 11.4571 16.0474C11.2852 16.2032 11.2282 16.3851 11.0869 16.5454L11.0482 16.5879C10.9813 16.3293 10.9788 16.1046 11.0739 15.8538C11.2343 15.4315 11.5593 15.0943 11.9046 14.8163C12.6981 14.1781 13.6192 13.7967 14.5273 13.3601L15.2174 13.117C15.2465 13.0919 15.2859 13.0753 15.3048 13.0419C15.3159 13.0226 15.3021 12.8574 15.3016 12.8278C15.2995 12.6368 15.3069 12.4514 15.3287 12.2613C15.3529 12.4293 15.371 12.5835 15.3712 12.7538L15.3721 13.0107C15.4953 13.0462 15.8 12.8978 15.9238 12.8338L18.0012 12.246L18.5018 12.1516L21.3976 11.6178L21.3973 11.6176Z" fill="#E05C44"/>
<path d="M21.8381 8.9237C25.5098 8.51604 29.2677 8.50201 32.949 8.80163L35.2802 9.0734C35.7115 9.13699 36.1705 9.24416 36.6054 9.26394L36.9284 12.0884C36.5707 11.9642 36.1803 11.9025 35.8085 11.8351L33.9893 11.5565C30.6631 11.1468 27.2867 11.0715 23.9448 11.3486L21.6123 11.6176C21.6089 11.262 21.5974 10.8984 21.6206 10.5437C21.6557 10.0082 21.7408 9.46851 21.8125 8.93709L21.8381 8.92391V8.9237Z" fill="#C93E38"/>
<path d="M30.8931 15.2385C31.0199 15.169 31.4206 15.257 31.5855 15.2734C32.6709 15.3812 33.7612 15.5082 34.8332 15.7125C34.9187 16.2546 34.9957 16.8015 35.1649 17.3253L35.1949 17.411C35.3804 17.7759 35.5843 18.0713 35.8596 18.3756L36.1277 18.6537C36.142 18.6676 36.2282 18.7375 36.235 18.7547C36.2718 18.8477 36.2345 19.1722 36.2343 19.2853L36.232 21.3818C36.8444 21.3453 37.194 21.4212 37.7325 21.7074L38.1027 22.0045C38.6368 22.6127 38.8758 23.3457 38.8222 24.1536C38.7709 24.9293 38.3428 25.7457 37.7589 26.2531C37.3529 26.6059 36.7929 26.8789 36.2482 26.8842C36.1735 26.8851 35.9552 26.8476 35.8998 26.8757C35.8909 26.8802 35.8937 26.8946 35.8907 26.9042C35.6722 27.5855 35.3875 28.2061 35.0581 28.8396C34.3204 30.0602 33.4022 31.0039 32.23 31.8075L31.1193 32.431L31.1385 34.4168L31.1527 34.4453C31.154 34.9067 31.1929 35.4092 31.137 35.8656C31.0351 36.6979 30.4382 37.6404 29.856 38.2254L29.1592 38.8089L28.4306 39.2074C28.2023 39.3054 28.064 39.4024 27.8134 39.3101L26.8793 38.8059C25.9724 38.1314 25.2108 37.2174 24.9115 36.1086C24.8391 35.8409 24.8527 35.5783 24.853 35.3035L24.8515 34.3317L24.8578 32.4042C23.8703 31.9213 23.023 31.3391 22.2256 30.5839L21.6238 29.9186C20.874 29.0154 20.3676 28.0457 19.998 26.9338C19.9746 26.8668 19.9699 26.8491 19.9156 26.7996C19.8465 26.8287 19.7805 26.8506 19.705 26.8566C19.1098 26.9029 18.4781 26.5857 18.0393 26.2078C17.7599 26.2552 17.4708 26.2577 17.1882 26.2779C16.961 26.2941 16.7224 26.3311 16.4956 26.3235C16.8939 25.7563 17.0182 25.2062 17.1025 24.5297L17.0244 23.7442L17.0254 23.71C17.0552 22.9514 17.4308 22.2846 17.9755 21.7778L17.9783 19.6517L17.9912 18.1451C17.9914 17.9726 18.0266 17.7098 17.9551 17.5509L17.9359 17.5122C17.7978 17.2268 17.5859 16.9755 17.4069 16.7139C17.634 16.7616 17.7274 16.8836 17.8968 17.035C18.1217 17.236 18.3525 17.4703 18.6066 17.6332C18.939 17.8463 19.3181 17.9737 19.683 18.1174L21.027 18.3352C21.4468 18.3917 21.8736 18.3888 22.2964 18.3873C24.5834 18.3796 26.9361 17.7128 29.0326 16.8328L30.3173 16.2193C30.468 16.141 30.6312 16.0143 30.7874 15.9586L30.8167 15.9501C30.8602 15.7142 30.8393 15.4803 30.8931 15.2388V15.2385Z" fill="#FFDBC9"/>
<path d="M29.1093 25.5761L29.1413 25.6034C29.0896 25.8445 28.9798 26.0579 28.8172 26.2432C28.6131 26.476 28.264 26.6349 27.9578 26.6464C27.5001 26.6637 27.203 26.5236 26.8698 26.2175C26.7909 26.1234 26.6971 25.9747 26.7268 25.8445C26.75 25.7423 26.8149 25.7151 26.8928 25.6574C27.0235 25.6574 27.1213 25.7627 27.2322 25.8302C27.342 25.8968 27.4726 25.9457 27.5984 25.9704C28.1454 26.0783 28.6582 25.8574 29.1089 25.5759L29.1093 25.5761Z" fill="#F59C8F"/>
<path d="M29.8788 28.2L29.901 28.2427C29.808 28.4489 29.7031 28.6296 29.555 28.8019C29.1577 29.2636 28.576 29.5192 27.974 29.5592C27.36 29.5998 26.7603 29.3809 26.3003 28.9802L26.2005 28.8687C26.1377 28.7891 26.085 28.6985 26.1124 28.5923C26.1352 28.5044 26.2099 28.4366 26.2846 28.391C26.3337 28.361 26.4033 28.3338 26.4614 28.3521C26.5446 28.3785 26.6586 28.4702 26.7384 28.5147C26.905 28.6074 27.0863 28.6721 27.2723 28.7132C28.156 28.9083 29.1264 28.6823 29.8788 28.2002V28.2Z" fill="#BF6565"/>
<path d="M24.1056 18.9036C24.4573 18.891 24.8529 18.9253 25.1263 19.1742C25.2625 19.2981 25.3608 19.4787 25.361 19.6643C25.361 19.8026 25.3265 19.8709 25.2287 19.9658C25.148 20.0441 25.024 20.1094 24.9114 20.1252C24.6301 20.1649 24.3014 20.1252 24.0148 20.1275C23.6479 20.1305 23.2743 20.1658 22.9083 20.1483C22.7079 20.1388 22.4987 20.1009 22.3595 19.9437C22.2759 19.8492 22.2268 19.7424 22.2406 19.6153C22.2572 19.4643 22.4168 19.3206 22.5342 19.2368C22.6319 19.167 22.7411 19.1217 22.8549 19.0868L24.1056 18.9032V18.9036Z" fill="#464749"/>
<path d="M31.5176 18.9244L31.6838 18.9169C32.2098 18.9044 33.2188 18.928 33.6022 19.3259C33.6841 19.411 33.7471 19.5238 33.7407 19.6449C33.7331 19.787 33.6422 19.8978 33.5367 19.9851C33.2754 20.2013 33.0001 20.167 32.6871 20.1379C32.3719 20.11 32.0389 20.1266 31.7232 20.1379C31.3987 20.1494 30.9978 20.2094 30.7148 20.0153C30.5839 19.9255 30.4871 19.8021 30.455 19.6459C30.4307 19.5282 30.4546 19.4259 30.5254 19.328C30.7344 19.0397 31.1884 18.9686 31.5176 18.9242V18.9244Z" fill="#464749"/>
<path d="M30.8933 15.2385C31.0201 15.169 31.4208 15.257 31.5857 15.2734C32.6711 15.3812 33.7613 15.5082 34.8333 15.7125C34.9189 16.2546 34.9959 16.8015 35.165 17.3253C35.0195 17.2619 34.8967 17.1371 34.7778 17.0335C34.4924 16.7852 34.2005 16.4932 33.826 16.3892C33.3564 16.2588 32.8555 16.2393 32.3727 16.1857C32.0251 16.1472 31.624 16.063 31.2776 16.1159C31.1982 16.1281 31.122 16.1717 31.0529 16.2104L31.0505 16.1255C30.9784 16.0887 30.9169 16.0543 30.8599 15.9954L30.8169 15.9497C30.8603 15.7138 30.8394 15.4799 30.8933 15.2383V15.2385Z" fill="#FAB1A3"/>
<path d="M23.1506 21.5136C23.2796 21.3998 23.4821 21.3127 23.6564 21.3195C23.9085 21.3295 24.1245 21.4447 24.2896 21.631C24.5926 21.9727 24.6986 22.4944 24.6626 22.9399C24.6341 23.2933 24.4565 23.7312 24.1741 23.9561C23.9998 24.0952 23.7641 24.1958 23.5375 24.1699C23.2725 24.1394 23.0517 24.0231 22.89 23.8071C22.608 23.43 22.5431 22.8873 22.6159 22.4325C22.6389 22.2883 22.6753 22.1429 22.7387 22.0108C22.8381 21.7671 22.9389 21.6586 23.1506 21.5138V21.5136Z" fill="#19376B"/>
<path d="M23.1505 21.5137C23.3016 21.5986 23.4431 21.6926 23.4843 21.8728C23.5161 22.0107 23.4922 22.162 23.4084 22.2773C23.3343 22.379 23.2454 22.4201 23.1265 22.4491C23.0028 22.4329 22.9281 22.4084 22.849 22.3078C22.7835 22.2246 22.7635 22.1114 22.7388 22.0109C22.8381 21.7671 22.939 21.6586 23.1507 21.5137H23.1505Z" fill="#FAFCFC"/>
<path d="M31.6039 21.5866C31.8007 21.3929 32.026 21.2388 32.3131 21.2324C32.5905 21.2264 32.8516 21.358 33.0408 21.5543C33.3685 21.8948 33.5042 22.3915 33.4934 22.8538C33.4832 23.2853 33.3289 23.7391 33.0157 24.0455C32.8403 24.2169 32.558 24.3684 32.3061 24.3539C32.0224 24.3375 31.7581 24.1457 31.5903 23.9284C31.2736 23.5186 31.1432 22.82 31.2566 22.3137C31.2636 22.282 31.2681 22.2759 31.2807 22.2503C31.2594 22.1895 31.2392 22.1085 31.249 22.0439C31.2802 21.8338 31.4437 21.7015 31.6041 21.5866H31.6039Z" fill="#19376B"/>
<path d="M31.6038 21.5867C31.7589 21.6365 31.8753 21.6937 31.9595 21.8403C32.0221 21.9492 32.0223 22.0929 31.9838 22.2095C31.9485 22.3167 31.8787 22.4082 31.7757 22.4589C31.6725 22.5095 31.5738 22.504 31.4699 22.4563C31.394 22.4216 31.3297 22.3161 31.2803 22.2508C31.2591 22.1899 31.2388 22.1088 31.2486 22.0441C31.2799 21.8339 31.4433 21.7016 31.6038 21.5867Z" fill="#FAFCFC"/>
<path d="M21.0273 18.3346C21.4472 18.3911 21.874 18.3882 22.2968 18.3867C24.5837 18.379 26.9364 17.7121 29.033 16.8322L30.3177 16.2187C30.4684 16.1404 30.6316 16.0137 30.7878 15.958L30.8171 15.9495L30.8601 15.9952C30.9169 16.0541 30.9786 16.0883 31.0508 16.1253L31.0531 16.2102C30.2867 16.9179 29.4036 17.2975 28.4351 17.6575C27.4993 18.0054 26.5279 18.281 25.5593 18.5215L24.6406 18.7341C24.4582 18.7775 24.2688 18.8077 24.1061 18.9034L22.8553 19.0869C22.5853 19.0289 22.2957 19.0493 22.0204 19.0353L21.0701 18.9723C21.0118 18.7848 21.0327 18.5328 21.0278 18.3344L21.0273 18.3346Z" fill="#FAB1A3"/>
<path d="M17.4074 16.7134C17.6344 16.761 17.7278 16.8831 17.8972 17.0345C18.1221 17.2354 18.353 17.4698 18.607 17.6327C18.9394 17.8458 19.3186 17.9731 19.6835 18.1169L21.0274 18.3346C21.0323 18.533 21.0114 18.785 21.0697 18.9726C21.1331 19.5032 21.0882 20.0871 21.0887 20.6243L21.0893 23.7447C21.0895 24.3835 21.054 25.047 21.1146 25.6826C21.2417 27.0157 21.8721 28.3165 22.7026 29.3521C23.5799 30.4462 24.7791 31.253 26.0973 31.7143C26.5239 31.8636 27.0159 32.0005 27.4663 32.0435C29.1458 32.2034 30.9738 31.7555 32.2954 30.6833C33.988 29.31 34.9613 27.4227 35.1443 25.2575C35.2045 24.5458 35.1753 23.814 35.1751 23.1L35.1713 19.416C35.1709 18.7719 35.1187 18.079 35.1911 17.4421L35.1949 17.4111C35.3804 17.776 35.5843 18.0714 35.8596 18.3757L36.1277 18.6538C36.142 18.6677 36.2282 18.7376 36.235 18.7548C36.2718 18.8478 36.2345 19.1723 36.2343 19.2854L36.232 21.3819C36.8444 21.3454 37.194 21.4213 37.7325 21.7075L38.1027 22.0046C38.6368 22.6128 38.8758 23.3458 38.8222 24.1536C38.7709 24.9294 38.3428 25.7458 37.7589 26.2532C37.3529 26.606 36.7929 26.879 36.2482 26.8843C36.1735 26.8852 35.9552 26.8477 35.8998 26.8758C35.8909 26.8803 35.8937 26.8947 35.8907 26.9043C35.6722 27.5856 35.3875 28.2062 35.0581 28.8396C34.3204 30.0603 33.4022 31.004 32.23 31.8076L31.1193 32.4311L31.1385 34.4169L31.1527 34.4454C31.154 34.9068 31.1929 35.4093 31.137 35.8657C31.0351 36.698 30.4382 37.6405 29.856 38.2255L29.1592 38.809L28.4306 39.2075C28.2023 39.3055 28.064 39.4025 27.8134 39.3102L26.8793 38.806C25.9724 38.1315 25.2108 37.2175 24.9115 36.1087C24.8391 35.841 24.8527 35.5784 24.853 35.3036L24.8515 34.3318L24.8578 32.4043C23.8703 31.9214 23.023 31.3392 22.2256 30.584L21.6238 29.9186C20.874 29.0155 20.3676 28.0458 19.998 26.9339C19.9746 26.8669 19.9699 26.8492 19.9156 26.7997C19.8465 26.8288 19.7805 26.8507 19.705 26.8567C19.1098 26.903 18.4781 26.5858 18.0393 26.2079C17.7599 26.2553 17.4708 26.2578 17.1882 26.278C16.961 26.2942 16.7224 26.3312 16.4956 26.3236C16.8939 25.7564 17.0182 25.2063 17.1025 24.5298L17.0244 23.7443L17.0254 23.7101C17.0552 22.9515 17.4308 22.2846 17.9755 21.7779L17.9783 19.6518L17.9912 18.1452C17.9914 17.9727 18.0266 17.7099 17.9551 17.551L17.9359 17.5123C17.7978 17.2269 17.5859 16.9756 17.4069 16.714L17.4074 16.7134Z" fill="#FAB1A3"/>
<path d="M17.1029 24.5293L17.1127 24.5538C17.1757 24.7164 17.2036 24.8887 17.2612 25.0537C17.4223 25.5135 17.6991 25.8656 18.0398 26.2075C17.7604 26.255 17.4713 26.2575 17.1887 26.2777C16.9614 26.2939 16.7229 26.3309 16.4961 26.3232C16.8944 25.7561 17.0187 25.206 17.1029 24.5295V24.5293Z" fill="#3AB952"/>
<path d="M36.2319 22.0532C36.4254 22.0555 36.6258 22.0472 36.8122 22.1055L36.8562 22.1202C37.1128 22.202 37.3454 22.3471 37.5165 22.5576C37.8135 22.9229 37.9878 23.4809 37.9261 23.95L37.918 24.006C37.8557 24.4523 37.6733 24.7788 37.3814 25.115C37.0188 25.4503 36.7077 25.5904 36.2324 25.6955V22.053L36.2319 22.0532Z" fill="#E05C44"/>
<path d="M18.8666 22.2813C19.1176 22.2717 19.3132 22.283 19.5196 22.4454C19.5502 22.4695 19.6505 22.5379 19.6662 22.5677C19.6939 22.6202 19.6562 24.7338 19.6602 24.972C19.6647 25.2382 19.6868 25.5066 19.7183 25.7709L19.7234 25.8124C19.4126 25.8727 19.1708 25.8702 18.8621 25.79L18.6425 25.6886C18.2659 25.4874 17.9961 25.0364 17.8844 24.6383C17.7231 24.0635 17.7737 23.4372 18.0767 22.9182C18.2638 22.5977 18.5048 22.3765 18.8664 22.2815L18.8666 22.2813Z" fill="#E05C44"/>
<path d="M17.4077 16.7134C17.6348 16.761 17.7282 16.8831 17.8975 17.0345C18.1224 17.2354 18.3533 17.4698 18.6074 17.6327C18.9397 17.8458 19.3189 17.9731 19.6838 18.1169L19.6808 21.4906C19.2285 21.3435 18.7578 21.3626 18.3267 21.5774L17.9765 21.7773L17.9792 19.6512L17.9922 18.1445C17.9924 17.9721 18.0275 17.7092 17.956 17.5504L17.9369 17.5117C17.7988 17.2263 17.5869 16.9749 17.4079 16.7134H17.4077Z" fill="#303133"/>
<path d="M24.8584 32.4038C26.3724 32.9748 27.9616 33.1906 29.563 32.8914C30.0958 32.7919 30.6107 32.6114 31.1199 32.4306L31.1391 34.4163C30.9435 34.4219 30.7207 34.5097 30.529 34.5565L29.6881 34.7204C28.0593 34.9718 26.4202 34.8204 24.8521 34.3317L24.8584 32.4042V32.4038Z" fill="#FAB1A3"/>
<path d="M24.8521 34.3315C26.4204 34.8202 28.0593 34.9716 29.6881 34.7202L30.529 34.5563C30.7207 34.5097 30.9433 34.4219 31.1391 34.4161L31.1533 34.4446C31.1546 34.9061 31.1935 35.4086 31.1376 35.8649C31.0356 36.6972 30.4388 37.6397 29.8566 38.2247L29.1598 38.8082L28.4312 39.2067C28.2029 39.3048 28.0646 39.4017 27.8139 39.3095L26.8798 38.8053C25.973 38.1307 25.2114 37.2167 24.9121 36.108C24.8397 35.8402 24.8533 35.5776 24.8535 35.3029L24.8521 34.3311V34.3315Z" fill="#FFDBC9"/>
<path fill-rule="evenodd" clip-rule="evenodd" d="M36.3604 21.7839C36.2266 23.8087 35.7214 25.9932 35.2115 28.1984C35.1969 28.2613 35.1824 28.3241 35.1679 28.387C34.9299 29.2743 34.577 30.0807 34.1298 30.7588C33.6825 31.4369 33.1501 31.973 32.5637 32.3355C31.9608 32.7147 31.3137 32.9072 30.6607 32.9018C30.0077 32.8964 29.3621 32.6931 28.762 32.3039C28.7342 32.2871 28.7031 32.2871 28.6753 32.3039C28.6475 32.3207 28.6251 32.353 28.6126 32.3942C28.6068 32.4146 28.6037 32.4366 28.6035 32.4588C28.6034 32.4811 28.6061 32.5031 28.6117 32.5237C28.6173 32.5443 28.6255 32.5631 28.6359 32.5788C28.6463 32.5945 28.6587 32.6069 28.6724 32.6153C29.3092 33.0289 29.9676 33.2525 30.6607 33.2527C31.6735 33.253 32.382 32.8923 32.9998 32.5001C33.6161 32.1208 34.0294 31.7116 34.4998 31.0001C34.9697 30.2892 35.23 29.3204 35.4801 28.3893L35.4807 28.3872C36.0123 26.1124 36.5074 23.8818 36.6214 21.8033C36.538 21.7925 36.4518 21.7862 36.3604 21.7839Z" fill="#091A2F"/>
<path d="M39.9521 23.6791C40.5307 21.6085 39.9631 19.6111 38.6843 19.2177C37.4055 18.8244 35.8997 20.1841 35.3211 22.2547C34.7425 24.3253 35.3101 26.3228 36.5889 26.7161C37.8677 27.1095 39.3734 25.7498 39.9521 23.6791Z" fill="#1E1E1E"/>
<path d="M39.8162 23.4664C39.4191 25.0815 38.5089 26.2175 37.7817 25.9645C37.0544 25.7114 36.7867 24.1716 37.1838 22.5349C37.5809 20.8983 38.4911 19.7784 39.2183 20.0368C39.9456 20.2953 40.2133 21.8297 39.8162 23.4664Z" fill="#565656"/>
<path d="M29.0656 31.8053L27.2235 31.0872C26.8997 30.961 26.5351 31.135 26.4092 31.4758L26.3679 31.5876C26.242 31.9285 26.4024 32.3071 26.7263 32.4334L28.5683 33.1515C28.8921 33.2777 29.2567 33.1037 29.3826 32.7628L29.4239 32.6511C29.5498 32.3102 29.3894 31.9315 29.0656 31.8053Z" fill="#1E1E1E"/>
<path d="M26.7239 50.5598C26.6542 50.5598 26.5456 50.5548 26.3981 50.5447C26.256 50.5346 26.1475 50.5301 26.0724 50.531C26.076 50.6354 26.088 50.8213 26.1086 51.0887C26.1273 51.3249 26.1367 51.5118 26.1367 51.6491C26.1367 51.6802 26.1399 51.7265 26.1461 51.7878C26.1524 51.8492 26.1555 51.8955 26.1555 51.9266C26.1555 51.9953 26.1412 52.0571 26.1126 52.112C26.076 52.1825 26.0237 52.2178 25.9558 52.2178C25.9066 52.2178 25.8633 52.2018 25.8257 52.1697C25.7837 52.134 25.7627 52.0891 25.7627 52.0351C25.7627 52.0223 25.765 52.0031 25.7694 51.9774C25.7739 51.9509 25.7761 51.9307 25.7761 51.917C25.7761 51.8748 25.773 51.8112 25.7668 51.726C25.7614 51.6409 25.7587 51.5768 25.7587 51.5337C25.7587 51.411 25.7493 51.2448 25.7306 51.0351C25.7091 50.7943 25.6966 50.6281 25.693 50.5365H25.6233C25.424 50.5365 25.2659 50.5218 25.1488 50.4925C25.0496 50.4678 25 50.4078 25 50.3126C25 50.2659 25.0161 50.2237 25.0483 50.1862C25.0858 50.1413 25.1349 50.1212 25.1957 50.1258C25.227 50.1276 25.298 50.1354 25.4088 50.1491C25.4973 50.1592 25.5688 50.1642 25.6233 50.1642C25.6778 50.1642 25.7592 50.1633 25.8673 50.1615C25.9763 50.1596 26.0581 50.1587 26.1126 50.1587C26.1805 50.1587 26.2824 50.1638 26.4182 50.1738C26.5541 50.183 26.6559 50.1876 26.7239 50.1876C26.7775 50.1876 26.8222 50.2054 26.8579 50.2411C26.8945 50.2769 26.9129 50.3208 26.9129 50.373C26.9129 50.4252 26.8945 50.4696 26.8579 50.5063C26.8222 50.542 26.7775 50.5598 26.7239 50.5598Z" fill="#00B14F"/>
<path d="M27.3405 50.5557C27.2833 50.5557 27.2337 50.536 27.1917 50.4966C27.1497 50.4573 27.1287 50.4092 27.1287 50.3524C27.1287 50.2956 27.1497 50.2476 27.1917 50.2082C27.2337 50.1688 27.2833 50.1491 27.3405 50.1491C27.3977 50.1491 27.4468 50.1688 27.4879 50.2082C27.5299 50.2476 27.5509 50.2956 27.5509 50.3524C27.5509 50.4092 27.5299 50.4573 27.4879 50.4966C27.4468 50.536 27.3977 50.5557 27.3405 50.5557ZM27.4544 51.5626C27.4544 51.6148 27.4558 51.6986 27.4584 51.8139C27.462 51.9293 27.4638 52.0131 27.4638 52.0653C27.4638 52.1184 27.4464 52.1624 27.4115 52.1972C27.3767 52.2311 27.3324 52.248 27.2788 52.248C27.2252 52.248 27.181 52.2311 27.1461 52.1972C27.1113 52.1624 27.0938 52.1184 27.0938 52.0653C27.0938 52.0131 27.092 51.9293 27.0885 51.8139C27.0858 51.6986 27.0845 51.6148 27.0845 51.5626C27.0845 51.4811 27.0889 51.379 27.0979 51.2563C27.1068 51.1335 27.1113 51.0314 27.1113 50.9499C27.1113 50.8968 27.1287 50.8533 27.1635 50.8194C27.1984 50.7846 27.2426 50.7672 27.2962 50.7672C27.3499 50.7672 27.3941 50.7846 27.429 50.8194C27.4638 50.8533 27.4812 50.8968 27.4812 50.9499C27.4812 51.0314 27.4768 51.1335 27.4678 51.2563C27.4589 51.379 27.4544 51.4811 27.4544 51.5626Z" fill="#00B14F"/>
<path d="M28.9316 52.2631C28.861 52.2631 28.8074 52.2283 28.7708 52.1587C28.727 52.0754 28.6613 51.977 28.5737 51.8634C28.4379 51.6867 28.366 51.5928 28.3579 51.5818C28.2864 51.6358 28.2274 51.677 28.181 51.7054C28.172 51.8327 28.1676 51.9545 28.1676 52.0708C28.1676 52.1239 28.1501 52.1679 28.1153 52.2027C28.0804 52.2375 28.0362 52.2549 27.9826 52.2549C27.8566 52.2549 27.7936 52.178 27.7936 52.0241C27.7936 51.9518 27.7985 51.8437 27.8083 51.6999C27.819 51.5552 27.8244 51.4467 27.8244 51.3744C27.8244 51.2416 27.8262 51.09 27.8298 50.9197C27.8342 50.7485 27.8365 50.5974 27.8365 50.4664C27.8365 50.427 27.8342 50.3808 27.8298 50.3277C27.8262 50.2737 27.8244 50.227 27.8244 50.1876C27.8244 50.1345 27.8418 50.091 27.8767 50.0571C27.9115 50.0223 27.9558 50.0049 28.0094 50.0049C28.063 50.0049 28.1072 50.0223 28.1421 50.0571C28.1769 50.091 28.1944 50.1345 28.1944 50.1876C28.1944 50.2279 28.1966 50.2755 28.2011 50.3304C28.2055 50.3854 28.2078 50.433 28.2078 50.4733C28.2078 50.5823 28.2051 50.7114 28.1997 50.8607C28.1944 51.0035 28.1921 51.1308 28.193 51.2425C28.3146 51.1464 28.4996 50.9715 28.748 50.7178C28.7873 50.6775 28.832 50.6574 28.882 50.6574C28.9321 50.6574 28.9763 50.6761 29.0147 50.7137C29.0532 50.7512 29.0724 50.7947 29.0724 50.8442C29.0724 50.8863 29.055 50.927 29.0201 50.9664C28.9147 51.0873 28.7891 51.2137 28.6434 51.3455L28.9223 51.7137C29.0572 51.8977 29.1247 52.0205 29.1247 52.0818C29.1247 52.1322 29.105 52.1748 29.0657 52.2096C29.0264 52.2453 28.9817 52.2631 28.9316 52.2631Z" fill="#00B14F"/>
<path d="M29.8391 52.2878C29.6738 52.2878 29.5317 52.2297 29.4129 52.1134C29.2824 51.9861 29.214 51.8162 29.2078 51.6038C29.2015 51.4014 29.2556 51.221 29.37 51.0626C29.5058 50.8758 29.6948 50.7824 29.937 50.7824C30.1157 50.7824 30.2578 50.8556 30.3633 51.0021C30.458 51.134 30.5054 51.2975 30.5054 51.4925C30.5054 51.705 30.45 51.8863 30.3391 52.0365C30.2149 52.2041 30.0483 52.2878 29.8391 52.2878ZM29.9196 51.145C29.8097 51.1441 29.723 51.1954 29.6595 51.2988C29.6059 51.3858 29.5791 51.4875 29.5791 51.6038C29.5791 51.7137 29.6095 51.7979 29.6702 51.8565C29.7185 51.9032 29.7748 51.9266 29.8391 51.9266C29.9169 51.9266 29.9844 51.8996 30.0416 51.8455C30.1068 51.7824 30.1416 51.6967 30.1461 51.5887C30.1577 51.2938 30.0822 51.1459 29.9196 51.145Z" fill="#00B14F"/>
<path d="M31.3512 52.2878C31.2744 52.2878 31.1935 52.2787 31.1086 52.2604L31.1072 52.8208C31.1072 52.8739 31.0898 52.9179 31.055 52.9527C31.0201 52.9875 30.9759 53.0049 30.9223 53.0049C30.8686 53.0049 30.8244 52.9875 30.7895 52.9527C30.7547 52.9179 30.7373 52.8739 30.7373 52.8208C30.7373 52.7778 30.7382 52.607 30.7399 52.3085C30.7417 52.0868 30.7417 51.906 30.7399 51.7659C30.7373 51.5681 30.731 51.3977 30.7212 51.2549C30.7078 51.058 30.7011 50.9678 30.7011 50.9843C30.7011 50.9083 30.7176 50.8433 30.7507 50.7892C30.7891 50.7279 30.8409 50.6972 30.9062 50.6972C30.9562 50.6972 30.9982 50.7146 31.0322 50.7494C31.0661 50.7842 31.0831 50.8259 31.0831 50.8744L31.0818 50.8881C31.1416 50.8533 31.2015 50.8277 31.2614 50.8112C31.3222 50.7938 31.3829 50.7851 31.4437 50.7851C31.6492 50.7851 31.7994 50.8744 31.8941 51.053C31.9647 51.1876 32 51.362 32 51.5763C32 51.7769 31.9441 51.9431 31.8324 52.0749C31.7127 52.2169 31.5523 52.2878 31.3512 52.2878ZM31.4437 51.1519C31.3874 51.1519 31.3302 51.1656 31.2721 51.1931C31.214 51.2196 31.1555 51.2599 31.0965 51.3139C31.1072 51.5026 31.1126 51.6917 31.1126 51.8813C31.1921 51.9078 31.2717 51.9211 31.3512 51.9211C31.4433 51.9211 31.5139 51.8877 31.563 51.8208C31.6077 51.7604 31.63 51.6789 31.63 51.5763C31.63 51.4527 31.6247 51.3671 31.6139 51.3194C31.588 51.2077 31.5313 51.1519 31.4437 51.1519Z" fill="#00B14F"/>
<defs>
<linearGradient id="paint0_linear_4164_23701" x1="41.5661" y1="25.0846" x2="34.8578" y2="28.004" gradientUnits="userSpaceOnUse">
<stop offset="0.0055114" stop-color="#62F8A5"/>
<stop offset="0.330375" stop-color="#41D772"/>
<stop offset="0.726069" stop-color="#01613E"/>
</linearGradient>
<linearGradient id="paint1_linear_4164_23701" x1="15.1698" y1="18.0448" x2="8.42288" y2="19.8001" gradientUnits="userSpaceOnUse">
<stop offset="0.0055114" stop-color="#62F8A5"/>
<stop offset="0.330375" stop-color="#41D772"/>
<stop offset="0.726069" stop-color="#01613E"/>
</linearGradient>
</defs>
</svg>
