<svg width="24" height="24" viewBox="0 0 24 24" fill="none" xmlns="http://www.w3.org/2000/svg">
<path d="M4.21875 0H0.46875C0.209906 0 0 0.209859 0 0.46875V4.21875C0 4.47764 0.209906 4.6875 0.46875 4.6875C0.727594 4.6875 0.9375 4.47764 0.9375 4.21875V0.9375H4.21875C4.47759 0.9375 4.6875 0.727641 4.6875 0.46875C4.6875 0.209859 4.47759 0 4.21875 0Z" fill="#ADADAD"/>
<path d="M23.5312 0H19.7812C19.5224 0 19.3125 0.209859 19.3125 0.46875C19.3125 0.727641 19.5224 0.9375 19.7812 0.9375H23.0625V4.21875C23.0625 4.47764 23.2724 4.6875 23.5312 4.6875C23.7901 4.6875 24 4.47764 24 4.21875V0.46875C24 0.209859 23.7901 0 23.5312 0Z" fill="#ADADAD"/>
<path d="M4.21875 23.0625H0.9375V19.7812C0.9375 19.5224 0.727594 19.3125 0.46875 19.3125C0.209906 19.3125 0 19.5224 0 19.7812V23.5312C0 23.7901 0.209906 24 0.46875 24H4.21875C4.47759 24 4.6875 23.7901 4.6875 23.5312C4.6875 23.2724 4.47759 23.0625 4.21875 23.0625Z" fill="#ADADAD"/>
<path d="M23.5312 19.3125C23.2724 19.3125 23.0625 19.5224 23.0625 19.7812V23.0625H19.7812C19.5224 23.0625 19.3125 23.2724 19.3125 23.5312C19.3125 23.7901 19.5224 24 19.7812 24H23.5312C23.7901 24 24 23.7901 24 23.5312V19.7812C24 19.5224 23.7901 19.3125 23.5312 19.3125Z" fill="#ADADAD"/>
<path d="M3 21C3.0375 19.8487 3.30404 18.7183 3.78261 17.6806C4.33435 16.527 6.63913 15.7276 9.53243 14.6075C10.315 14.304 10.1867 12.1685 9.84 11.7701C9.02609 10.8349 8.33739 9.73773 8.33739 7.09091C8.33739 4.41955 10.0043 3 12 3C13.9957 3 15.6626 4.41955 15.6626 7.09091C15.6626 9.73773 14.9731 10.8349 14.16 11.7701C13.8133 12.1685 13.685 14.3065 14.4676 14.6075C17.3632 15.7276 19.6657 16.527 20.2174 17.6806C20.696 18.7183 20.9625 19.8487 21 21H3Z" fill="#ADADAD"/>
</svg>
