<svg width="42" height="42" viewBox="0 0 42 42" fill="none" xmlns="http://www.w3.org/2000/svg">
<rect x="0.5" y="0.5" width="41" height="41" rx="8.5" fill="#003A18" fill-opacity="0.7"/>
<rect x="0.5" y="0.5" width="41" height="41" rx="8.5" stroke="url(#paint0_linear_5671_31400)"/>
<g clip-path="url(#clip0_5671_31400)">
<path d="M27.5 21C23.916 21 21 23.916 21 27.5C21 31.084 23.916 34 27.5 34C31.084 34 34 31.084 34 27.5C34 23.916 31.084 21 27.5 21ZM28.5 31C28.5 31.552 28.053 32 27.5 32C26.947 32 26.5 31.552 26.5 31V27.5C26.5 26.948 26.947 26.5 27.5 26.5C28.053 26.5 28.5 26.948 28.5 27.5V31ZM27.5 25C26.948 25 26.5 24.552 26.5 24C26.5 23.448 26.948 23 27.5 23C28.052 23 28.5 23.448 28.5 24C28.5 24.552 28.052 25 27.5 25Z" fill="white"/>
<path d="M27.98 10.11C25.39 9.72999 23.1 10.35 21 12C18.9 10.35 16.61 9.72999 14.02 10.11C13.15 10.23 12.5 10.98 12.5 11.84V22.81C12.5 23.3 12.71 23.77 13.08 24.1C13.45 24.44 13.96 24.6 14.46 24.54C16.05 24.36 17.59 24.69 19.01 25.5C19.08 25.53 19.14 25.57 19.21 25.61C19.22 25.57 19.23 25.54 19.24 25.5C19.35 25.04 19.5 24.59 19.69 24.16C18.32 23.39 16.84 22.99 15.31 22.99C14.97 22.99 14.64 23.01 14.29 23.05C14.18 23.06 14.11 23.01 14.08 22.98C14.03 22.94 14 22.88 14 22.81V11.84C14 11.72 14.1 11.61 14.23 11.59C16.49 11.26 18.41 11.82 20.25 13.33C20.34 13.39 20.42 13.47 20.51 13.54C20.79 13.79 21.21 13.79 21.49 13.54C21.58 13.47 21.66 13.39 21.75 13.33C23.59 11.82 25.51 11.27 27.77 11.59C27.9 11.61 28 11.72 28 11.84V19.01C28.51 19.04 29.01 19.12 29.5 19.24V11.84C29.5 10.98 28.85 10.23 27.98 10.11Z" fill="white"/>
<path d="M19.24 25.5C19.23 25.54 19.22 25.57 19.21 25.61C19.11 26.06 19.04 26.53 19.01 27H11.75C10.79 27 10 26.21 10 25.25V13.75C10 12.79 10.78 12.01 11.74 12H13C13.41 12 13.75 12.33 13.75 12.75C13.75 13.16 13.42 13.5 13 13.5H11.75C11.61 13.5 11.5 13.62 11.5 13.75V25.25C11.5 25.39 11.61 25.5 11.75 25.5H19.24Z" fill="white"/>
<path d="M32 13.75V20.29C31.53 20 31.03 19.75 30.5 19.55V13.75C30.5 13.61 30.39 13.5 30.25 13.5H29C28.59 13.5 28.25 13.16 28.25 12.75C28.25 12.34 28.59 12 29 12H30.25C31.21 12 32 12.79 32 13.75Z" fill="white"/>
<path d="M21.75 13V21.25C21.17 21.78 20.66 22.39 20.25 23.07V13C20.25 12.59 20.59 12.25 21 12.25C21.41 12.25 21.75 12.59 21.75 13Z" fill="white"/>
</g>
<defs>
<linearGradient id="paint0_linear_5671_31400" x1="38.5" y1="4" x2="4" y2="37.5" gradientUnits="userSpaceOnUse">
<stop stop-color="#BAF6D8"/>
<stop offset="0.56" stop-color="#003A18" stop-opacity="0"/>
<stop offset="1" stop-color="#BAF6D8"/>
</linearGradient>
<clipPath id="clip0_5671_31400">
<rect width="24" height="24" fill="white" transform="translate(10 10)"/>
</clipPath>
</defs>
</svg>
