<svg width="24" height="24" viewBox="0 0 24 24" fill="none" xmlns="http://www.w3.org/2000/svg">
<path d="M20.5089 9.72189L13.0083 2.9029C12.7328 2.65063 12.3728 2.51072 11.9992 2.51074C11.6257 2.51077 11.2657 2.65073 10.9902 2.90304L3.49085 9.72184C3.33635 9.86254 3.21288 10.0339 3.12834 10.225C3.0438 10.4161 3.00004 10.6228 2.99986 10.8317V19.4657C2.99556 19.8426 3.12929 20.2081 3.37586 20.4933C3.51632 20.653 3.6893 20.7808 3.88318 20.8682C4.07706 20.9555 4.28738 21.0004 4.50004 20.9999H8.99656C9.19547 20.9999 9.38624 20.9209 9.52689 20.7802C9.66754 20.6396 9.74656 20.4488 9.74656 20.2499V15.7492C9.74656 15.5503 9.82558 15.3595 9.96623 15.2189C10.1069 15.0782 10.2976 14.9992 10.4966 14.9992H13.4966C13.6955 14.9992 13.8862 15.0782 14.0269 15.2189C14.1675 15.3595 14.2466 15.5503 14.2466 15.7492V20.2499C14.2466 20.4488 14.3256 20.6396 14.4662 20.7802C14.6069 20.9209 14.7976 20.9999 14.9966 20.9999H19.5019C19.7484 21.0031 19.9915 20.9432 20.2083 20.8259C20.4475 20.6968 20.6473 20.5054 20.7867 20.2719C20.926 20.0385 20.9997 19.7718 20.9999 19.4999V10.8318C20.9997 10.6228 20.9559 10.4162 20.8714 10.2251C20.7868 10.034 20.6634 9.86261 20.5089 9.72189Z" fill="#33CC7F"/>
</svg>
