<svg width="25" height="24" viewBox="0 0 25 24" fill="none" xmlns="http://www.w3.org/2000/svg">
<path d="M15.3248 5.44998L17.4595 1.30782C16.2956 -0.00481841 15.4459 0.324385 14.2964 0.769697C13.638 1.02484 12.8937 1.31345 12.0619 1.25523C11.2199 1.31443 10.4955 1.01959 9.85523 0.758963C8.75475 0.311025 8.00573 0.00624418 6.86133 1.3172L8.81245 5.45003L15.3248 5.44998Z" fill="#00B14F"/>
<path d="M8.45583 6.57507C8.11294 6.57507 7.83398 6.85337 7.83398 7.19542C7.83398 7.53746 8.11294 7.81576 8.45583 7.81576H9.99933H14.1241H15.6676C16.0105 7.81576 16.2894 7.53746 16.2894 7.19542C16.2894 6.85337 16.0105 6.57507 15.6676 6.57507H8.45583Z" fill="#00B14F"/>
<path d="M18.6277 12.255C17.2791 10.1488 15.6377 8.9408 14.1244 8.9408H9.99961C8.48625 8.9408 6.84487 10.1488 5.49633 12.255C4.19869 14.2817 3.39258 16.8586 3.39258 18.98C3.39258 21.099 4.13016 23.625 7.64405 23.625H16.48C17.9361 23.625 19.0369 23.1811 19.752 22.3057C20.3928 21.5212 20.7315 20.3712 20.7315 18.98C20.7314 16.8586 19.9253 14.2817 18.6277 12.255ZM12.1773 16.1073C12.6752 16.212 13.19 16.3201 13.6198 16.6032C14.1645 16.962 14.4406 17.5199 14.4406 18.2615C14.4406 19.2791 13.6654 20.1346 12.6245 20.3653V21.5437H11.4995V20.3653C10.4586 20.1346 9.68334 19.2791 9.68334 18.2615H10.8084C10.8084 18.8352 11.3707 19.302 12.062 19.302C12.7533 19.302 13.3156 18.8352 13.3156 18.2615C13.3156 17.5589 12.9606 17.4216 11.946 17.2083C11.4482 17.1037 10.9335 16.9956 10.504 16.7127C9.95948 16.3542 9.68339 15.7966 9.68339 15.0555C9.68339 14.0378 10.4586 13.1823 11.4995 12.9516V11.7717H12.6246V12.9515C13.6655 13.1822 14.4407 14.0377 14.4407 15.0554H13.3156C13.3156 14.4816 12.7533 14.0149 12.062 14.0149C11.3707 14.0149 10.8084 14.4817 10.8084 15.0554C10.8083 15.7569 11.1632 15.8941 12.1773 16.1073Z" fill="#00B14F"/>
</svg>
