<svg width="25" height="24" viewBox="0 0 25 24" fill="none" xmlns="http://www.w3.org/2000/svg">
<path d="M19.8005 11.6538C19.03 10.4506 18.1444 9.52545 17.2174 8.92868C17.6006 8.62896 17.8476 8.16298 17.8476 7.64014C17.8476 7.03287 17.5146 6.50225 17.0216 6.21997L19.111 2.16565L18.887 1.8815C17.2309 -0.220051 15.7601 0.349668 14.5782 0.807543C14.0289 1.02031 13.51 1.22131 12.9855 1.17626L12.9374 1.17214L12.8893 1.17626C12.3631 1.22145 11.8659 1.0189 11.3393 0.804496C10.221 0.349293 8.82923 -0.217285 7.17534 1.8815L6.95986 2.15492L8.87348 6.20829C8.36934 6.48753 8.02716 7.02457 8.02716 7.64014C8.02716 8.16298 8.27419 8.62896 8.65739 8.92868C7.73058 9.5254 6.84506 10.4504 6.07481 11.6535C4.77319 13.6863 3.99609 16.1843 3.99609 18.3355C3.99609 19.8486 4.38727 21.1272 5.12728 22.0332C5.99016 23.0894 7.26919 23.625 8.92889 23.625H16.9472C18.6068 23.625 19.8857 23.0895 20.7485 22.0334C21.4885 21.1276 21.8796 19.8492 21.8796 18.3363C21.8796 16.185 21.1023 13.6869 19.8005 11.6538ZM10.915 1.84643C11.5005 2.08475 12.1625 2.35432 12.9375 2.30079C13.7023 2.35339 14.3827 2.08972 14.9846 1.85651C16.0376 1.44856 16.7579 1.1697 17.7742 2.30398L15.8673 6.00406H10.0211L8.27869 2.31331C9.27731 1.17992 9.91045 1.43745 10.915 1.84643ZM9.66459 8.15126C9.38198 8.15126 9.15206 7.922 9.15206 7.64014C9.15206 7.36311 9.38677 7.12901 9.66459 7.12901H16.2102C16.488 7.12901 16.7227 7.36311 16.7227 7.64014C16.7227 7.922 16.4928 8.15126 16.2102 8.15126H14.8092H11.0655H9.66459ZM19.8772 21.3217C19.2385 22.1036 18.2527 22.5 16.9472 22.5H8.92889C5.7817 22.5 5.12109 20.2353 5.12109 18.3355C5.12109 16.4195 5.84958 14.0915 7.0222 12.26C8.23641 10.3638 9.71011 9.27621 11.0655 9.27621H14.8093C17.8152 9.27621 20.7546 14.4641 20.7546 18.3363C20.7546 19.5868 20.4512 20.6191 19.8772 21.3217ZM11.8515 14.774C11.8515 15.3487 12.093 15.4762 13.0527 15.6779C13.8871 15.8533 15.1482 16.1183 15.1482 17.6839C15.1482 18.619 14.4473 19.4073 13.4999 19.6349V20.6629H12.3749V19.6349C11.4274 19.4073 10.7265 18.619 10.7265 17.6839H11.8515C11.8515 18.176 12.3386 18.5764 12.9374 18.5764C13.5361 18.5764 14.0233 18.176 14.0233 17.6839C14.0233 17.1082 13.7817 16.9806 12.8213 16.7788C11.9872 16.6035 10.7265 16.3385 10.7265 14.774C10.7265 13.8389 11.4274 13.0505 12.375 12.8229V11.795H13.4999V12.8229C14.4474 13.0505 15.1483 13.8389 15.1483 14.774H14.0233C14.0233 14.2819 13.5361 13.8815 12.9374 13.8815C12.3386 13.8815 11.8515 14.2819 11.8515 14.774Z" fill="#A5A5A5"/>
</svg>
