<svg width="30" height="30" viewBox="0 0 30 30" fill="none" xmlns="http://www.w3.org/2000/svg">
<path d="M19 25H21C21.5304 25 22.0391 24.7893 22.4142 24.4142C22.7893 24.0391 23 23.5304 23 23V10L18 5H9C8.46957 5 7.96086 5.21071 7.58579 5.58579C7.21071 5.96086 7 6.46957 7 7V10" stroke="white" stroke-width="2" stroke-linecap="round" stroke-linejoin="round"/>
<path d="M17 5V9C17 9.53043 17.2107 10.0391 17.5858 10.4142C17.9609 10.7893 18.4696 11 19 11H23" stroke="white" stroke-width="2" stroke-linecap="round" stroke-linejoin="round"/>
<path d="M11 25C14.3137 25 17 22.3137 17 19C17 15.6863 14.3137 13 11 13C7.68629 13 5 15.6863 5 19C5 22.3137 7.68629 25 11 25Z" stroke="white" stroke-width="2" stroke-linecap="round" stroke-linejoin="round"/>
<path d="M12.5 20.5L11 19.25V17" stroke="white" stroke-width="2" stroke-linecap="round" stroke-linejoin="round"/>
</svg>
