<svg width="24" height="24" viewBox="0 0 24 24" fill="none" xmlns="http://www.w3.org/2000/svg">
<g clip-path="url(#clip0_714_4767)">
<circle cx="12" cy="12" r="12" fill="#2F80ED"/>
<path d="M6.00003 11.4998C6.00003 11.776 6.22389 11.9998 6.50003 11.9998C6.77617 11.9998 7.00003 11.776 7.00003 11.4998C7.00003 8.83046 9.16399 6.6665 11.8334 6.6665C14.5028 6.6665 16.6667 8.83046 16.6667 11.4998C16.6667 11.776 16.8906 11.9998 17.1667 11.9998C17.4428 11.9998 17.6667 11.776 17.6667 11.4998C17.6667 8.27818 15.055 5.6665 11.8334 5.6665C8.6117 5.6665 6.00003 8.27818 6.00003 11.4998Z" fill="white" stroke="white" stroke-width="0.4"/>
<path d="M10.3536 14.9796C10.1583 14.7844 9.8417 14.7844 9.64644 14.9796C9.45118 15.1749 9.45118 15.4914 9.64644 15.6867L11.6465 17.6867C11.8417 17.882 12.1583 17.882 12.3535 17.6867L14.3535 15.6867C14.5488 15.4914 14.5488 15.1749 14.3535 14.9796C14.1583 14.7844 13.8417 14.7844 13.6465 14.9796L12.5 16.126L12.5 10.6665C12.5 10.3904 12.2761 10.1665 12 10.1665C11.7239 10.1665 11.5 10.3904 11.5 10.6665L11.5 16.126L10.3536 14.9796Z" fill="white" stroke="white" stroke-width="0.4"/>
</g>
<defs>
<clipPath id="clip0_714_4767">
<rect width="24" height="24" fill="white"/>
</clipPath>
</defs>
</svg>
