<svg width="13" height="17" viewBox="0 0 13 17" fill="none" xmlns="http://www.w3.org/2000/svg">
<path d="M10.8041 5.6081C9.88125 4.60423 9.08472 3.70551 9.08472 2.34779C9.08472 1.57554 9.23853 0.826633 9.23991 0.81932C9.26875 0.68107 9.23397 0.537352 9.14469 0.427945C9.05591 0.318508 8.92225 0.254883 8.78125 0.254883C7.98794 0.254883 5.72337 0.842195 5.72337 3.45145C5.72337 5.11907 5.38553 5.66395 5.23997 5.80766C5.15803 5.88913 5.04862 5.93491 4.95981 5.92163C4.52816 5.9166 4.44666 5.2986 4.44391 5.27526C4.4265 5.11594 4.32856 4.97635 4.18434 4.90585C4.04016 4.83444 3.87122 4.84223 3.73344 4.92645C1.90472 6.04388 0.8125 7.98891 0.8125 10.1299C0.8125 13.4899 3.54625 16.2549 6.90625 16.2549C10.2662 16.2549 13 13.4899 13 10.1299C13 7.99901 11.8332 6.72869 10.8041 5.6081Z" fill="url(#paint0_linear_7106_40436)"/>
<path d="M6.4375 9.19238C6.4375 8.41695 5.80669 7.78613 5.03125 7.78613C4.25581 7.78613 3.625 8.41695 3.625 9.19238C3.625 9.96782 4.25581 10.5986 5.03125 10.5986C5.80669 10.5986 6.4375 9.96782 6.4375 9.19238ZM4.5625 9.19238C4.5625 8.93376 4.77262 8.72363 5.03125 8.72363C5.28988 8.72363 5.5 8.93376 5.5 9.19238C5.5 9.45101 5.28988 9.66113 5.03125 9.66113C4.77262 9.66113 4.5625 9.45101 4.5625 9.19238ZM8.78125 10.5986C8.00581 10.5986 7.375 11.2294 7.375 12.0049C7.375 12.7803 8.00581 13.4111 8.78125 13.4111C9.55669 13.4111 10.1875 12.7803 10.1875 12.0049C10.1875 11.2294 9.55672 10.5986 8.78125 10.5986ZM8.78125 12.4736C8.52262 12.4736 8.3125 12.2635 8.3125 12.0049C8.3125 11.7463 8.52262 11.5361 8.78125 11.5361C9.03988 11.5361 9.25 11.7463 9.25 12.0049C9.25 12.2635 9.03988 12.4736 8.78125 12.4736ZM9.07422 7.88866C8.87187 7.72754 8.57753 7.76141 8.41503 7.96191L4.66503 12.6494C4.50344 12.8518 4.53641 13.1465 4.73828 13.3086C4.93978 13.4696 5.23428 13.4379 5.39747 13.2354L9.14747 8.54785C9.30906 8.34551 9.27609 8.05073 9.07422 7.88866Z" fill="url(#paint1_linear_7106_40436)"/>
<defs>
<linearGradient id="paint0_linear_7106_40436" x1="6.90625" y1="16.2549" x2="6.90625" y2="0.254883" gradientUnits="userSpaceOnUse">
<stop stop-color="#FD5900"/>
<stop offset="1" stop-color="#FFDE00"/>
</linearGradient>
<linearGradient id="paint1_linear_7106_40436" x1="6.90625" y1="13.4111" x2="6.90625" y2="7.78613" gradientUnits="userSpaceOnUse">
<stop stop-color="#FFE59A"/>
<stop offset="1" stop-color="#FFFFD5"/>
</linearGradient>
</defs>
</svg>
