<svg width="40" height="40" viewBox="0 0 40 40" fill="none" xmlns="http://www.w3.org/2000/svg">
<rect width="40" height="40" rx="12" fill="white"/>
<g clip-path="url(#clip0_22229_79107)">
<path d="M12.9416 27.097C12.9415 27.0969 12.9415 27.0969 12.9414 27.0969C13.5262 27.6816 13.5262 28.633 12.9415 29.2176C12.8551 29.3041 12.7585 29.3797 12.6543 29.4426C12.5912 29.4821 12.5168 29.5144 12.4468 29.5487L8.14387 31.8555C8.18647 31.7726 10.4631 27.6518 10.507 27.5566C10.5822 27.3845 10.6877 27.2298 10.8205 27.0969C11.1129 26.8046 11.4969 26.6583 11.881 26.6583C12.2651 26.6583 12.6491 26.8046 12.9414 27.0969C12.9414 27.0969 12.9414 27.0968 12.9413 27.0968L11.3524 25.5078C10.8454 25.6082 10.3619 25.8541 9.96983 26.2461C9.73719 26.4787 9.55103 26.7485 9.41623 27.0482L6.10998 33.0558C5.98147 33.2892 6.02188 33.5794 6.20929 33.7688C6.32518 33.886 6.48022 33.9475 6.63717 33.9474C6.73402 33.9474 6.83164 33.9241 6.92122 33.876L12.9963 30.6192C13.2948 30.4844 13.5609 30.2992 13.7922 30.0685C14.1843 29.6764 14.4302 29.1929 14.5306 28.6859L12.9416 27.097Z" fill="#00B14F"/>
<path d="M23.6789 19.6081C21.9497 19.644 20.3939 18.1267 20.4285 16.3593C20.4168 13.4866 23.9495 12.024 25.9773 14.0611C27.2381 15.2709 27.2382 17.4479 25.9773 18.6577C25.3436 19.2913 24.5112 19.6081 23.6789 19.6081ZM23.6789 14.3131C22.5899 14.2905 21.6098 15.2463 21.6317 16.3593C21.6317 16.9061 21.8446 17.4203 22.2313 17.8069C23.5086 19.0899 25.7336 18.1687 25.7261 16.3593C25.7478 15.2463 24.768 14.2904 23.6789 14.3131Z" fill="#333333"/>
<path d="M33.1638 11.8493C33.9991 8.85176 34.0004 6.70303 34.0001 6.61302C33.9994 6.44939 33.9321 6.29298 33.8136 6.18006C33.6952 6.06713 33.5358 6.00752 33.3723 6.01446C30.273 6.14976 27.3052 6.86682 24.5514 8.1458C21.1741 9.74448 18.3108 11.9425 16.0111 14.9946L11.0689 14.7543C10.8992 14.7457 10.7342 14.8099 10.6143 14.9298L6.1762 19.3678C6.02051 19.5235 5.96232 19.7518 6.0245 19.9631C6.08668 20.1743 6.25927 20.3347 6.47447 20.3812L11.915 21.5576C11.0982 23.0789 10.5876 24.1588 10.5808 24.1732C10.4726 24.4028 10.5201 24.6756 10.6996 24.8551L12.9413 27.0967C12.9413 27.0968 12.9413 27.0968 12.9414 27.0968C12.9414 27.0968 12.9415 27.0969 12.9415 27.0969L15.2299 29.3853C15.4185 29.574 15.7085 29.6149 15.9405 29.4895C16.0574 29.4266 17.0569 28.8865 18.4351 28.096L19.6065 33.5131C19.6978 33.9713 20.2934 34.148 20.6198 33.8114L25.0578 29.3734C25.1778 29.2534 25.2415 29.0883 25.2333 28.9188L24.9931 23.9782C29.335 20.9224 31.8659 16.3467 33.1638 11.8493ZM31.9935 11.5669C31.7879 12.2998 31.5161 13.1272 31.1581 14.0118L25.9806 8.83426C28.129 7.95472 30.4052 7.42474 32.7677 7.25439C32.7087 8.08274 32.5308 9.65211 31.9935 11.5669ZM11.2765 15.969L15.1704 16.1583C14.3305 17.3675 13.3601 18.9485 12.5183 20.4572L7.80709 19.4384L11.2765 15.969ZM12.9717 22.1365L15.0113 24.1761L13.3667 25.8207L11.853 24.307C12.0663 23.8728 12.456 23.0963 12.9717 22.1365ZM15.7622 28.2161L14.2175 26.6715L15.8621 25.0269L17.867 27.0318C16.9463 27.5608 16.1925 27.9795 15.7622 28.2161ZM24.0185 28.711L20.5491 32.1805L19.5287 27.4614C20.8796 26.6684 22.4262 25.7253 23.8277 24.785L24.0185 28.711ZM26.3592 21.3205C24.9051 22.7746 21.5628 24.8677 18.9432 26.4066L16.7128 24.1761L19.6119 21.277C19.8468 21.0421 19.8468 20.6612 19.6119 20.4263C19.3769 20.1914 18.996 20.1914 18.7611 20.4263L15.862 23.3254L13.5745 21.0378C14.9274 18.6231 16.8314 15.5653 18.7177 13.6789C20.5054 11.8912 22.5522 10.4394 24.8034 9.35866L30.6401 15.1953C29.7097 17.1703 28.3481 19.3316 26.3592 21.3205Z" fill="#333333"/>
</g>
<defs>
<clipPath id="clip0_22229_79107">
<rect width="28" height="28" fill="white" transform="translate(6 6)"/>
</clipPath>
</defs>
</svg>
