<svg width="48" height="48" viewBox="0 0 48 48" fill="none" xmlns="http://www.w3.org/2000/svg">
<circle cx="24" cy="24" r="24" fill="#001C3D" fill-opacity="0.04"/>
<path d="M21 21H27" stroke="#333333" stroke-width="1.5" stroke-linecap="round" stroke-linejoin="round"/>
<path d="M21 24H27" stroke="#333333" stroke-width="1.5" stroke-linecap="round" stroke-linejoin="round"/>
<path d="M21 27H24" stroke="#333333" stroke-width="1.5" stroke-linecap="round" stroke-linejoin="round"/>
<path d="M26.6893 32.25H16.5C16.3011 32.25 16.1103 32.171 15.9697 32.0303C15.829 31.8897 15.75 31.6989 15.75 31.5V16.5C15.75 16.3011 15.829 16.1103 15.9697 15.9697C16.1103 15.829 16.3011 15.75 16.5 15.75H31.5C31.6989 15.75 31.8897 15.829 32.0303 15.9697C32.171 16.1103 32.25 16.3011 32.25 16.5V26.6893C32.25 26.7878 32.2306 26.8854 32.1929 26.9764C32.1552 27.0673 32.1 27.15 32.0303 27.2197L27.2197 32.0303C27.15 32.1 27.0673 32.1552 26.9764 32.1929C26.8854 32.2306 26.7878 32.25 26.6893 32.25V32.25Z" stroke="#333333" stroke-width="1.5" stroke-linecap="round" stroke-linejoin="round"/>
<path d="M32.1822 26.9993H27V32.1818" stroke="#333333" stroke-width="1.5" stroke-linecap="round" stroke-linejoin="round"/>
</svg>
