<svg width="16" height="16" viewBox="0 0 16 16" fill="none" xmlns="http://www.w3.org/2000/svg">
<rect width="16" height="16" rx="8" fill="#FFBE40"/>
<path d="M8 8L5.15 5.8625C5.10343 5.82757 5.06563 5.78228 5.03959 5.7302C5.01355 5.67813 5 5.62072 5 5.5625V3.875C5 3.77554 5.03951 3.68016 5.10984 3.60984C5.18016 3.53951 5.27554 3.5 5.375 3.5H10.625C10.7245 3.5 10.8198 3.53951 10.8902 3.60984C10.9605 3.68016 11 3.77554 11 3.875V5.54568C11 5.60366 10.9866 5.66085 10.9607 5.71275C10.9349 5.76466 10.8974 5.80987 10.8511 5.84483L8 8Z" stroke="white" stroke-linecap="round" stroke-linejoin="round"/>
<path d="M8 8L5.15 10.1375C5.10343 10.1724 5.06563 10.2177 5.03959 10.2698C5.01355 10.3219 5 10.3793 5 10.4375V12.125C5 12.2245 5.03951 12.3198 5.10984 12.3902C5.18016 12.4605 5.27554 12.5 5.375 12.5H10.625C10.7245 12.5 10.8198 12.4605 10.8902 12.3902C10.9605 12.3198 11 12.2245 11 12.125V10.4543C11 10.3963 10.9866 10.3392 10.9607 10.2872C10.9349 10.2353 10.8974 10.1901 10.8511 10.1552L8 8Z" stroke="white" stroke-linecap="round" stroke-linejoin="round"/>
</svg>
