<svg width="20" height="21" viewBox="0 0 20 21" fill="none" xmlns="http://www.w3.org/2000/svg">
<g clip-path="url(#clip0_7106_40870)">
<path d="M2.3213 0.254883C2.23576 0.255229 2.15385 0.289539 2.0936 0.350268C2.03334 0.410997 1.99968 0.493171 2 0.578721V19.9346C2.00042 19.9923 2.01633 20.0489 2.04606 20.0984C2.0758 20.1479 2.11827 20.1885 2.16905 20.216C2.21983 20.2435 2.27707 20.2568 2.33477 20.2547C2.39247 20.2525 2.44852 20.2349 2.49709 20.2036L9.74057 15.4809L16.9854 20.2036C17.0339 20.2349 17.09 20.2525 17.1477 20.2546C17.2054 20.2568 17.2626 20.2435 17.3134 20.216C17.3642 20.1885 17.4066 20.1479 17.4364 20.0984C17.4661 20.0489 17.482 19.9923 17.4824 19.9346V0.578721C17.4826 0.536308 17.4744 0.494278 17.4583 0.45504C17.4422 0.415801 17.4185 0.380122 17.3886 0.350043C17.3587 0.319965 17.3232 0.296079 17.284 0.27975C17.2449 0.263421 17.2029 0.254971 17.1605 0.254883H9.87667H2.3213Z" fill="#2F80ED"/>
<g clip-path="url(#clip1_7106_40870)">
<path d="M13.9583 6.30831C13.9583 5.25413 13.125 4.39161 12.0833 4.33333V4.25001C12.0826 4.14 12.0384 4.03474 11.9603 3.95722C11.8822 3.87969 11.7767 3.83618 11.6667 3.83618C11.5566 3.83618 11.4511 3.87969 11.373 3.95722C11.295 4.03474 11.2507 4.14 11.25 4.25001V4.32081H8.75V4.25001C8.74924 4.14 8.70501 4.03474 8.62695 3.95722C8.54889 3.87969 8.44334 3.83618 8.33333 3.83618C8.22331 3.83618 8.11776 3.87969 8.0397 3.95722C7.96164 4.03474 7.91741 4.14 7.91666 4.25001V4.33333C6.875 4.39161 6.04166 5.25413 6.04166 6.30831V7.09587C6.04243 7.10871 6.04525 7.12135 6.05 7.13331C6.04479 7.14368 6.04194 7.15507 6.04166 7.16667V10.0833C6.04241 10.5804 6.24019 11.0569 6.59166 11.4083C6.94313 11.7598 7.41961 11.9576 7.91666 11.9583H12.0833C12.5804 11.9576 13.0569 11.7598 13.4083 11.4083C13.7598 11.0569 13.9576 10.5804 13.9583 10.0833V7.16667C13.958 7.15507 13.9552 7.14368 13.95 7.13331C13.9547 7.12135 13.9576 7.10871 13.9583 7.09587V6.30831ZM8.33334 10.5C8.25092 10.5 8.17036 10.4756 8.10183 10.4298C8.03331 10.384 7.9799 10.3189 7.94836 10.2428C7.91682 10.1667 7.90857 10.0829 7.92464 10.002C7.94072 9.92121 7.9804 9.84697 8.03868 9.78869C8.09695 9.73042 8.1712 9.69073 8.25203 9.67465C8.33286 9.65858 8.41664 9.66683 8.49278 9.69837C8.56892 9.72991 8.634 9.78332 8.67978 9.85185C8.72557 9.92037 8.75 10.0009 8.75 10.0833C8.74965 10.1937 8.70564 10.2995 8.62758 10.3776C8.54951 10.4557 8.44374 10.4997 8.33334 10.5ZM8.33334 8.83335C8.25092 8.83335 8.17036 8.80892 8.10184 8.76313C8.03331 8.71735 7.9799 8.65228 7.94836 8.57614C7.91682 8.5 7.90857 8.41622 7.92464 8.33539C7.94072 8.25456 7.9804 8.18031 8.03867 8.12204C8.09695 8.06376 8.17119 8.02408 8.25202 8.008C8.33285 7.99192 8.41663 8.00017 8.49277 8.03171C8.56891 8.06324 8.63399 8.11665 8.67977 8.18517C8.72556 8.25369 8.75 8.33426 8.75 8.41667C8.74966 8.52707 8.70565 8.63285 8.62758 8.71092C8.54952 8.78899 8.44374 8.833 8.33334 8.83335ZM10 10.5C9.91758 10.5 9.83702 10.4756 9.76849 10.4298C9.69997 10.384 9.64656 10.3189 9.61502 10.2428C9.58348 10.1667 9.57523 10.0829 9.5913 10.002C9.60738 9.92121 9.64707 9.84697 9.70534 9.78869C9.76361 9.73042 9.83786 9.69073 9.91869 9.67465C9.99952 9.65858 10.0833 9.66683 10.1594 9.69837C10.2356 9.72991 10.3007 9.78332 10.3464 9.85185C10.3922 9.92037 10.4167 10.0009 10.4167 10.0833C10.4163 10.1937 10.3723 10.2995 10.2942 10.3776C10.2162 10.4557 10.1104 10.4997 10 10.5ZM10 8.83335C9.91758 8.83335 9.83702 8.80892 9.7685 8.76313C9.69997 8.71735 9.64656 8.65228 9.61502 8.57614C9.58348 8.5 9.57523 8.41622 9.5913 8.33539C9.60738 8.25456 9.64706 8.18031 9.70533 8.12204C9.76361 8.06376 9.83785 8.02408 9.91868 8.008C9.99951 7.99192 10.0833 8.00017 10.1594 8.03171C10.2356 8.06324 10.3006 8.11665 10.3464 8.18517C10.3922 8.25369 10.4167 8.33426 10.4167 8.41667C10.4163 8.52707 10.3723 8.63285 10.2942 8.71092C10.2162 8.78899 10.1104 8.833 10 8.83335ZM11.6667 10.5C11.5842 10.5 11.5037 10.4756 11.4352 10.4298C11.3666 10.384 11.3132 10.3189 11.2817 10.2428C11.2502 10.1666 11.2419 10.0829 11.258 10.002C11.2741 9.9212 11.3138 9.84696 11.372 9.78868C11.4303 9.73041 11.5045 9.69073 11.5854 9.67465C11.6662 9.65858 11.75 9.66683 11.8261 9.69837C11.9023 9.72991 11.9673 9.78332 12.0131 9.85185C12.0589 9.92037 12.0833 10.0009 12.0833 10.0833C12.083 10.1938 12.039 10.2995 11.9609 10.3776C11.8828 10.4557 11.7771 10.4997 11.6667 10.5ZM11.6667 8.83335C11.5842 8.83335 11.5037 8.80891 11.4352 8.76312C11.3666 8.71734 11.3132 8.65226 11.2817 8.57613C11.2502 8.49999 11.2419 8.41621 11.258 8.33538C11.2741 8.25455 11.3137 8.18031 11.372 8.12203C11.4303 8.06376 11.5045 8.02407 11.5854 8.008C11.6662 7.99192 11.75 8.00017 11.8261 8.03171C11.9023 8.06324 11.9673 8.11665 12.0131 8.18517C12.0589 8.2537 12.0833 8.33426 12.0833 8.41667C12.083 8.52707 12.039 8.63286 11.9609 8.71093C11.8828 8.789 11.7771 8.83301 11.6667 8.83335ZM13.125 6.95835H6.875V6.30831C6.8757 6.01944 6.98486 5.74136 7.18086 5.52915C7.37686 5.31695 7.64541 5.18609 7.93332 5.16249C7.95031 5.2565 7.99955 5.34165 8.07257 5.40326C8.14559 5.46487 8.2378 5.49908 8.33334 5.50001C8.5375 5.50001 8.7 5.35007 8.73748 5.15415H11.2625C11.3 5.35007 11.4625 5.50001 11.6667 5.50001C11.7622 5.49908 11.8544 5.46487 11.9274 5.40326C12.0004 5.34165 12.0497 5.2565 12.0667 5.16249C12.6583 5.21253 13.125 5.70835 13.125 6.30831V6.95835Z" fill="white"/>
</g>
</g>
<defs>
<clipPath id="clip0_7106_40870">
<rect width="16" height="20" fill="white" transform="translate(2 0.254883)"/>
</clipPath>
<clipPath id="clip1_7106_40870">
<rect width="8" height="9" fill="white" transform="translate(6 3)"/>
</clipPath>
</defs>
</svg>
