<svg width="18" height="24" viewBox="0 0 18 24" fill="none" xmlns="http://www.w3.org/2000/svg">
<path d="M15.75 9H15V6C15 2.691 12.309 0 9 0C5.691 0 3 2.691 3 6V9H2.25C1.01 9 0 10.009 0 11.25V21.75C0 22.991 1.01 24 2.25 24H15.75C16.99 24 18 22.991 18 21.75V11.25C18 10.009 16.99 9 15.75 9ZM5 6C5 3.794 6.794 2 9 2C11.206 2 13 3.794 13 6V9H5V6ZM10 16.722V19C10 19.552 9.553 20 9 20C8.447 20 8 19.552 8 19V16.722C7.405 16.375 7 15.737 7 15C7 13.897 7.897 13 9 13C10.103 13 11 13.897 11 15C11 15.737 10.595 16.375 10 16.722Z" fill="#ADADAD"/>
</svg>
