<svg width="24" height="24" viewBox="0 0 24 24" fill="none" xmlns="http://www.w3.org/2000/svg">
<g clip-path="url(#clip0)">
<path d="M18.75 9H18V6C18 2.691 15.309 0 12 0C8.691 0 6 2.691 6 6V9H5.25C4.01 9 3 10.009 3 11.25V21.75C3 22.991 4.01 24 5.25 24H18.75C19.99 24 21 22.991 21 21.75V11.25C21 10.009 19.99 9 18.75 9ZM8 6C8 3.794 9.794 2 12 2C14.206 2 16 3.794 16 6V9H8V6ZM13 16.722V19C13 19.552 12.553 20 12 20C11.447 20 11 19.552 11 19V16.722C10.405 16.375 10 15.737 10 15C10 13.897 10.897 13 12 13C13.103 13 14 13.897 14 15C14 15.737 13.595 16.375 13 16.722Z" fill="#ADADAD"/>
</g>
<rect x="9" y="13" width="6" height="7" fill="#ADADAD"/>
<rect x="4" y="15" width="16" height="3" rx="0.5" fill="white"/>
<path d="M6.3132 17.228L6.6989 17.5L7.12574 16.8387L7.56286 17.5L7.93827 17.228L7.44458 16.6253L8.15426 16.412L7.99998 15.9693L7.31601 16.2573L7.35201 15.5H6.89946L6.93546 16.2573L6.25149 15.9693L6.09721 16.412L6.81204 16.6253L6.3132 17.228Z" fill="#ADADAD"/>
<path d="M11.1874 17.2281L11.5731 17.5001L12 16.8388L12.4371 17.5001L12.8125 17.2281L12.3188 16.6254L13.0285 16.4121L12.8742 15.9694L12.1903 16.2574L12.2263 15.5001H11.7737L11.8097 16.2574L11.1257 15.9694L10.9715 16.4121L11.6863 16.6254L11.1874 17.2281Z" fill="#ADADAD"/>
<path d="M16.216 17.228L16.6017 17.5L17.0285 16.8387L17.4656 17.5L17.841 17.228L17.3473 16.6253L18.057 16.412L17.9027 15.9693L17.2188 16.2573L17.2548 15.5H16.8022L16.8382 16.2573L16.1543 15.9693L16 16.412L16.7148 16.6253L16.216 17.228Z" fill="#ADADAD"/>
<defs>
<clipPath id="clip0">
<rect width="24" height="24" fill="white"/>
</clipPath>
</defs>
</svg>
