<svg width="40" height="40" viewBox="0 0 40 40" fill="none" xmlns="http://www.w3.org/2000/svg">
<g clip-path="url(#clip0_365_2726)">
<circle cx="20" cy="20" r="20" fill="white"/>
<circle cx="20" cy="20" r="19.5" stroke="black" stroke-opacity="0.08"/>
<g clip-path="url(#clip1_365_2726)">
<path d="M29.7137 11.682H10.2863C8.98625 11.682 7.92859 12.7071 7.92859 13.9672V26.0328C7.92859 27.2928 8.98625 28.3179 10.2863 28.3179H17.5952C17.8556 28.3179 18.0667 28.1133 18.0667 27.8609C18.0667 27.6085 17.8556 27.4039 17.5952 27.4039H10.2863C9.50627 27.4039 8.87167 26.7888 8.87167 26.0328V20.457H19.1201C19.1957 20.8279 19.4235 21.1548 19.7613 21.3624C19.8713 21.43 19.9884 21.4814 20.109 21.5176L19.2788 22.9014C19.1827 23.0614 19.1959 23.2619 19.3119 23.4089C19.428 23.5559 19.6242 23.6205 19.8087 23.5725L20.9378 23.2788L21.2399 24.3734C21.2892 24.5521 21.4447 24.6843 21.6338 24.7084C21.6545 24.7111 21.6751 24.7124 21.6956 24.7124C21.8625 24.7124 22.0189 24.6265 22.1038 24.4839L24.2537 20.8748L26.9471 25.5161C27.0313 25.6612 27.1892 25.7491 27.3579 25.7491C27.3775 25.7491 27.3973 25.7479 27.4171 25.7455C27.6073 25.7222 27.764 25.5897 27.8136 25.4102L28.1157 24.3155L29.2449 24.6092C29.4285 24.6569 29.6238 24.5932 29.7401 24.4474C29.8564 24.3017 29.871 24.1025 29.7773 23.9422L28.3906 21.5739C28.4344 21.5778 28.4783 21.5802 28.5222 21.5802C28.7902 21.5802 29.0569 21.507 29.2923 21.3624C29.6301 21.1548 29.858 20.8279 29.9335 20.457H31.1284V26.0327C31.1284 26.7888 30.4938 27.4038 29.7137 27.4038H24.9983V24.9359C24.9983 24.6834 24.7872 24.4788 24.5268 24.4788C24.2664 24.4788 24.0553 24.6834 24.0553 24.9359V27.4038H21.6049C21.3445 27.4038 21.1334 27.6084 21.1334 27.8609C21.1334 28.1133 21.3445 28.3179 21.6049 28.3179H29.7137C31.0138 28.3179 32.0714 27.2928 32.0714 26.0327V13.9672C32.0714 12.7071 31.0138 11.682 29.7137 11.682ZM20.2663 20.5904C20.1196 20.5002 20.0355 20.352 20.0355 20.1837V16.9816C20.0355 16.8132 20.1196 16.665 20.2662 16.5748C20.4129 16.4847 20.5872 16.4742 20.7442 16.5461L23.0578 17.604C23.0007 17.7542 22.9695 17.9163 22.9695 18.0854V19.0631C22.9695 19.2376 23.003 19.4045 23.0636 19.5586L20.7443 20.6192C20.5872 20.6909 20.413 20.6805 20.2663 20.5904ZM21.8567 23.0707L21.7269 22.6007C21.6946 22.4836 21.6156 22.3836 21.5072 22.323C21.3988 22.2623 21.2701 22.246 21.1492 22.2774L20.6692 22.4023L21.2794 21.3852L23.4527 20.3913L21.8567 23.0707ZM21.1467 15.7193C20.6981 15.5142 20.1802 15.5454 19.7614 15.8028C19.3425 16.0601 19.0924 16.5008 19.0924 16.9815V19.5429H8.87167V13.9672C8.87167 13.2111 9.50627 12.5961 10.2863 12.5961H24.0553V16.5113C24.0553 16.5869 24.0745 16.658 24.108 16.7208C23.9569 16.7521 23.8145 16.8066 23.6849 16.8801L21.1467 15.7193ZM24.6515 19.5446H24.4094C24.1354 19.5446 23.9125 19.3286 23.9125 19.0631V18.0854C23.9125 17.8198 24.1354 17.6039 24.4094 17.6039H24.6515C24.9254 17.6039 25.1483 17.8198 25.1483 18.0854V19.0631C25.1483 19.3286 24.9254 19.5446 24.6515 19.5446ZM28.4007 23.4432L27.9044 23.3141C27.7835 23.2826 27.6548 23.2991 27.5464 23.3597C27.438 23.4204 27.359 23.5203 27.3267 23.6374L27.2017 24.0902L25.0607 20.4009C25.1646 20.371 25.2635 20.33 25.3561 20.2794L26.9843 21.024L28.4007 23.4432ZM28.7874 20.5904C28.6406 20.6806 28.4664 20.6911 28.3094 20.6192L25.9962 19.5614C26.0575 19.4065 26.0914 19.2386 26.0914 19.0631V18.0854C26.0914 17.9152 26.0597 17.7521 26.002 17.6012L28.3094 16.5461C28.4665 16.4743 28.6406 16.4847 28.7874 16.5748C28.9341 16.665 29.0182 16.8132 29.0182 16.9816V20.1837C29.0182 20.352 28.9341 20.5003 28.7874 20.5904ZM31.1284 19.5429H29.9613V16.9816C29.9613 16.5009 29.7112 16.0602 29.2923 15.8028C28.8734 15.5455 28.3555 15.5143 27.9069 15.7194L25.3727 16.8782C25.2421 16.8046 25.0987 16.7502 24.9464 16.7193C24.9794 16.6569 24.9984 16.5863 24.9984 16.5113V12.5961H29.7138C30.4938 12.5961 31.1284 13.2111 31.1284 13.9672V19.5429Z" fill="#363636"/>
<path d="M19.8972 27.4537C19.8095 27.3687 19.6879 27.3198 19.5638 27.3198C19.4398 27.3198 19.3182 27.3687 19.2305 27.4537C19.1428 27.5387 19.0923 27.6567 19.0923 27.7769C19.0923 27.8971 19.1428 28.015 19.2305 28.1C19.3182 28.185 19.4398 28.2339 19.5638 28.2339C19.6879 28.2339 19.8095 28.185 19.8972 28.1C19.9854 28.015 20.0354 27.8971 20.0354 27.7769C20.0354 27.6567 19.9854 27.5387 19.8972 27.4537Z" fill="#363636"/>
<path d="M29.7137 11.682H10.2863C8.98625 11.682 7.92859 12.7071 7.92859 13.9672V26.0328C7.92859 27.2928 8.98625 28.3179 10.2863 28.3179H17.5952C17.8556 28.3179 18.0667 28.1133 18.0667 27.8609C18.0667 27.6085 17.8556 27.4039 17.5952 27.4039H10.2863C9.50627 27.4039 8.87167 26.7888 8.87167 26.0328V20.457H19.1201C19.1957 20.8279 19.4235 21.1548 19.7613 21.3624C19.8713 21.43 19.9884 21.4814 20.109 21.5176L19.2788 22.9014C19.1827 23.0614 19.1959 23.2619 19.3119 23.4089C19.428 23.5559 19.6242 23.6205 19.8087 23.5725L20.9378 23.2788L21.2399 24.3734C21.2892 24.5521 21.4447 24.6843 21.6338 24.7084C21.6545 24.7111 21.6751 24.7124 21.6956 24.7124C21.8625 24.7124 22.0189 24.6265 22.1038 24.4839L24.2537 20.8748L26.9471 25.5161C27.0313 25.6612 27.1892 25.7491 27.3579 25.7491C27.3775 25.7491 27.3973 25.7479 27.4171 25.7455C27.6073 25.7222 27.764 25.5897 27.8136 25.4102L28.1157 24.3155L29.2449 24.6092C29.4285 24.6569 29.6238 24.5932 29.7401 24.4474C29.8564 24.3017 29.871 24.1025 29.7773 23.9422L28.3906 21.5739C28.4344 21.5778 28.4783 21.5802 28.5222 21.5802C28.7902 21.5802 29.0569 21.507 29.2923 21.3624C29.6301 21.1548 29.858 20.8279 29.9335 20.457H31.1284V26.0327C31.1284 26.7888 30.4938 27.4038 29.7137 27.4038H24.9983V24.9359C24.9983 24.6834 24.7872 24.4788 24.5268 24.4788C24.2664 24.4788 24.0553 24.6834 24.0553 24.9359V27.4038H21.6049C21.3445 27.4038 21.1334 27.6084 21.1334 27.8609C21.1334 28.1133 21.3445 28.3179 21.6049 28.3179H29.7137C31.0138 28.3179 32.0714 27.2928 32.0714 26.0327V13.9672C32.0714 12.7071 31.0138 11.682 29.7137 11.682ZM20.2663 20.5904C20.1196 20.5002 20.0355 20.352 20.0355 20.1837V16.9816C20.0355 16.8132 20.1196 16.665 20.2662 16.5748C20.4129 16.4847 20.5872 16.4742 20.7442 16.5461L23.0578 17.604C23.0007 17.7542 22.9695 17.9163 22.9695 18.0854V19.0631C22.9695 19.2376 23.003 19.4045 23.0636 19.5586L20.7443 20.6192C20.5872 20.6909 20.413 20.6805 20.2663 20.5904ZM21.8567 23.0707L21.7269 22.6007C21.6946 22.4836 21.6156 22.3836 21.5072 22.323C21.3988 22.2623 21.2701 22.246 21.1492 22.2774L20.6692 22.4023L21.2794 21.3852L23.4527 20.3913L21.8567 23.0707ZM21.1467 15.7193C20.6981 15.5142 20.1802 15.5454 19.7614 15.8028C19.3425 16.0601 19.0924 16.5008 19.0924 16.9815V19.5429H8.87167V13.9672C8.87167 13.2111 9.50627 12.5961 10.2863 12.5961H24.0553V16.5113C24.0553 16.5869 24.0745 16.658 24.108 16.7208C23.9569 16.7521 23.8145 16.8066 23.6849 16.8801L21.1467 15.7193ZM24.6515 19.5446H24.4094C24.1354 19.5446 23.9125 19.3286 23.9125 19.0631V18.0854C23.9125 17.8198 24.1354 17.6039 24.4094 17.6039H24.6515C24.9254 17.6039 25.1483 17.8198 25.1483 18.0854V19.0631C25.1483 19.3286 24.9254 19.5446 24.6515 19.5446ZM28.4007 23.4432L27.9044 23.3141C27.7835 23.2826 27.6548 23.2991 27.5464 23.3597C27.438 23.4204 27.359 23.5203 27.3267 23.6374L27.2017 24.0902L25.0607 20.4009C25.1646 20.371 25.2635 20.33 25.3561 20.2794L26.9843 21.024L28.4007 23.4432ZM28.7874 20.5904C28.6406 20.6806 28.4664 20.6911 28.3094 20.6192L25.9962 19.5614C26.0575 19.4065 26.0914 19.2386 26.0914 19.0631V18.0854C26.0914 17.9152 26.0597 17.7521 26.002 17.6012L28.3094 16.5461C28.4665 16.4743 28.6406 16.4847 28.7874 16.5748C28.9341 16.665 29.0182 16.8132 29.0182 16.9816V20.1837C29.0182 20.352 28.9341 20.5003 28.7874 20.5904ZM31.1284 19.5429H29.9613V16.9816C29.9613 16.5009 29.7112 16.0602 29.2923 15.8028C28.8734 15.5455 28.3555 15.5143 27.9069 15.7194L25.3727 16.8782C25.2421 16.8046 25.0987 16.7502 24.9464 16.7193C24.9794 16.6569 24.9984 16.5863 24.9984 16.5113V12.5961H29.7138C30.4938 12.5961 31.1284 13.2111 31.1284 13.9672V19.5429Z" stroke="#363636" stroke-width="0.4"/>
<path d="M19.8972 27.4537C19.8095 27.3687 19.6879 27.3198 19.5638 27.3198C19.4398 27.3198 19.3182 27.3687 19.2305 27.4537C19.1428 27.5387 19.0923 27.6567 19.0923 27.7769C19.0923 27.8971 19.1428 28.015 19.2305 28.1C19.3182 28.185 19.4398 28.2339 19.5638 28.2339C19.6879 28.2339 19.8095 28.185 19.8972 28.1C19.9854 28.015 20.0354 27.8971 20.0354 27.7769C20.0354 27.6567 19.9854 27.5387 19.8972 27.4537Z" stroke="#363636" stroke-width="0.4"/>
</g>
</g>
<defs>
<clipPath id="clip0_365_2726">
<rect width="40" height="40" fill="white"/>
</clipPath>
<clipPath id="clip1_365_2726">
<rect width="26" height="18" fill="white" transform="translate(7 11)"/>
</clipPath>
</defs>
</svg>
