<svg width="24" height="24" viewBox="0 0 24 24" fill="none" xmlns="http://www.w3.org/2000/svg">
<path d="M8.25 6H20.25" stroke="#333333" stroke-width="1.5" stroke-linecap="round" stroke-linejoin="round"/>
<path d="M8.25049 12H20.2499" stroke="#333333" stroke-width="1.5" stroke-linecap="round" stroke-linejoin="round"/>
<path d="M8.25049 18H20.2499" stroke="#333333" stroke-width="1.5" stroke-linecap="round" stroke-linejoin="round"/>
<path d="M4.125 6.9375C4.64277 6.9375 5.0625 6.51777 5.0625 6C5.0625 5.48223 4.64277 5.0625 4.125 5.0625C3.60723 5.0625 3.1875 5.48223 3.1875 6C3.1875 6.51777 3.60723 6.9375 4.125 6.9375Z" fill="#333333"/>
<path d="M4.125 18.9375C4.64277 18.9375 5.0625 18.5178 5.0625 18C5.0625 17.4822 4.64277 17.0625 4.125 17.0625C3.60723 17.0625 3.1875 17.4822 3.1875 18C3.1875 18.5178 3.60723 18.9375 4.125 18.9375Z" fill="#333333"/>
<path d="M4.125 12.9375C4.64277 12.9375 5.0625 12.5178 5.0625 12C5.0625 11.4822 4.64277 11.0625 4.125 11.0625C3.60723 11.0625 3.1875 11.4822 3.1875 12C3.1875 12.5178 3.60723 12.9375 4.125 12.9375Z" fill="#333333"/>
</svg>
