<svg width="26" height="26" viewBox="0 0 26 26" fill="none" xmlns="http://www.w3.org/2000/svg">
<path fill-rule="evenodd" clip-rule="evenodd" d="M4.07935 25.2383C4.07935 24.8176 4.42038 24.4766 4.84106 24.4766H21.1588C21.5795 24.4766 21.9205 24.8176 21.9205 25.2383C21.9205 25.659 21.5795 26 21.1588 26H4.84106C4.42038 26 4.07935 25.659 4.07935 25.2383Z" fill="#00B14F"/>
<path fill-rule="evenodd" clip-rule="evenodd" d="M12.9999 1.52344C9.81582 1.52344 7.23459 4.10467 7.23459 7.28879C7.23459 10.4729 9.81582 13.0541 12.9999 13.0541C16.184 13.0541 18.7653 10.4729 18.7653 7.28879C18.7653 4.10467 16.184 1.52344 12.9999 1.52344ZM5.71115 7.28879C5.71115 3.2633 8.97445 0 12.9999 0C17.0254 0 20.2887 3.2633 20.2887 7.28879C20.2887 11.3143 17.0254 14.5776 12.9999 14.5776C8.97445 14.5776 5.71115 11.3143 5.71115 7.28879Z" fill="#00B14F"/>
<path fill-rule="evenodd" clip-rule="evenodd" d="M4.84106 15.5018V16.2635C4.84106 15.5018 4.84106 15.5018 4.84106 15.5018H7.28953C9.00605 15.5018 10.6523 16.1837 11.866 17.3974C13.0797 18.6112 13.7617 20.2574 13.7617 21.9739V21.9747C13.7617 22.3954 13.4206 22.7364 12.9999 22.7364V21.9747C12.9999 22.7364 12.9999 22.7364 12.9999 22.7364H10.5515C8.83495 22.7364 7.1887 22.0545 5.97498 20.8408C4.76127 19.627 4.07935 17.9809 4.07935 16.2643V16.2635C4.07935 15.8428 4.42038 15.5018 4.84106 15.5018ZM12.1794 21.213C12.019 20.1823 11.5355 19.2215 10.7888 18.4747C10.7888 18.4747 10.7888 18.4747 10.7888 18.4747M10.7888 18.4747C9.86076 17.5466 8.60201 17.0252 7.28953 17.0252H5.66161C5.822 18.0559 6.30546 19.0168 7.05221 19.7636C7.98024 20.6916 9.23899 21.213 10.5515 21.213H12.1794" fill="#00B14F"/>
<path fill-rule="evenodd" clip-rule="evenodd" d="M12.9999 21.9747V22.7364C12.5792 22.7364 12.2382 22.3954 12.2382 21.9747C12.2382 18.3998 15.1362 15.5018 18.7112 15.5018H21.1588C21.1588 15.5018 21.1588 15.5018 21.1588 16.2635L21.1588 15.5018C21.5794 15.5018 21.9205 15.8428 21.9205 16.2635C21.9205 19.8384 19.0225 22.7364 15.4476 22.7364H12.9999C12.9999 22.7364 12.9999 22.7364 12.9999 21.9747ZM20.3388 17.0252H18.7112C16.2366 17.0252 14.1863 18.8411 13.8199 21.213H15.4476C17.9221 21.213 19.9725 19.3971 20.3388 17.0252Z" fill="#00B14F"/>
<path fill-rule="evenodd" clip-rule="evenodd" d="M12.9999 13.0541C13.4206 13.0541 13.7617 13.3952 13.7617 13.8159V25.2383C13.7617 25.659 13.4206 26 12.9999 26C12.5792 26 12.2382 25.659 12.2382 25.2383V13.8159C12.2382 13.3952 12.5792 13.0541 12.9999 13.0541Z" fill="#00B14F"/>
<path fill-rule="evenodd" clip-rule="evenodd" d="M14.5539 3.83646C15.1128 4.00126 15.7295 4.29881 16.0814 4.82657C16.3147 5.1766 16.2202 5.64953 15.8701 5.88289C15.5201 6.11625 15.0472 6.02167 14.8138 5.67164C14.7577 5.58749 14.5585 5.4261 14.1231 5.29769C13.7162 5.17774 13.2153 5.12104 12.7286 5.14316C12.2334 5.16567 11.8209 5.26648 11.5603 5.4052C11.3135 5.53659 11.3139 5.62886 11.314 5.65548C11.314 5.65603 11.314 5.65654 11.314 5.65703C11.314 5.66057 11.3142 5.66098 11.3147 5.66235C11.3148 5.6625 11.3149 5.66266 11.3149 5.66284C11.3163 5.66634 11.3231 5.68177 11.3459 5.70889C11.3966 5.7693 11.4996 5.85587 11.6871 5.96002C12.071 6.17331 12.6074 6.35501 13.2408 6.56616C13.2546 6.57076 13.2684 6.57537 13.2823 6.57999C13.8632 6.77356 14.5311 6.99613 15.0526 7.28585C15.5581 7.56664 16.2093 8.06816 16.2093 8.92059C16.2093 9.71205 15.6938 10.2306 15.1553 10.5173C14.6256 10.7992 13.9671 10.9279 13.3405 10.9563C12.7054 10.9852 12.0335 10.9144 11.4459 10.7412C10.887 10.5764 10.2703 10.2788 9.9185 9.75105C9.68514 9.40102 9.77972 8.92809 10.1297 8.69473C10.4798 8.46137 10.9527 8.55595 11.1861 8.90598C11.2422 8.99014 11.4414 9.15153 11.8768 9.27994C12.2836 9.3999 12.7846 9.4566 13.2713 9.43448C13.7665 9.41198 14.1789 9.31116 14.4395 9.17244C14.6864 9.04106 14.686 8.94878 14.6859 8.92214C14.6859 8.92159 14.6859 8.92108 14.6859 8.92059C14.6859 8.91704 14.6857 8.91663 14.6851 8.91525C14.6851 8.9151 14.685 8.91494 14.6849 8.91476C14.6836 8.91126 14.6768 8.89583 14.654 8.86871C14.6032 8.80829 14.5003 8.72173 14.3128 8.61757C13.9289 8.40427 13.3925 8.22257 12.7591 8.01142C12.7453 8.00682 12.7314 8.00221 12.7175 7.99758C12.1366 7.80402 11.4687 7.58145 10.9473 7.29175C10.4418 7.01097 9.79056 6.50946 9.79056 5.65703C9.79056 4.86558 10.306 4.34701 10.8445 4.06039C11.3743 3.77842 12.0327 3.64978 12.6594 3.62129C13.2945 3.59242 13.9664 3.6632 14.5539 3.83646Z" fill="#00B14F"/>
<path fill-rule="evenodd" clip-rule="evenodd" d="M12.9999 2.85558C13.4206 2.85558 13.7617 3.19662 13.7617 3.6173V4.37673C13.7617 4.79742 13.4206 5.13845 12.9999 5.13845C12.5792 5.13845 12.2382 4.79742 12.2382 4.37673V3.6173C12.2382 3.19662 12.5792 2.85558 12.9999 2.85558Z" fill="#00B14F"/>
<path fill-rule="evenodd" clip-rule="evenodd" d="M12.9999 9.43912C13.4206 9.43912 13.7617 9.78015 13.7617 10.2008V10.9603C13.7617 11.381 13.4206 11.722 12.9999 11.722C12.5792 11.722 12.2382 11.381 12.2382 10.9603V10.2008C12.2382 9.78015 12.5792 9.43912 12.9999 9.43912Z" fill="#00B14F"/>
</svg>
