<svg width="25" height="25" viewBox="0 0 25 25" fill="none" xmlns="http://www.w3.org/2000/svg">
<rect width="25" height="25" rx="7.5" fill="white"/>
<g clip-path="url(#clip0_13486_8148)">
<path d="M4.41602 4.09668C4.73971 4.0888 5.73092 4.07872 6.7832 4.21191C7.30956 4.27854 7.84209 4.38014 8.30957 4.53223C8.78168 4.68583 9.15952 4.88231 9.40332 5.12109C10.5737 6.26729 10.5735 8.12897 9.40332 9.27441C8.22916 10.424 6.31498 10.4241 5.14062 9.27441C4.89734 9.03619 4.69733 8.66802 4.54102 8.20801C4.38617 7.75226 4.28289 7.23284 4.21484 6.71875C4.07885 5.69116 4.09002 4.72229 4.09863 4.40332C4.10312 4.24323 4.23632 4.1026 4.41699 4.09766L4.41602 4.09668Z" stroke="#363636" stroke-width="0.6875"/>
<path d="M20.583 4.0957V4.09668C20.7405 4.10099 20.8635 4.20892 20.8945 4.34375L20.9014 4.40234C20.91 4.72025 20.9214 5.68949 20.7852 6.71777C20.717 7.23204 20.613 7.75208 20.458 8.20801C20.3017 8.66785 20.1025 9.03617 19.8594 9.27441C18.6852 10.4242 16.7707 10.4242 15.5967 9.27441C14.4266 8.12875 14.4264 6.26655 15.5967 5.12012C15.8403 4.88145 16.2178 4.68552 16.6895 4.53223C17.1568 4.38041 17.6895 4.2793 18.2158 4.21289C19.2646 4.08056 20.2529 4.0897 20.583 4.0957Z" fill="white" stroke="#363636" stroke-width="0.6875"/>
<path d="M17.3285 7.40654L17.3299 7.40513C17.3592 7.3746 17.4068 7.37539 17.4362 7.40774C17.4655 7.44009 17.4639 7.48995 17.4349 7.5208L13.0854 12.0706L13.0848 12.0713C13.0555 12.1021 13.0073 12.1019 12.9778 12.0694C12.9487 12.0371 12.9497 11.9864 12.9784 11.9556L17.3285 7.40654Z" fill="#00B14F" stroke="#363636" stroke-width="0.62496"/>
<path d="M7.46052 7.40654L7.45918 7.40513C7.42988 7.3746 7.38226 7.37539 7.35288 7.40774C7.32357 7.44009 7.32518 7.48995 7.35413 7.5208L11.7036 12.0706L11.7043 12.0713C11.7336 12.1021 11.7818 12.1019 11.8113 12.0694C11.8403 12.0371 11.8394 11.9864 11.8107 11.9556L7.46052 7.40654Z" fill="#00B14F" stroke="#363636" stroke-width="0.62496"/>
<circle cx="12.5" cy="16.25" r="4.625" fill="white" stroke="#00B14F" stroke-width="0.75"/>
<circle cx="12.5" cy="16.25" r="2.75" fill="white" stroke="#00B14F" stroke-width="0.75"/>
</g>
<defs>
<clipPath id="clip0_13486_8148">
<rect width="17.5" height="17.5" fill="white" transform="translate(3.75 3.75)"/>
</clipPath>
</defs>
</svg>
