<svg width="40" height="40" viewBox="0 0 40 40" fill="none" xmlns="http://www.w3.org/2000/svg">
<circle cx="20" cy="20" r="20" fill="white"/>
<g clip-path="url(#clip0_16769:23113)">
<path d="M18.3001 23.4524H9.43506V11.3848C9.43506 11.0452 9.71026 10.77 10.0499 10.77H18.9149V22.8376C18.9149 23.1772 18.6397 23.4524 18.3001 23.4524Z" fill="#EEEEEE"/>
<path d="M17.5565 18.1549H10.7927C10.623 18.1549 10.4851 18.0173 10.4851 17.8473C10.4851 17.6776 10.623 17.54 10.7927 17.54H17.5565C17.7265 17.54 17.8641 17.6776 17.8641 17.8473C17.8641 18.0173 17.7265 18.1549 17.5565 18.1549Z" fill="#D1D3D4"/>
<path d="M14.875 19.5723H10.7927C10.623 19.5723 10.4851 19.4347 10.4851 19.2648C10.4851 19.0951 10.623 18.9575 10.7927 18.9575H14.875C15.0449 18.9575 15.1825 19.0951 15.1825 19.2648C15.1825 19.4347 15.0449 19.5723 14.875 19.5723Z" fill="#D1D3D4"/>
<path d="M17.5567 19.5723H15.9001C15.7301 19.5723 15.5925 19.4347 15.5925 19.2648C15.5925 19.0951 15.7301 18.9575 15.9001 18.9575H17.5567C17.7267 18.9575 17.8643 19.0951 17.8643 19.2648C17.8643 19.4347 17.7267 19.5723 17.5567 19.5723Z" fill="#D1D3D4"/>
<path d="M14.6233 14.5165H10.7929C10.6233 14.5165 10.4854 14.3789 10.4854 14.2089C10.4854 14.039 10.6233 13.9014 10.7929 13.9014H14.6233C14.7933 13.9014 14.9309 14.039 14.9309 14.2089C14.9309 14.3789 14.7933 14.5165 14.6233 14.5165Z" fill="#D1D3D4"/>
<path d="M17.5565 15.934H10.7927C10.623 15.934 10.4851 15.7964 10.4851 15.6264C10.4851 15.4564 10.623 15.3188 10.7927 15.3188H17.5565C17.7265 15.3188 17.8641 15.4564 17.8641 15.6264C17.8641 15.7964 17.7265 15.934 17.5565 15.934Z" fill="#D1D3D4"/>
<path d="M12.5264 20.9901H10.7927C10.623 20.9901 10.4851 20.8525 10.4851 20.6826C10.4851 20.5129 10.623 20.375 10.7927 20.375H12.5264C12.6964 20.375 12.834 20.5129 12.834 20.6826C12.834 20.8525 12.6964 20.9901 12.5264 20.9901Z" fill="#D1D3D4"/>
<path d="M20.3495 12.205H18.9148V10.77H19.7347C20.0743 10.77 20.3495 11.0455 20.3495 11.3851V12.205Z" fill="#EEEEEE"/>
<path d="M20.3495 12.205H18.9148V11.3848C18.9148 11.0452 19.1903 10.77 19.5296 10.77H19.7347C20.0743 10.77 20.3495 11.0452 20.3495 11.3848V12.205Z" fill="#D1D3D4"/>
<path d="M19.7344 10.77H19.5293C19.2248 10.77 18.9726 10.9917 18.9236 11.2823H19.7341C20.0737 11.2823 20.3489 11.5578 20.3489 11.8971V11.3848C20.3492 11.0452 20.074 10.77 19.7344 10.77Z" fill="#BCBEC0"/>
<path d="M8.00024 22.0176H17.8899V23.4523H8.61506C8.27575 23.4523 8.00024 23.1771 8.00024 22.8374V22.0176Z" fill="#E6E7E8"/>
<path d="M8.00024 22.3247V22.837C8.00024 23.1766 8.27544 23.4518 8.61506 23.4518H17.8899V22.9395H8.61506C8.27544 22.9398 8.00024 22.6643 8.00024 22.3247V22.3247Z" fill="#D1D3D4"/>
<path d="M17.4797 22.0176H18.9147V22.8374C18.9147 23.1771 18.6392 23.4523 18.2999 23.4523H18.0948C17.7552 23.4523 17.4797 23.1771 17.4797 22.8374V22.0176Z" fill="#EEEEEE"/>
<path d="M29.95 29.2298H21.0852V17.1622C21.0852 16.8226 21.3604 16.5474 21.7 16.5474H30.5651V28.6147C30.5651 28.9543 30.2896 29.2298 29.95 29.2298Z" fill="#EEEEEE"/>
<path d="M29.2074 23.932H22.4435C22.2736 23.932 22.136 23.7941 22.136 23.6244C22.136 23.4545 22.2736 23.3169 22.4435 23.3169H29.2074C29.3774 23.3169 29.515 23.4545 29.515 23.6244C29.515 23.7941 29.3774 23.932 29.2074 23.932Z" fill="#D1D3D4"/>
<path d="M26.5259 25.3492H22.4435C22.2736 25.3492 22.136 25.2116 22.136 25.0419C22.136 24.872 22.2736 24.7344 22.4435 24.7344H26.5259C26.6955 24.7344 26.8331 24.872 26.8331 25.0419C26.8331 25.2116 26.6955 25.3492 26.5259 25.3492V25.3492Z" fill="#D1D3D4"/>
<path d="M29.2071 25.3492H27.5505C27.3805 25.3492 27.2429 25.2116 27.2429 25.0419C27.2429 24.872 27.3805 24.7344 27.5505 24.7344H29.2071C29.3771 24.7344 29.5146 24.872 29.5146 25.0419C29.5146 25.2116 29.3771 25.3492 29.2071 25.3492Z" fill="#D1D3D4"/>
<path d="M26.274 20.2943H22.4435C22.2736 20.2943 22.136 20.1564 22.136 19.9868C22.136 19.8168 22.2736 19.6792 22.4435 19.6792H26.274C26.4436 19.6792 26.5812 19.8168 26.5812 19.9868C26.5812 20.1564 26.4436 20.2943 26.274 20.2943Z" fill="#D1D3D4"/>
<path d="M29.2074 21.7115H22.4435C22.2736 21.7115 22.136 21.5739 22.136 21.4042C22.136 21.2343 22.2736 21.0967 22.4435 21.0967H29.2074C29.3774 21.0967 29.515 21.2343 29.515 21.4042C29.515 21.5739 29.3774 21.7115 29.2074 21.7115Z" fill="#D1D3D4"/>
<path d="M24.1773 26.7672H22.4435C22.2736 26.7672 22.136 26.6296 22.136 26.4596C22.136 26.2899 22.2736 26.1523 22.4435 26.1523H24.1773C24.347 26.1523 24.4846 26.2899 24.4846 26.4596C24.4846 26.6299 24.347 26.7672 24.1773 26.7672V26.7672Z" fill="#D1D3D4"/>
<path d="M31.9999 17.982H30.5652V16.5474H31.3851C31.7244 16.5474 31.9999 16.8226 31.9999 17.1622V17.982Z" fill="white"/>
<path d="M31.9999 17.982H30.5652V17.1622C30.5652 16.8226 30.8404 16.5474 31.18 16.5474H31.3851C31.7244 16.5474 31.9999 16.8226 31.9999 17.1622V17.982Z" fill="#D1D3D4"/>
<path d="M31.3852 16.5474H31.1802C30.8757 16.5474 30.6235 16.769 30.5745 17.0597H31.3852C31.7246 17.0597 32.0001 17.3349 32.0001 17.6745V17.1622C32.0001 16.8226 31.7246 16.5474 31.3852 16.5474Z" fill="#BCBEC0"/>
<path d="M19.6504 27.7949H29.5403V29.2296H20.2655C19.9259 29.2296 19.6507 28.9544 19.6507 28.6148V27.7949H19.6504Z" fill="#E6E7E8"/>
<path d="M19.6504 28.1025V28.6148C19.6504 28.9545 19.9259 29.2297 20.2652 29.2297H29.54V28.7174H20.2652C19.9259 28.7174 19.6504 28.4422 19.6504 28.1025V28.1025Z" fill="#D1D3D4"/>
<path d="M29.1304 27.7949H30.565V28.6148C30.565 28.9544 30.2898 29.2296 29.9502 29.2296H29.7452C29.4056 29.2296 29.1304 28.9544 29.1304 28.6148V27.7949Z" fill="#EEEEEE"/>
<path d="M25.5058 15.2377V14.2702H22.8001C22.2452 14.2702 21.7952 13.8202 21.7952 13.2653C21.7952 12.7104 22.2452 12.2607 22.8001 12.2607H25.5058V11.2933C25.5058 10.7371 26.15 10.4293 26.5827 10.7782L29.029 12.7503C29.3571 13.0152 29.3571 13.5157 29.029 13.7806L26.5827 15.753C26.15 16.102 25.5058 15.7938 25.5058 15.2377V15.2377Z" fill="#00B14F"/>
<path d="M13.4171 24.2469L10.9712 26.2193C10.6427 26.4839 10.6427 26.9844 10.9712 27.2493L13.4171 29.2217C13.8499 29.5707 14.494 29.2625 14.494 28.7067V27.7392H17.1997C17.7547 27.7392 18.2047 27.2892 18.2047 26.7343C18.2047 26.1794 17.7547 25.7294 17.1997 25.7294H14.4943V24.762C14.4943 24.2061 13.8502 23.8979 13.4171 24.2469V24.2469Z" fill="#F46666"/>
<path d="M13.417 28.3537L10.9711 26.3813C10.9405 26.3565 10.9157 26.3284 10.8909 26.3003C10.6484 26.5764 10.6729 27.0089 10.9711 27.249L13.417 29.2213C13.8498 29.5703 14.4939 29.2622 14.4939 28.7063V27.8387C14.4942 28.3945 13.8501 28.7027 13.417 28.3537V28.3537Z" fill="#F46666"/>
</g>
<defs>
<clipPath id="clip0_16769:23113">
<rect width="24" height="24" fill="white" transform="translate(8 8)"/>
</clipPath>
</defs>
</svg>
