<svg width="24" height="24" viewBox="0 0 24 24" fill="none" xmlns="http://www.w3.org/2000/svg">
<g clip-path="url(#clip0_492_2747)">
<path d="M22.5056 4H1.49435C0.669045 4 0 4.60973 0 5.36186V5.63814C0 6.39027 0.669045 7 1.49435 7H22.5056C23.331 7 24 6.39027 24 5.63814V5.36186C24 4.60973 23.331 4 22.5056 4Z" fill="#00B14F"/>
<path d="M11.7561 0C6.81291 0 2.27866 2.07371 1 5H22C20.7213 2.07371 16.2993 0 11.7561 0Z" fill="#00B14F"/>
<path d="M23.2492 19.7287C23.7116 17.1836 23.9573 15.1977 24 13.5831C23.9623 12.0867 23.9943 10.3285 23.1254 8C23.0023 8.01579 22.8778 8.02373 22.7532 8.02374H1.24685C1.12215 8.02373 0.997666 8.01579 0.874642 8C0.00641721 10.3285 0.0396363 12.0867 0 13.5831C0.0426563 15.1977 0.288402 17.1836 0.750826 19.7287C0.796879 19.9819 0.715342 20.2398 0.578691 20.4725C0.235553 21.0587 -0.302368 22.2896 0.706282 23.0238C1.5545 23.6392 2.53446 23.4862 3.15052 23.2837C3.5958 23.1387 4.09205 23.118 4.55478 23.2251C5.80918 23.5129 8.46368 24.0018 12 24C15.5363 23.9982 18.1908 23.5129 19.4452 23.2263C19.9079 23.1192 20.4042 23.1399 20.8495 23.2849C21.4655 23.4874 22.4455 23.6419 23.2937 23.0249C24.3024 22.2922 23.7644 21.0587 23.4213 20.4737C23.2847 20.2398 23.2031 19.9819 23.2492 19.7287Z" fill="#00B14F"/>
<path d="M17.6222 11.31C17.6222 11.31 15.6248 11.4815 14.7332 12.2109C13.8412 12.9408 13.7716 13.6516 14.266 14.0556C14.7603 14.4595 15.6292 14.4026 16.5208 13.6734C17.4125 12.9441 17.6222 11.31 17.6222 11.31Z" fill="white"/>
<path d="M12.1817 11C12.1817 11 10.6205 12.0332 10.3577 13.0425C10.0953 14.0516 10.5091 14.6789 11.1933 14.7979C11.8775 14.9169 12.5704 14.4821 12.8318 13.473C13.0931 12.464 12.1817 11 12.1817 11Z" fill="white"/>
<path d="M8.90431 13.6813C8.90431 13.6813 7.34309 14.7146 7.08036 15.7236L7.07927 15.7243C6.81681 16.7336 7.2342 17.3602 7.91704 17.4792C8.59987 17.5982 9.293 17.1634 9.55437 16.1544C9.81575 15.1453 8.90431 13.6813 8.90431 13.6813Z" fill="white"/>
<path d="M7.44728 19.7317C7.51869 19.7706 7.60262 19.7913 7.68843 19.7911C7.74539 19.7912 7.80181 19.7821 7.85443 19.7643C7.90706 19.7464 7.95484 19.7202 7.99504 19.6872L14.2313 14.5854C13.9745 14.4676 13.7626 14.2941 13.6189 14.0839L7.38128 19.1858C7.32057 19.2354 7.27923 19.2986 7.2625 19.3675C7.24576 19.4363 7.25439 19.5077 7.28729 19.5725C7.32018 19.6374 7.37587 19.6928 7.44728 19.7317Z" fill="white"/>
<path d="M10.0804 19.2514C10.2258 19.81 10.9926 20.1497 12.2261 19.935C13.4599 19.72 14.7226 18.4437 14.7226 18.4437C14.7226 18.4437 12.9333 17.6968 11.6998 17.9119C10.4664 18.1271 9.93493 18.6928 10.0804 19.2514Z" fill="white"/>
<path d="M13.3578 16.5703C13.5032 17.1289 14.27 17.4686 15.5035 17.2538L15.5046 17.253C16.7381 17.038 18 15.7626 18 15.7626C18 15.7626 16.2107 15.0159 14.9772 15.2308C13.7437 15.4458 13.2123 16.0117 13.3578 16.5703Z" fill="white"/>
</g>
<defs>
<clipPath id="clip0_492_2747">
<rect width="24" height="24" fill="white"/>
</clipPath>
</defs>
</svg>
