<svg width="40" height="40" viewBox="0 0 40 40" fill="none" xmlns="http://www.w3.org/2000/svg">
<circle cx="20" cy="20" r="20" fill="white"/>
<path d="M23.9089 20.123L31.9999 25.238V14.792L23.9089 20.123Z" fill="#41AFFF"/>
<path d="M8 14.792V25.238L16.091 20.123L8 14.792Z" fill="#41AFFF"/>
<path d="M30.5 11.75H9.50004C8.75154 11.75 8.15754 12.308 8.04504 13.0265L20 20.903L31.955 13.0265C31.8425 12.308 31.2485 11.75 30.5 11.75Z" fill="#41AFFF"/>
<path d="M22.5351 21.029L20.4126 22.427C20.2866 22.5095 20.1441 22.55 20.0001 22.55C19.8561 22.55 19.7136 22.5095 19.5876 22.427L17.4651 21.0275L8.0481 26.984C8.1636 27.6965 8.7546 28.25 9.5001 28.25H30.5001C31.2456 28.25 31.8366 27.6965 31.9521 26.984L22.5351 21.029Z" fill="#41AFFF"/>
</svg>
