<svg width="24" height="24" viewBox="0 0 24 24" fill="none" xmlns="http://www.w3.org/2000/svg">
<g clip-path="url(#clip0_492_2033)">
<path d="M1.49435 4.5H22.5056C23.0995 4.5 23.5 4.92854 23.5 5.36186V5.63814C23.5 6.07146 23.0995 6.5 22.5056 6.5H1.49435C0.900488 6.5 0.5 6.07146 0.5 5.63814V5.36186C0.5 4.92854 0.900488 4.5 1.49435 4.5Z" stroke="#A5A5A5"/>
<path d="M1.84436 4.5C2.5325 3.47265 3.70047 2.55653 5.21379 1.85643C7.05377 1.00521 9.35068 0.5 11.7561 0.5C13.9557 0.5 16.1224 1.00282 17.885 1.853C19.3353 2.55247 20.477 3.46905 21.1586 4.5H1.84436Z" stroke="#A5A5A5"/>
<path d="M1.24685 8.52374H1.24682C1.23734 8.52374 1.22785 8.5237 1.21837 8.52362C0.57176 10.4133 0.538476 11.8963 0.508605 13.2271C0.505916 13.3469 0.503255 13.4655 0.500176 13.583C0.542848 15.1587 0.783652 17.1124 1.24276 19.6392L1.24685 8.52374ZM1.24685 8.52374H22.7532C22.7627 8.52374 22.7722 8.5237 22.7817 8.52362C23.4314 10.4203 23.4634 11.9074 23.4921 13.2415C23.4946 13.3563 23.497 13.47 23.4998 13.5827M1.24685 8.52374L23.4998 13.5827M2.99438 22.8087L2.99568 22.8083C3.52842 22.6348 4.11686 22.6107 4.66659 22.7378L2.99438 22.8087ZM2.99438 22.8087C2.43238 22.9935 1.65254 23.0925 1.00007 22.6192C0.67386 22.3815 0.595851 22.0857 0.632649 21.7466C0.672614 21.3782 0.851272 20.9966 1.01001 20.7254M2.99438 22.8087L1.01001 20.7254M21.0043 22.8095L21.0056 22.8099C21.5684 22.9949 22.3476 23.0948 22.9996 22.6206L22.9999 22.6204C23.3259 22.3836 23.4042 22.0878 23.3673 21.7478C23.3274 21.3789 23.1485 20.9968 22.99 20.7267L22.9896 20.7259C22.8216 20.4384 22.6815 20.0561 22.7572 19.6393L21.0043 22.8095ZM21.0043 22.8095C20.4715 22.6359 19.883 22.6119 19.3332 22.739C18.1071 23.0191 15.4908 23.4983 11.9998 23.5C8.5088 23.5017 5.89254 23.019 4.66665 22.7378L21.0043 22.8095ZM23.4998 13.5827C23.4572 15.1584 23.2164 17.1122 22.7572 19.6392L23.4998 13.5827ZM1.01001 20.7254C1.17859 20.4383 1.31851 20.0559 1.24277 19.6393L1.01001 20.7254Z" stroke="#A5A5A5"/>
<path d="M17.6222 11.31C17.6222 11.31 15.6248 11.4815 14.7332 12.2109C13.8412 12.9408 13.7716 13.6516 14.266 14.0556C14.7603 14.4595 15.6292 14.4026 16.5208 13.6734C17.4125 12.9441 17.6222 11.31 17.6222 11.31Z" fill="#A5A5A5"/>
<path d="M12.1817 11C12.1817 11 10.6205 12.0332 10.3577 13.0425C10.0953 14.0516 10.5091 14.6789 11.1933 14.7979C11.8775 14.9169 12.5704 14.4821 12.8318 13.473C13.0931 12.464 12.1817 11 12.1817 11Z" fill="#A5A5A5"/>
<path d="M8.90431 13.6813C8.90431 13.6813 7.34309 14.7146 7.08036 15.7236L7.07927 15.7243C6.81681 16.7336 7.2342 17.3602 7.91704 17.4792C8.59987 17.5982 9.293 17.1634 9.55437 16.1544C9.81575 15.1453 8.90431 13.6813 8.90431 13.6813Z" fill="#A5A5A5"/>
<path d="M7.44728 19.7317C7.51869 19.7706 7.60262 19.7913 7.68843 19.7911C7.74539 19.7912 7.80181 19.7821 7.85443 19.7643C7.90706 19.7464 7.95484 19.7202 7.99504 19.6872L14.2313 14.5854C13.9745 14.4676 13.7626 14.2941 13.6189 14.0839L7.38128 19.1858C7.32057 19.2354 7.27923 19.2986 7.2625 19.3675C7.24576 19.4363 7.25439 19.5077 7.28729 19.5725C7.32018 19.6374 7.37587 19.6928 7.44728 19.7317Z" fill="#A5A5A5"/>
<path d="M10.0804 19.2514C10.2258 19.81 10.9926 20.1497 12.2261 19.935C13.4599 19.72 14.7226 18.4437 14.7226 18.4437C14.7226 18.4437 12.9333 17.6968 11.6998 17.9119C10.4664 18.1271 9.93493 18.6928 10.0804 19.2514Z" fill="#A5A5A5"/>
<path d="M13.3578 16.5703C13.5032 17.1289 14.27 17.4686 15.5035 17.2538L15.5046 17.253C16.7381 17.038 18 15.7626 18 15.7626C18 15.7626 16.2107 15.0159 14.9772 15.2308C13.7437 15.4458 13.2123 16.0117 13.3578 16.5703Z" fill="#A5A5A5"/>
</g>
<defs>
<clipPath id="clip0_492_2033">
<rect width="24" height="24" fill="white"/>
</clipPath>
</defs>
</svg>
