<svg width="20" height="20" viewBox="0 0 20 20" fill="none" xmlns="http://www.w3.org/2000/svg">
<path d="M10 1.875C8.39303 1.875 6.82214 2.35152 5.486 3.24431C4.14985 4.1371 3.10844 5.40605 2.49348 6.8907C1.87852 8.37535 1.71762 10.009 2.03112 11.5851C2.34463 13.1612 3.11846 14.6089 4.25476 15.7452C5.39106 16.8815 6.8388 17.6554 8.4149 17.9689C9.99099 18.2824 11.6247 18.1215 13.1093 17.5065C14.594 16.8916 15.8629 15.8502 16.7557 14.514C17.6485 13.1779 18.125 11.607 18.125 10C18.1225 7.84588 17.2657 5.7807 15.7425 4.25751C14.2193 2.73431 12.1541 1.87749 10 1.875ZM13.7019 10.2386C13.6706 10.3149 13.6244 10.3843 13.5661 10.4427L10.9155 13.0933C10.7983 13.2103 10.6394 13.2759 10.4738 13.2758C10.3081 13.2757 10.1493 13.2099 10.0322 13.0928C9.9151 12.9757 9.84926 12.8169 9.84917 12.6512C9.84909 12.4856 9.91475 12.3267 10.0317 12.2095L11.6162 10.625H6.875C6.70924 10.625 6.55027 10.5592 6.43306 10.4419C6.31585 10.3247 6.25 10.1658 6.25 10C6.25 9.83424 6.31585 9.67527 6.43306 9.55806C6.55027 9.44085 6.70924 9.375 6.875 9.375H11.6162L10.0317 7.79053C9.91475 7.67329 9.84909 7.5144 9.84917 7.34877C9.84926 7.18314 9.9151 7.02432 10.0322 6.90721C10.1493 6.79009 10.3081 6.72426 10.4738 6.72417C10.6394 6.72408 10.7983 6.78975 10.9155 6.90674L13.5661 9.55734C13.6534 9.64486 13.7129 9.75624 13.7371 9.87746C13.7612 9.99869 13.749 10.1243 13.7019 10.2386V10.2386Z" fill="#2F80ED"/>
</svg>
