<svg width="24" height="24" viewBox="0 0 24 24" fill="none" xmlns="http://www.w3.org/2000/svg">
<path d="M20.7012 16.4943C20.1448 15.5366 19.4815 13.7192 19.4815 10.5V9.83469C19.4815 5.68296 16.1508 2.28058 12.0568 2.25019C12.0377 2.25009 12.0188 2.25 11.9996 2.25C10.0131 2.25258 8.10889 3.0442 6.70598 4.45072C5.30307 5.85723 4.51634 7.76344 4.51885 9.75V10.5C4.51885 13.719 3.85519 15.5363 3.29855 16.494C3.16559 16.7217 3.09504 16.9805 3.09401 17.2443C3.09298 17.508 3.16151 17.7673 3.29268 17.9961C3.42386 18.2249 3.61305 18.4151 3.84116 18.5475C4.06928 18.6798 4.32827 18.7497 4.592 18.75H8.24981C8.24981 19.7446 8.6449 20.6984 9.34816 21.4017C10.0514 22.1049 11.0052 22.5 11.9998 22.5C12.9944 22.5 13.9482 22.1049 14.6515 21.4017C15.3547 20.6984 15.7498 19.7446 15.7498 18.75H19.4076C19.6713 18.7497 19.9303 18.6798 20.1583 18.5475C20.3864 18.4152 20.5756 18.2251 20.7068 17.9963C20.838 17.7675 20.9065 17.5083 20.9055 17.2446C20.9046 16.9809 20.8341 16.7221 20.7012 16.4943ZM11.9998 21C11.4033 20.9993 10.8314 20.7621 10.4096 20.3402C9.98776 19.9184 9.75049 19.3465 9.74981 18.75H14.2498C14.2491 19.3465 14.0119 19.9184 13.59 20.3402C13.1682 20.7621 12.5963 20.9993 11.9998 21Z" fill="#33CC7F"/>
</svg>
