<svg width="16" height="16" viewBox="0 0 16 16" fill="none" xmlns="http://www.w3.org/2000/svg">
<path d="M6 13.5H3C2.86739 13.5 2.74021 13.4473 2.64645 13.3535C2.55268 13.2598 2.5 13.1326 2.5 13V10.2071C2.5 10.1414 2.51293 10.0764 2.53806 10.0158C2.56319 9.95509 2.60002 9.89997 2.64645 9.85354L10.1464 2.35354C10.2402 2.25977 10.3674 2.20709 10.5 2.20709C10.6326 2.20709 10.7598 2.25977 10.8536 2.35354L13.6464 5.14643C13.7402 5.2402 13.7929 5.36738 13.7929 5.49999C13.7929 5.63259 13.7402 5.75977 13.6464 5.85354L6 13.5Z" stroke="#858585" stroke-linecap="round" stroke-linejoin="round"/>
<path d="M8.5 4L12 7.5" stroke="#858585" stroke-linecap="round" stroke-linejoin="round"/>
</svg>
