<svg width="26" height="26" viewBox="0 0 26 26" fill="none" xmlns="http://www.w3.org/2000/svg">
<g clip-path="url(#clip0_3226_6104)">
<path d="M20.3162 8.48313C21.878 8.48313 23.1486 7.21257 23.1486 5.65082C22.993 1.89337 17.639 1.89444 17.484 5.65082C17.4839 7.21257 18.7545 8.48313 20.3162 8.48313ZM20.3162 4.34068C21.0387 4.34068 21.6264 4.92839 21.6264 5.65082C21.5544 7.38889 19.0778 7.38838 19.0062 5.65082C19.0061 4.92839 19.5938 4.34068 20.3162 4.34068Z" fill="#00B14F"/>
<path d="M5.55498 12.9832C5.13466 12.9832 4.79389 13.324 4.79389 13.7443C4.83398 14.7538 6.27614 14.7536 6.31607 13.7443C6.31607 13.324 5.97536 12.9832 5.55498 12.9832Z" fill="#00B14F"/>
<path d="M14.3018 10.9831H10.383C9.37321 11.0233 9.37397 12.4654 10.383 12.5052H14.3018C15.3116 12.465 15.3108 11.0229 14.3018 10.9831Z" fill="#00B14F"/>
<path d="M25.243 11.0236C24.1395 11.0236 23.226 11.8525 23.0925 12.9204H22.2783C22.0269 12.31 21.7051 11.725 21.3188 11.1786C27.9728 9.79175 27.1684 0.233032 20.3162 0.0333226C16.457 -0.0244693 13.6471 4.04989 15.0586 7.62883C14.8373 7.61113 14.6173 7.60103 14.4013 7.60103H9.44084C8.55474 6.41297 7.13683 5.70754 5.63769 5.73276L3.36589 5.77294C3.11787 5.77731 2.88757 5.90228 2.7487 6.10787C2.60987 6.31342 2.57989 6.57376 2.66838 6.80549L3.87511 9.96527C3.36533 10.4819 2.85865 11.1987 2.36216 12.1059C1.02706 12.3059 0 13.4605 0 14.8504V16.8792C0 18.2111 0.943039 19.3268 2.1965 19.5937C2.72236 21.0768 3.67788 22.1054 4.51062 22.7668V25.206C4.51062 25.6263 4.85138 25.9671 5.2717 25.9671H8.30997C8.73029 25.9671 9.07106 25.6263 9.07106 25.206V24.6413H14.4013C14.6619 24.6413 14.9227 24.6294 15.1822 24.6057V25.206C15.1822 25.6263 15.523 25.9671 15.9433 25.9671H18.9309C19.3512 25.9671 19.6919 25.6263 19.6919 25.206V23.0877C19.6919 22.908 19.7671 22.7414 19.8982 22.6306C22.255 20.6593 23.3841 17.4507 22.747 14.4426H23.3462C24.0364 14.4426 24.598 13.8811 24.598 13.1908C24.598 12.8351 24.8873 12.5458 25.243 12.5458C26.2523 12.5058 26.2524 11.0636 25.243 11.0236ZM20.3162 1.5555C22.5744 1.5555 24.4116 3.39267 24.4116 5.65082C24.1866 11.0838 16.445 11.0822 16.2209 5.65076C16.2209 3.39267 18.058 1.5555 20.3162 1.5555ZM18.9156 21.468C18.4416 21.8686 18.1697 22.459 18.1697 23.0877V24.4449H16.7044V23.7268C16.7044 23.7225 16.7037 23.7182 16.7037 23.7139V22.1615C16.6634 21.1517 15.2213 21.1524 15.1815 22.1615V23.0754C14.9227 23.1041 14.6619 23.1192 14.4013 23.1192H9.07106V22.1615C9.03082 21.1517 7.58871 21.1524 7.54888 22.1615V24.4449H6.03279V22.3879C6.03279 22.1425 5.91447 21.9122 5.71501 21.7693C4.93576 21.2109 3.92072 20.2244 3.51014 18.6958C3.42084 18.3633 3.1194 18.1322 2.77508 18.1322C2.08427 18.1322 1.52218 17.5701 1.52218 16.8792V14.8504C1.52218 14.1595 2.08427 13.5975 2.77513 13.5975H2.83617C3.12127 13.5975 3.38248 13.4382 3.51288 13.1847C4.25733 11.738 4.86544 11.0761 5.24441 10.7755C5.5046 10.5691 5.60095 10.2179 5.48248 9.90763L4.47733 7.27579L5.66458 7.25478C6.76917 7.2354 7.81288 7.81063 8.38588 8.75656C8.52378 8.98423 8.77063 9.12331 9.03686 9.12331H14.4012C14.9349 9.12331 15.5195 9.19465 16.0706 9.3256C16.9018 10.2846 18.0518 10.9599 19.3539 11.1856C22.2071 14.0696 22.0347 18.8967 18.9156 21.468Z" fill="#00B14F"/>
</g>
<defs>
<clipPath id="clip0_3226_6104">
<rect width="26" height="26" fill="white"/>
</clipPath>
</defs>
</svg>
