<svg width="40" height="40" viewBox="0 0 40 40" fill="none" xmlns="http://www.w3.org/2000/svg">
<g opacity="0.3">
<rect width="40" height="40" rx="20" transform="matrix(-1 0 0 1 40 0)" fill="#292929"/>
<g clip-path="url(#clip0_2692_10482)">
<path d="M13.6518 21.1881L23.9714 31.5074C24.6278 32.1642 25.6921 32.1642 26.3483 31.5074C27.0045 30.8512 27.0045 29.787 26.3483 29.1308L17.217 19.9998L26.348 10.8691C27.0042 10.2127 27.0042 9.14853 26.348 8.49234C25.6918 7.83589 24.6276 7.83589 23.9711 8.49234L13.6515 18.8118C13.3234 19.14 13.1595 19.5698 13.1595 19.9998C13.1595 20.43 13.3237 20.86 13.6518 21.1881Z" fill="#FBFBFB"/>
</g>
</g>
<defs>
<clipPath id="clip0_2692_10482">
<rect width="23.9999" height="24" fill="white" transform="matrix(-1 0 0 1 32 8)"/>
</clipPath>
</defs>
</svg>
