<svg width="24" height="24" viewBox="0 0 24 24" fill="none" xmlns="http://www.w3.org/2000/svg">
<path d="M21 7.18927L16.8107 2.99991C16.6714 2.86061 16.506 2.75012 16.3241 2.67473C16.1421 2.59935 15.947 2.56055 15.75 2.56055C15.553 2.56055 15.358 2.59935 15.176 2.67473C14.994 2.75012 14.8286 2.86061 14.6894 2.99991L12.2198 5.46945L12.2197 5.46959L12.2195 5.46973L3.4394 14.2499C3.29966 14.3888 3.18887 14.5541 3.11344 14.7362C3.03802 14.9183 2.99946 15.1135 3 15.3105V19.4999C3.00045 19.8976 3.15863 20.2789 3.43984 20.5601C3.72105 20.8413 4.10231 20.9995 4.5 20.9999H8.68936C8.88642 21.0004 9.08163 20.9619 9.26369 20.8865C9.44575 20.8111 9.61104 20.7003 9.75 20.5605L21 9.31055C21.2809 9.02902 21.4386 8.64757 21.4386 8.2499C21.4386 7.85222 21.2809 7.47079 21 7.18927ZM18 10.1893L13.8107 5.99991L15.75 4.06055L19.9394 8.24991L18 10.1893Z" fill="#858585"/>
</svg>
