<svg width="40" height="40" viewBox="0 0 40 40" fill="none" xmlns="http://www.w3.org/2000/svg">
<circle cx="20" cy="20" r="20" fill="#F5F6FA"/>
<path fill-rule="evenodd" clip-rule="evenodd" d="M18.0139 15.1019C18.0526 14.8418 18.2101 14.6289 18.4222 14.5211C18.5187 14.4722 18.6264 14.4449 18.7393 14.4449H23.3389C23.8839 14.4449 24.3919 14.4828 24.8565 14.5621C24.9892 14.5847 25.1182 14.6108 25.2438 14.6403C25.3694 14.6698 25.4911 14.7026 25.609 14.7393C25.668 14.7574 25.7259 14.7766 25.783 14.7967C26.0111 14.877 26.2234 14.9715 26.4188 15.0811C26.6491 13.5254 26.4172 12.4667 25.6228 11.5079C24.7483 10.4522 23.1683 10 21.1469 10H15.2788C14.8658 10 14.5141 10.3184 14.4496 10.7507L12.0063 27.1642C11.958 27.4881 12.1943 27.7808 12.5038 27.7808H16.1263L18.0139 15.1019Z" fill="#27346A"/>
<path fill-rule="evenodd" clip-rule="evenodd" d="M26.418 15.0811C26.4005 15.1999 26.3811 15.3207 26.358 15.4451C25.5844 19.654 22.9368 21.1091 19.5554 21.1091H17.8336C17.4205 21.1091 17.0717 21.4277 17.0073 21.86L15.8756 29.4606C15.8335 29.7437 16.0402 30 16.3108 30H19.3643C19.7256 30 20.0333 29.7215 20.0896 29.3432L20.1196 29.1788L20.6948 25.3149L20.7319 25.1014C20.7883 24.7231 21.0959 24.4446 21.4573 24.4446H21.914C24.8721 24.4446 27.1884 23.1714 27.8653 19.4896C28.148 17.9512 28.0018 16.667 27.254 15.7642C27.0278 15.4912 26.7463 15.2653 26.418 15.0811Z" fill="#2790C3"/>
<path fill-rule="evenodd" clip-rule="evenodd" d="M25.6088 14.7393C25.4909 14.7026 25.3692 14.6698 25.2436 14.6403C25.1181 14.6108 24.989 14.5847 24.8563 14.5621C24.3917 14.4828 23.8837 14.4449 23.3387 14.4449H18.7391C18.6262 14.4449 18.5185 14.4722 18.422 14.5211C18.2099 14.6289 18.0524 14.8418 18.0137 15.1019L17.0361 21.6683L17.0078 21.86C17.0722 21.4277 17.4211 21.1091 17.8341 21.1091H19.556C22.9374 21.1091 25.585 19.654 26.3586 15.4452C26.3817 15.3207 26.4011 15.1999 26.4186 15.0811C26.2232 14.9715 26.0109 14.877 25.7828 14.7968C25.7257 14.7766 25.6678 14.7574 25.6088 14.7393Z" fill="#1F264F"/>
</svg>
