<svg width="34" height="34" viewBox="0 0 34 34" fill="none" xmlns="http://www.w3.org/2000/svg">
<path fill-rule="evenodd" clip-rule="evenodd" d="M17 33C25.8366 33 33 25.8366 33 17C33 8.16344 25.8366 1 17 1C8.16344 1 1 8.16344 1 17C1 25.8366 8.16344 33 17 33Z" fill="#007AFF" stroke="white" stroke-width="2"/>
<path d="M11 11.6667V9.66675H12.3333V11.6667H14.3333V13.0001H12.3333V15.0001H11V13.0001H9V11.6667H11ZM13 15.6667V13.6667H15V11.6667H19.6667L20.8867 13.0001H23C23.7333 13.0001 24.3333 13.6001 24.3333 14.3334V22.3334C24.3333 23.0667 23.7333 23.6667 23 23.6667H12.3333C11.6 23.6667 11 23.0667 11 22.3334V15.6667H13ZM17.6667 21.6667C19.5067 21.6667 21 20.1734 21 18.3334C21 16.4934 19.5067 15.0001 17.6667 15.0001C15.8267 15.0001 14.3333 16.4934 14.3333 18.3334C14.3333 20.1734 15.8267 21.6667 17.6667 21.6667ZM15.5333 18.3334C15.5333 19.5134 16.4867 20.4667 17.6667 20.4667C18.8467 20.4667 19.8 19.5134 19.8 18.3334C19.8 17.1534 18.8467 16.2001 17.6667 16.2001C16.4867 16.2001 15.5333 17.1534 15.5333 18.3334Z" fill="white"/>
</svg>
