<svg width="10" height="10" viewBox="0 0 10 10" fill="none" xmlns="http://www.w3.org/2000/svg">
<path d="M9.125 3.45068H0.874999C0.667893 3.45068 0.5 3.61858 0.5 3.82568V5.32568C0.5 5.53279 0.667893 5.70068 0.874999 5.70068H9.125C9.33211 5.70068 9.5 5.53279 9.5 5.32568V3.82568C9.5 3.61858 9.33211 3.45068 9.125 3.45068Z" stroke="#FFE8BA" stroke-width="0.75" stroke-linecap="round" stroke-linejoin="round"/>
<path d="M8.75 5.70068V9.07568C8.75 9.17514 8.71049 9.27052 8.64016 9.34085C8.56984 9.41117 8.47446 9.45068 8.375 9.45068H1.625C1.52554 9.45068 1.43016 9.41117 1.35984 9.34085C1.28951 9.27052 1.25 9.17514 1.25 9.07568V5.70068" stroke="#FFE8BA" stroke-width="0.75" stroke-linecap="round" stroke-linejoin="round"/>
<path d="M5 3.45068V9.45068" stroke="#FFE8BA" stroke-width="0.75" stroke-linecap="round" stroke-linejoin="round"/>
<path d="M7.12132 2.92004C6.59099 3.45037 5 3.45037 5 3.45037C5 3.45037 5 1.85938 5.53033 1.32905C5.74135 1.11827 6.02744 0.999915 6.32569 1C6.62395 1.00008 6.90997 1.1186 7.12087 1.3295C7.33177 1.5404 7.45029 1.82642 7.45037 2.12468C7.45046 2.42294 7.3321 2.70902 7.12132 2.92004V2.92004Z" stroke="#FFE8BA" stroke-width="0.75" stroke-linecap="round" stroke-linejoin="round"/>
<path d="M2.87886 2.92004C3.40919 3.45037 5.00018 3.45037 5.00018 3.45037C5.00018 3.45037 5.00018 1.85938 4.46985 1.32905C4.25883 1.11827 3.97274 0.999915 3.67448 1C3.37623 1.00008 3.09021 1.1186 2.87931 1.3295C2.66841 1.5404 2.54989 1.82642 2.5498 2.12468C2.54972 2.42294 2.66808 2.70902 2.87886 2.92004V2.92004Z" stroke="#FFE8BA" stroke-width="0.75" stroke-linecap="round" stroke-linejoin="round"/>
</svg>
