<svg width="12" height="13" viewBox="0 0 12 13" fill="none" xmlns="http://www.w3.org/2000/svg">
<rect width="12" height="13" fill="#222222"/>
<g id="Tr&#225;&#186;&#161;m &#196;&#145;i&#225;&#187;&#131;m th&#198;&#176;&#225;&#187;&#159;ng" clip-path="url(#clip0_3279_76304)">
<rect width="375" height="1573" transform="translate(-39 -910)" fill="#F7F6FB"/>
<g id="Frame 48096248">
<g id="Frame 48096280">
<g id="box-noidung">
<rect x="-22" y="-138" width="343" height="169" rx="8" fill="white"/>
<g id="Frame 45693">
<g id="Frame 48096223">
<g id="QR">
<rect x="-10" y="-8" width="87" height="29" rx="5" fill="#CCEFDC"/>
<g id="qr-code (1) 1" clip-path="url(#clip1_3279_76304)">
<g id="Group">
<path id="Vector" d="M10.7029 0.5H9.02344C8.82928 0.5 8.67188 0.657406 8.67188 0.851562C8.67188 1.04572 8.82928 1.20312 9.02344 1.20312H10.7029C11.0304 1.20312 11.2969 1.46956 11.2969 1.79703V3.47656C11.2969 3.67072 11.4543 3.82812 11.6484 3.82812C11.8426 3.82812 12 3.67072 12 3.47656V1.79703C12 1.08186 11.4181 0.5 10.7029 0.5Z" fill="#00B14F"/>
<path id="Vector_2" d="M0.351562 3.82812C0.545719 3.82812 0.703125 3.67072 0.703125 3.47656V1.79703C0.703125 1.46956 0.969563 1.20312 1.29705 1.20312H2.97656C3.17072 1.20312 3.32812 1.04572 3.32812 0.851562C3.32812 0.657406 3.17072 0.5 2.97656 0.5H1.29705C0.581859 0.5 0 1.08186 0 1.79703V3.47656C0 3.67072 0.157406 3.82812 0.351562 3.82812V3.82812Z" fill="#00B14F"/>
<path id="Vector_3" d="M2.97656 11.7969H1.29705C0.969563 11.7969 0.703125 11.5304 0.703125 11.203V9.52344C0.703125 9.32928 0.545719 9.17188 0.351562 9.17188C0.157406 9.17188 0 9.32928 0 9.52344V11.203C0 11.9181 0.581859 12.5 1.29705 12.5H2.97656C3.17072 12.5 3.32812 12.3426 3.32812 12.1484C3.32812 11.9543 3.17072 11.7969 2.97656 11.7969Z" fill="#00B14F"/>
<path id="Vector_4" d="M11.6484 9.17188C11.4543 9.17188 11.2969 9.32928 11.2969 9.52344V11.203C11.2969 11.5305 11.0304 11.7969 10.7029 11.7969H9.02344C8.82928 11.7969 8.67188 11.9543 8.67188 12.1484C8.67188 12.3426 8.82928 12.5 9.02344 12.5H10.7029C11.4181 12.5 12 11.9181 12 11.203V9.52344C12 9.32928 11.8426 9.17188 11.6484 9.17188Z" fill="#00B14F"/>
<path id="Vector_5" d="M10.4766 10.625V6.875C10.4766 6.68084 10.3192 6.52344 10.125 6.52344H6.375C6.18084 6.52344 6.02344 6.68084 6.02344 6.875V10.625C6.02344 10.8192 6.18084 10.9766 6.375 10.9766H10.125C10.3192 10.9766 10.4766 10.8192 10.4766 10.625ZM9.77344 10.2734H6.72656V7.22656H9.77344V10.2734Z" fill="#00B14F"/>
<path id="Vector_6" d="M7.3125 5.72656H9.9375C10.1317 5.72656 10.2891 5.56916 10.2891 5.375V2.75C10.2891 2.55584 10.1317 2.39844 9.9375 2.39844H7.3125C7.11834 2.39844 6.96094 2.55584 6.96094 2.75V5.375C6.96094 5.56916 7.11834 5.72656 7.3125 5.72656ZM7.66406 3.10156H9.58594V5.02344H7.66406V3.10156Z" fill="#00B14F"/>
<path id="Vector_7" d="M5.25 2.02344H1.875C1.68084 2.02344 1.52344 2.18084 1.52344 2.375V5.75C1.52344 5.94416 1.68084 6.10156 1.875 6.10156H5.25C5.44416 6.10156 5.60156 5.94416 5.60156 5.75V2.375C5.60156 2.18084 5.44416 2.02344 5.25 2.02344ZM4.89844 5.39844H2.22656V2.72656H4.89844V5.39844Z" fill="#00B14F"/>
<path id="Vector_8" d="M4.875 10.2734H2.22656V7.25C2.22656 7.05584 2.06916 6.89844 1.875 6.89844C1.68084 6.89844 1.52344 7.05584 1.52344 7.25V10.625C1.52344 10.8192 1.68084 10.9766 1.875 10.9766H4.875C5.06916 10.9766 5.22656 10.8192 5.22656 10.625C5.22656 10.4308 5.06916 10.2734 4.875 10.2734Z" fill="#00B14F"/>
<path id="Vector_9" d="M3.72656 9.125V7.25C3.72656 7.05584 3.56916 6.89844 3.375 6.89844C3.18084 6.89844 3.02344 7.05584 3.02344 7.25V9.125C3.02344 9.31916 3.18084 9.47656 3.375 9.47656C3.56916 9.47656 3.72656 9.31916 3.72656 9.125Z" fill="#00B14F"/>
<path id="Vector_10" d="M4.875 6.89844C4.68084 6.89844 4.52344 7.05584 4.52344 7.25V9.125C4.52344 9.31916 4.68084 9.47656 4.875 9.47656C5.06916 9.47656 5.22656 9.31916 5.22656 9.125V7.25C5.22656 7.05584 5.06916 6.89844 4.875 6.89844Z" fill="#00B14F"/>
<path id="Vector_11" d="M7.875 9.10156H8.625C8.81916 9.10156 8.97656 8.94416 8.97656 8.75C8.97656 8.55584 8.81916 8.39844 8.625 8.39844H7.875C7.68084 8.39844 7.52344 8.55584 7.52344 8.75C7.52344 8.94416 7.68084 9.10156 7.875 9.10156Z" fill="#00B14F"/>
<path id="Vector_12" d="M3.5625 4.60156C3.75666 4.60156 3.91406 4.44416 3.91406 4.25V3.875C3.91406 3.68084 3.75666 3.52344 3.5625 3.52344C3.36834 3.52344 3.21094 3.68084 3.21094 3.875V4.25C3.21094 4.44416 3.36834 4.60156 3.5625 4.60156Z" fill="#00B14F"/>
</g>
</g>
</g>
</g>
</g>
</g>
</g>
</g>
</g>
<defs>
<clipPath id="clip0_3279_76304">
<rect width="375" height="1573" fill="white" transform="translate(-39 -910)"/>
</clipPath>
<clipPath id="clip1_3279_76304">
<rect width="12" height="12" fill="white" transform="translate(0 0.5)"/>
</clipPath>
</defs>
</svg>
