<svg width="40" height="40" viewBox="0 0 40 40" fill="none" xmlns="http://www.w3.org/2000/svg">
<circle cx="20" cy="20" r="20" fill="#F5F6FA"/>
<path d="M20 15.5V20" stroke="#33CC7F" stroke-width="1.5" stroke-linecap="round" stroke-linejoin="round"/>
<path d="M23.8971 22.25L20 20" stroke="#33CC7F" stroke-width="1.5" stroke-linecap="round" stroke-linejoin="round"/>
<path d="M25.2657 17.3481H29.0157V13.5981" stroke="#33CC7F" stroke-width="1.5" stroke-linecap="round" stroke-linejoin="round"/>
<path d="M25.8336 25.8336C24.6798 26.9874 23.2098 27.7732 21.6095 28.0915C20.0092 28.4098 18.3504 28.2464 16.8429 27.622C15.3354 26.9976 14.0469 25.9402 13.1404 24.5835C12.2339 23.2268 11.75 21.6317 11.75 20C11.75 18.3683 12.2339 16.7733 13.1404 15.4165C14.0469 14.0598 15.3354 13.0024 16.8429 12.378C18.3504 11.7536 20.0092 11.5902 21.6095 11.9085C23.2098 12.2269 24.6798 13.0126 25.8336 14.1664L29.0156 17.3484" stroke="#33CC7F" stroke-width="1.5" stroke-linecap="round" stroke-linejoin="round"/>
</svg>
