<svg width="40" height="40" viewBox="0 0 40 40" fill="none" xmlns="http://www.w3.org/2000/svg">
<circle cx="20" cy="20" r="20" fill="white"/>
<g clip-path="url(#clip0)">
<path d="M18.0489 11.0244C18.0489 11.0244 15.0246 8 11.5124 8C9.46359 8 8.68307 9.36584 8.68307 10.7317C8.68307 12.0975 9.51234 13.4634 11.0245 13.4634H18.0489V11.0244Z" fill="#FBE77B"/>
<path d="M18.0489 11.0244C18.0489 11.0244 15.0246 8 11.5124 8C9.46359 8 8.68307 9.36584 8.68307 10.7317C8.68307 12.0975 9.51234 13.4634 11.0245 13.4634H18.0489V11.0244Z" fill="#FBE77B"/>
<path d="M21.9513 11.0244C21.9513 11.0244 24.9756 8 28.4878 8C30.5366 8 31.3171 9.36584 31.3171 10.7317C31.3171 12.0975 30.4879 13.4634 28.9757 13.4634H21.9513V11.0244Z" fill="#FBE77B"/>
<path d="M31.0625 17.3658H8.9375C8.41972 17.3658 8 16.9461 8 16.4283V14.4009C8 13.8831 8.41972 13.4634 8.9375 13.4634H31.0625C31.5803 13.4634 32 13.8831 32 14.4009V16.4283C32 16.9461 31.5803 17.3658 31.0625 17.3658Z" fill="#FB636F"/>
<path d="M30.7314 13.4634V17.3659H31.0338C31.5672 17.3659 31.9997 16.9334 31.9997 16.4001V14.4292C31.9997 13.8958 31.5672 13.4634 31.0338 13.4634H30.7314V13.4634Z" fill="#FA4954"/>
<path d="M17.0732 13.4634H22.9268V17.3658H17.0732V13.4634Z" fill="#FBE77B"/>
<path d="M29.7941 31.9999H10.2057C9.68791 31.9999 9.26819 31.5801 9.26819 31.0624V17.3657H30.7316V31.0624C30.7316 31.5801 30.3119 31.9999 29.7941 31.9999Z" fill="#FB636F"/>
<path d="M9.26819 17.3657H30.7316V18.5365H9.26819V17.3657Z" fill="#FA4954"/>
<path d="M18.0488 17.3657H21.9512V31.9999H18.0488V17.3657Z" fill="#FBE77B"/>
<path d="M18.0488 17.3657H21.9512V18.5365H18.0488V17.3657Z" fill="#FCDD2E"/>
<path d="M23.3171 12.4879C23.114 12.4879 22.94 12.3637 22.8665 12.1872C22.9924 12.141 23.1281 12.0957 23.269 12.056C23.4615 12.0018 23.5736 11.8017 23.5193 11.6092C23.4651 11.4167 23.265 11.3045 23.0725 11.3588C22.9894 11.3823 22.9082 11.4073 22.8292 11.4333V10.2686C22.2733 10.7024 21.9512 11.0245 21.9512 11.0245V13.4636H28.9756C29.7901 13.4636 30.4061 13.067 30.8015 12.4879H23.3171Z" fill="#FCDD2E"/>
<path d="M17.1709 10.2686V11.4333C17.092 11.4073 17.0107 11.3823 16.9276 11.3588C16.7353 11.3046 16.5351 11.4166 16.4808 11.6092C16.4265 11.8017 16.5386 12.0018 16.7311 12.056C16.8717 12.0956 17.0075 12.141 17.1335 12.1873C17.0601 12.3638 16.8861 12.4879 16.683 12.4879H9.1987C9.59409 13.0669 10.21 13.4635 11.0245 13.4635H18.0489V11.0245C18.0489 11.0245 17.7268 10.7024 17.1709 10.2686Z" fill="#FCDD2E"/>
<path d="M21.9512 13.4633H18.0488V10.9976C18.0488 10.6351 18.3426 10.3413 18.705 10.3413H21.295C21.6574 10.3413 21.9512 10.6351 21.9512 10.9976V13.4633Z" fill="#FBE77B"/>
<path d="M18.0488 12.4878H21.9512V13.4634H18.0488V12.4878Z" fill="#FCDD2E"/>
</g>
<defs>
<clipPath id="clip0">
<rect width="24" height="24" fill="white" transform="translate(8 8)"/>
</clipPath>
</defs>
</svg>
