<svg width="21" height="21" viewBox="0 0 21 21" fill="none" xmlns="http://www.w3.org/2000/svg">
<g clip-path="url(#clip0_4043_53512)">
<path d="M15.5659 7.12055H3.13085L5.675 4.5764C6.03314 4.21826 6.03314 3.6377 5.675 3.27957C5.31676 2.92133 4.73631 2.92143 4.37807 3.27957L0.268603 7.38923C-0.0895344 7.74737 -0.0895344 8.32793 0.268603 8.68607L4.37807 12.7955C4.55719 12.9746 4.79183 13.0641 5.02648 13.0641C5.26113 13.0641 5.49578 12.9745 5.6749 12.7955C6.03304 12.4374 6.03304 11.8568 5.6749 11.4987L3.13075 8.95454H15.5658C17.5509 8.95454 19.1659 10.5696 19.1659 12.5547C19.1659 14.5398 17.5509 16.1548 15.5658 16.1548H8.00142C7.49493 16.1548 7.08442 16.5653 7.08442 17.0718C7.08442 17.5783 7.49493 17.9888 8.00142 17.9888H15.5658C18.5621 17.9888 20.9999 15.551 20.9999 12.5547C20.9999 9.55833 18.5622 7.12055 15.5659 7.12055Z" fill="#333333"/>
</g>
<defs>
<clipPath id="clip0_4043_53512">
<rect width="21" height="21" fill="white"/>
</clipPath>
</defs>
</svg>
