<svg width="21" height="21" viewBox="0 0 21 21" fill="none" xmlns="http://www.w3.org/2000/svg">
<g clip-path="url(#clip0_315_1724)">
<path d="M15.5659 7.12037H3.13082L5.67498 4.57622C6.03311 4.21808 6.03311 3.63752 5.67498 3.27938C5.31674 2.92114 4.73628 2.92125 4.37804 3.27938L0.268576 7.38905C-0.0895611 7.74719 -0.0895611 8.32775 0.268576 8.68588L4.37804 12.7953C4.55716 12.9745 4.79181 13.0639 5.02646 13.0639C5.26111 13.0639 5.49575 12.9744 5.67487 12.7953C6.03301 12.4372 6.03301 11.8566 5.67487 11.4985L3.13072 8.95436H15.5658C17.5509 8.95436 19.1659 10.5694 19.1659 12.5545C19.1659 14.5396 17.5509 16.1546 15.5658 16.1546H8.00139C7.4949 16.1546 7.0844 16.5651 7.0844 17.0716C7.0844 17.5781 7.4949 17.9886 8.00139 17.9886H15.5658C18.5621 17.9886 20.9999 15.5508 20.9999 12.5545C20.9999 9.55815 18.5622 7.12037 15.5659 7.12037Z" fill="#333333"/>
</g>
<defs>
<clipPath id="clip0_315_1724">
<rect width="21" height="21" fill="white"/>
</clipPath>
</defs>
</svg>
