<svg width="40" height="40" viewBox="0 0 40 40" fill="none" xmlns="http://www.w3.org/2000/svg">
<circle cx="20" cy="20" r="20" fill="white"/>
<path d="M24.5 26C23.9477 26 23.5 25.5523 23.5 25C23.5 24.4477 23.9477 24 24.5 24L24.5 26ZM15.5 24C16.0523 24 16.5 24.4477 16.5 25C16.5 25.5523 16.0523 26 15.5 26L15.5 24ZM28 22L28 12L30 12L30 22L28 22ZM26 10L14 10L14 8L26 8L26 10ZM12 12L12 22L10 22L10 12L12 12ZM24.5 24L26 24L26 26L24.5 26L24.5 24ZM14 24L15.5 24L15.5 26L14 26L14 24ZM12 22C12 23.1046 12.8954 24 14 24L14 26C11.7909 26 10 24.2091 10 22L12 22ZM14 10C12.8954 10 12 10.8954 12 12L10 12C10 9.79086 11.7909 8 14 8L14 10ZM28 12C28 10.8954 27.1046 10 26 10L26 8C28.2091 8 30 9.79086 30 12L28 12ZM30 22C30 24.2091 28.2091 26 26 26L26 24C27.1046 24 28 23.1046 28 22L30 22Z" fill="#00B14F"/>
<path fill-rule="evenodd" clip-rule="evenodd" d="M17.5303 27.4697C17.2374 27.1768 16.7626 27.1768 16.4697 27.4697C16.1768 27.7626 16.1768 28.2374 16.4697 28.5303L19.4697 31.5303C19.7626 31.8232 20.2374 31.8232 20.5303 31.5303L23.5303 28.5303C23.8232 28.2374 23.8232 27.7626 23.5303 27.4697C23.2374 27.1768 22.7626 27.1768 22.4697 27.4697L20.75 29.1893L20.75 19C20.75 18.5858 20.4142 18.25 20 18.25C19.5858 18.25 19.25 18.5858 19.25 19L19.25 29.1893L17.5303 27.4697Z" fill="#5CD699"/>
<circle cx="20" cy="20" r="20" fill="white"/>
<g clip-path="url(#clip0)">
<path d="M28.9437 15.8224C28.7188 15.4708 28.2547 15.4005 27.9172 15.6395L25.6391 17.3552C25.3578 17.5661 25.2734 17.9599 25.4562 18.2692C26.0328 19.2536 26.3281 20.3083 26.3281 21.4052C26.3281 24.8927 23.4875 27.7333 20 27.7333C16.5125 27.7333 13.6719 24.8927 13.6719 21.4052C13.6719 18.1568 16.1328 15.4708 19.2969 15.1192V17.1865C19.2969 17.6083 19.6344 17.8755 20 17.8896C20.1406 17.8896 20.2954 17.8474 20.4219 17.7489L26.0469 13.5303C26.4266 13.249 26.4266 12.6865 26.0469 12.4052L20.4219 8.1396C20.2954 8.04126 20.1406 7.99902 20 7.99902C19.6344 7.99902 19.2969 8.29438 19.2969 8.70215V10.8866C13.8125 11.2381 9.45312 15.8224 9.45312 21.4052C9.45312 27.2271 14.1781 31.9989 20 31.9989C25.8219 31.9989 30.5469 27.2271 30.5469 21.4052C30.5469 19.4364 29.9843 17.5099 28.9437 15.8224Z" fill="#33CC7F"/>
<path d="M30.5469 21.4066C30.5469 27.2285 25.8219 32.0003 20 32.0003V27.7347C23.4875 27.7347 26.3281 24.8941 26.3281 21.4066C26.3281 20.3097 26.0328 19.255 25.4562 18.2706C25.2734 17.9613 25.3578 17.5675 25.6391 17.3566L27.9172 15.6409C28.2547 15.4019 28.7188 15.4722 28.9437 15.8237C29.9843 17.5112 30.5469 19.4378 30.5469 21.4066Z" fill="#55D399"/>
</g>
<defs>
<clipPath id="clip0">
<rect width="24" height="24" fill="white" transform="translate(8 8)"/>
</clipPath>
</defs>
</svg>
