<svg width="24" height="30" viewBox="0 0 24 30" fill="none" xmlns="http://www.w3.org/2000/svg">
<g clip-path="url(#clip0_6602_35341)">
<path d="M0.482445 0C0.354125 0.000519026 0.231265 0.0519847 0.140883 0.143078C0.0505018 0.234171 8.90938e-06 0.357433 0.000491712 0.485757V29.5196C0.00112102 29.6062 0.0249801 29.691 0.0695853 29.7653C0.114191 29.8395 0.177895 29.9004 0.254068 29.9417C0.33024 29.9829 0.416098 30.0029 0.502648 29.9997C0.589198 29.9964 0.673271 29.97 0.746122 29.9231L11.6113 22.839L22.4785 29.9231C22.5514 29.97 22.6354 29.9964 22.722 29.9996C22.8085 30.0029 22.8944 29.9829 22.9705 29.9417C23.0467 29.9004 23.1104 29.8395 23.155 29.7653C23.1996 29.691 23.2235 29.6062 23.2241 29.5196V0.485757C23.2244 0.422137 23.212 0.359093 23.1879 0.300235C23.1638 0.241377 23.1282 0.187858 23.0834 0.142741C23.0385 0.0976238 22.9852 0.0617938 22.9265 0.0373007C22.8678 0.0128076 22.8048 0.000132298 22.7412 0H11.8155H0.482445Z" fill="#FF7A00"/>
<g clip-path="url(#clip1_6602_35341)">
<path fill-rule="evenodd" clip-rule="evenodd" d="M11.6673 3.70422C15.9094 3.70422 19.3483 7.14317 19.3483 11.3853C19.3483 15.6275 15.9094 19.0664 11.6673 19.0664C7.4251 19.0664 3.98615 15.6275 3.98615 11.3853C3.98615 7.14317 7.4251 3.70422 11.6673 3.70422ZM13.4137 19.5474L15.3851 22.962L16.1817 19.2045L19.8341 20.3935L17.8618 16.9773C16.7068 18.256 15.1615 19.1753 13.4137 19.5474ZM9.92084 19.5474C8.17311 19.1753 6.62775 18.256 5.47275 16.9773L3.50049 20.3934L7.15291 19.2045L7.94943 22.962L9.92084 19.5474ZM11.6673 4.8536C8.05994 4.8536 5.13549 7.77793 5.13549 11.3853C5.13549 14.9926 8.05994 17.9171 11.6673 17.9171C15.2746 17.9171 18.199 14.9926 18.199 11.3853C18.199 7.77801 15.2746 4.8536 11.6673 4.8536ZM11.6673 5.51766C8.42658 5.51766 5.79955 8.14461 5.79955 11.3853C5.79955 14.626 8.42654 17.2531 11.6673 17.2531C14.908 17.2531 17.535 14.626 17.535 11.3853C17.535 8.14461 14.9079 5.51766 11.6673 5.51766ZM11.6673 6.7604L10.4874 9.73137L7.29725 9.9354L9.75815 11.9756L8.96639 15.0727L11.6673 13.3627L14.3681 15.0727L13.5764 11.9756L16.0373 9.9354L12.8472 9.73137L11.6673 6.7604Z" fill="#FFE8BA"/>
</g>
</g>
<defs>
<clipPath id="clip0_6602_35341">
<rect width="23.3333" height="30" fill="white"/>
</clipPath>
<clipPath id="clip1_6602_35341">
<rect width="20" height="20" fill="white" transform="translate(1.66699 3.33331)"/>
</clipPath>
</defs>
</svg>
