<svg width="24" height="24" viewBox="0 0 24 24" fill="none" xmlns="http://www.w3.org/2000/svg">
<g clip-path="url(#clip0_492_2042)">
<path d="M2.04429 0C1.88685 0 1.75008 0.106615 1.71167 0.259231L0.103213 6.64933C-0.441146 8.8121 1.24593 10.9707 3.47019 10.97C5.38465 10.97 6.94219 9.41215 6.94219 7.49723V0L2.04429 0Z" fill="#00B14F"/>
<path d="M8.7254 0V7.66585C8.7254 9.48774 10.2082 10.97 12.0308 10.97C13.8534 10.97 15.3361 9.48774 15.3361 7.66585V0L8.7254 0Z" fill="#00B14F"/>
<path d="M17.1196 0V7.52795C17.1196 9.4259 18.6634 10.9701 20.5609 10.9701C22.7637 10.9701 24.4373 8.82959 23.8982 6.68754L22.2801 0.259128C22.2417 0.106615 22.1049 0 21.9475 0L17.1196 0Z" fill="#00B14F"/>
<path d="M9.5932 17.351H14.4069V24H9.5932V17.351Z" fill="#00B14F"/>
<path d="M20.561 12.7529C18.7798 12.7529 17.2039 11.857 16.2603 10.492C15.3463 11.8544 13.7916 12.7529 12.0308 12.7529C10.2654 12.7529 8.70719 11.8498 7.79417 10.4812C6.84483 11.8529 5.26063 12.7529 3.46991 12.7529C2.7334 12.7529 2.01755 12.6014 1.36032 12.3136V23.6572C1.36032 23.8462 1.51422 24.0001 1.7033 24.0001H7.80971V16.4595C7.80971 15.9672 8.20894 15.5681 8.70145 15.5681H15.2987C15.7912 15.5681 16.1905 15.9672 16.1905 16.4595V24H22.2964C22.4855 24 22.6393 23.8462 22.6393 23.6572V12.3242C21.991 12.6051 21.2859 12.7529 20.561 12.7529Z" fill="#00B14F"/>
</g>
<defs>
<clipPath id="clip0_492_2042">
<rect width="24" height="24" fill="white"/>
</clipPath>
</defs>
</svg>
