<svg width="24" height="24" viewBox="0 0 24 24" fill="none" xmlns="http://www.w3.org/2000/svg">
<g clip-path="url(#clip0_492_2758)">
<path d="M4.62495 12.7114C6.16628 12.7114 7.52378 11.9512 8.3619 10.787C9.16953 11.9488 10.5095 12.7114 12.0293 12.7114C13.5452 12.7114 14.8842 11.9527 15.6925 10.7961C16.5257 11.9547 17.8836 12.7114 19.417 12.7114C22.3581 12.7114 24.5826 9.86126 23.8641 7.00836L22.4619 1.44138C22.2489 0.595567 21.4901 0.00488281 20.6172 0.00488281H3.37217C2.49925 0.00488281 1.74078 0.595567 1.52774 1.44143L0.134559 6.97525C-0.262921 8.55338 0.259535 9.92862 1.18224 11.1807V22.0949C1.18224 23.1427 2.0282 23.9951 3.07696 23.9951H20.9194C21.9682 23.9951 22.8145 23.1427 22.8145 22.0949V15.0167C22.8145 14.5576 22.4283 14.1854 21.9687 14.1854C21.5092 14.1854 21.1229 14.5575 21.1229 15.0167V22.095C21.1229 22.226 21.0505 22.3548 20.9194 22.3548H15.6892V15.8619C15.6892 15.4028 15.316 15.0245 14.8565 15.0245H9.14041C8.68085 15.0245 8.30762 15.4027 8.30762 15.8619V22.3548H3.07696C2.94589 22.3548 2.87386 22.226 2.87386 22.095V12.3624C3.38648 12.5905 4.00659 12.7114 4.62495 12.7114ZM16.5094 1.64525H20.6172C20.7263 1.64525 20.8211 1.73024 20.8477 1.83594L22.2497 7.40841C22.7055 9.21865 21.2946 11.0459 19.4237 11.0459C17.8124 11.0459 16.5094 9.73818 16.5094 8.1273V1.64525ZM9.23027 1.64525H14.869V8.1273C14.869 9.69225 13.6446 11.0487 12.0465 11.0487C10.4222 11.0487 9.23027 9.67708 9.23027 8.10074V1.64525ZM9.99919 16.7161H13.9976V22.3548H9.99919V16.7161ZM1.74704 7.38098L3.14114 1.83604C3.1678 1.73029 3.26309 1.6453 3.37217 1.6453H7.53865V8.10079C7.53865 9.72562 6.22579 11.0476 4.60076 11.0487C2.71008 11.0476 1.28558 9.21342 1.74704 7.38098Z" fill="#A5A5A5"/>
</g>
<defs>
<clipPath id="clip0_492_2758">
<rect width="24" height="24" fill="white"/>
</clipPath>
</defs>
</svg>
