<svg width="24" height="24" viewBox="0 0 24 24" fill="none" xmlns="http://www.w3.org/2000/svg">
<path fill-rule="evenodd" clip-rule="evenodd" d="M12 24C18.6274 24 24 18.6274 24 12C24 5.37258 18.6274 0 12 0C5.37258 0 0 5.37258 0 12C0 18.6274 5.37258 24 12 24Z" fill="white"/>
<path d="M11.4411 8.36364C11.6895 7.87879 12.3105 7.87879 12.5589 8.36364L15.9126 14.9091C16.161 15.3939 15.8505 16 15.3536 16H8.64637C8.14953 16 7.83901 15.3939 8.08743 14.9091L11.4411 8.36364Z" stroke="#FFBE40"/>
<path d="M12 13.6221C11.7204 13.6221 11.4861 13.8565 11.4861 14.136C11.4861 14.4156 11.7204 14.65 12 14.65C12.2693 14.65 12.5139 14.4156 12.5016 14.1484C12.5139 13.8544 12.2816 13.6221 12 13.6221Z" fill="#FFBE40"/>
<path d="M11.8724 10.0145C11.6278 10.0844 11.4757 10.3064 11.4757 10.5757C11.488 10.7381 11.4983 10.9026 11.5107 11.0649C11.5456 11.6837 11.5805 12.2901 11.6155 12.9089C11.6278 13.1185 11.7902 13.2707 11.9999 13.2707C12.2096 13.2707 12.374 13.1083 12.3843 12.8965C12.3843 12.7691 12.3843 12.6519 12.3966 12.5224C12.4193 12.1257 12.4439 11.7289 12.4665 11.3322C12.4789 11.0752 12.5015 10.8183 12.5138 10.5613C12.5138 10.4688 12.5015 10.3866 12.4665 10.3044C12.3617 10.0741 12.1171 9.95695 11.8724 10.0145Z" fill="#FFBE40"/>
</svg>
