<svg width="15" height="17" viewBox="0 0 15 17" fill="none" xmlns="http://www.w3.org/2000/svg">
<g clip-path="url(#clip0_7605_27)">
<path d="M10.1276 2.78389C5.47994 2.66927 3.64348 9.31535 5.32513 13.6445C9.65917 11.9754 13.3398 6.14475 10.1276 2.78389Z" fill="#44C4A1"/>
<path d="M12.3666 5.27638C11.2898 6.13977 7.4128 9.33756 6.26831 11.5114C7.10627 9.20202 6.86291 4.18225 6.77703 2.80475C6.76635 2.63372 6.58549 2.53675 6.43894 2.6241C5.02954 3.46423 -0.409368 7.32614 5.07241 14.2161C13.8578 13.6349 13.0547 7.01287 12.7278 5.40493C12.6938 5.23773 12.5003 5.16919 12.3666 5.27638Z" fill="#FFE670"/>
<path d="M5.28668 13.7317C2.65424 10.4262 2.53845 7.81934 3.28516 5.90869C2.32308 7.85383 2.21011 10.622 5.07245 14.2161C9.6572 13.9151 11.6289 11.9687 12.4204 9.94818C11.5095 11.7862 9.50324 13.4547 5.28668 13.7317Z" fill="#FFC140"/>
</g>
<defs>
<clipPath id="clip0_7605_27">
<rect width="15" height="17" fill="white"/>
</clipPath>
</defs>
</svg>
