<svg width="20" height="21" viewBox="0 0 20 21" fill="none" xmlns="http://www.w3.org/2000/svg">
<g clip-path="url(#clip0_7106_38794)">
<path d="M2.54405 0.254883C2.45851 0.255229 2.3766 0.289539 2.31634 0.350268C2.25609 0.410997 2.22243 0.493171 2.22275 0.578721V19.9346C2.22317 19.9923 2.23908 20.0489 2.26881 20.0984C2.29855 20.1479 2.34102 20.1885 2.3918 20.216C2.44258 20.2435 2.49982 20.2568 2.55752 20.2547C2.61522 20.2525 2.67127 20.2349 2.71984 20.2036L9.96332 15.4809L17.2081 20.2036C17.2567 20.2349 17.3127 20.2525 17.3704 20.2546C17.4281 20.2568 17.4853 20.2435 17.5361 20.216C17.5869 20.1885 17.6294 20.1479 17.6591 20.0984C17.6888 20.0489 17.7047 19.9923 17.7052 19.9346V0.578721C17.7053 0.536308 17.6971 0.494278 17.681 0.45504C17.6649 0.415801 17.6413 0.380122 17.6114 0.350043C17.5815 0.319965 17.5459 0.296079 17.5068 0.27975C17.4676 0.263421 17.4256 0.254971 17.3832 0.254883H10.0994H2.54405Z" fill="#00B14F"/>
<path d="M9.73017 5.625C9.73017 4.45323 8.76893 3.5 7.58732 3.5C6.4057 3.5 5.44446 4.45323 5.44446 5.625C5.44446 6.79677 6.4057 7.75 7.58732 7.75C8.76893 7.75 9.73017 6.79677 9.73017 5.625ZM6.87303 5.625C6.87303 5.23419 7.19322 4.91667 7.58732 4.91667C7.98141 4.91667 8.3016 5.23419 8.3016 5.625C8.3016 6.01581 7.98141 6.33333 7.58732 6.33333C7.19322 6.33333 6.87303 6.01581 6.87303 5.625ZM13.3016 7.75C12.12 7.75 11.1587 8.70323 11.1587 9.875C11.1587 11.0468 12.12 12 13.3016 12C14.4832 12 15.4445 11.0468 15.4445 9.875C15.4445 8.70323 14.4833 7.75 13.3016 7.75ZM13.3016 10.5833C12.9075 10.5833 12.5873 10.2658 12.5873 9.875C12.5873 9.48419 12.9075 9.16667 13.3016 9.16667C13.6957 9.16667 14.0159 9.48419 14.0159 9.875C14.0159 10.2658 13.6957 10.5833 13.3016 10.5833ZM13.748 3.65494C13.4397 3.41146 12.9912 3.46265 12.7436 3.76562L7.02927 10.849C6.78303 11.1547 6.83327 11.6002 7.14089 11.8451C7.44793 12.0883 7.8967 12.0405 8.14536 11.7344L13.8596 4.65104C14.1059 4.34528 14.0556 3.89983 13.748 3.65494Z" fill="#FFE8BA"/>
<path d="M9.73017 5.625C9.73017 4.45323 8.76893 3.5 7.58732 3.5C6.4057 3.5 5.44446 4.45323 5.44446 5.625C5.44446 6.79677 6.4057 7.75 7.58732 7.75C8.76893 7.75 9.73017 6.79677 9.73017 5.625ZM6.87303 5.625C6.87303 5.23419 7.19322 4.91667 7.58732 4.91667C7.98141 4.91667 8.3016 5.23419 8.3016 5.625C8.3016 6.01581 7.98141 6.33333 7.58732 6.33333C7.19322 6.33333 6.87303 6.01581 6.87303 5.625ZM13.3016 7.75C12.12 7.75 11.1587 8.70323 11.1587 9.875C11.1587 11.0468 12.12 12 13.3016 12C14.4832 12 15.4445 11.0468 15.4445 9.875C15.4445 8.70323 14.4833 7.75 13.3016 7.75ZM13.3016 10.5833C12.9075 10.5833 12.5873 10.2658 12.5873 9.875C12.5873 9.48419 12.9075 9.16667 13.3016 9.16667C13.6957 9.16667 14.0159 9.48419 14.0159 9.875C14.0159 10.2658 13.6957 10.5833 13.3016 10.5833ZM13.748 3.65494C13.4397 3.41146 12.9912 3.46265 12.7436 3.76562L7.02927 10.849C6.78303 11.1547 6.83327 11.6002 7.14089 11.8451C7.44793 12.0883 7.8967 12.0405 8.14536 11.7344L13.8596 4.65104C14.1059 4.34528 14.0556 3.89983 13.748 3.65494Z" fill="white"/>
</g>
<defs>
<clipPath id="clip0_7106_38794">
<rect width="15.5556" height="20" fill="white" transform="translate(2.22223 0.254883)"/>
</clipPath>
</defs>
</svg>
