<svg width="40" height="40" viewBox="0 0 40 40" fill="none" xmlns="http://www.w3.org/2000/svg">
<path d="M20.375 39.375C31.0755 39.375 39.75 30.7005 39.75 20C39.75 9.29948 31.0755 0.625 20.375 0.625C9.67448 0.625 1 9.29948 1 20C1 30.7005 9.67448 39.375 20.375 39.375Z" fill="#CCEFDC" fill-opacity="0.5"/>
<path d="M35.5485 31.5468C33.7415 29.1275 31.3952 27.1631 28.6959 25.8097C25.9967 24.4562 23.0189 23.7509 19.9993 23.75C16.9798 23.7491 14.0016 24.4524 11.3015 25.8042C8.6014 27.156 6.25382 29.1189 4.44531 31.537C6.24462 33.9674 8.58837 35.9423 11.2886 37.3034C13.9889 38.6646 16.9705 39.3741 19.9944 39.375C23.0184 39.376 26.0005 38.6683 28.7016 37.3089C31.4027 35.9494 33.7477 33.976 35.5485 31.5468Z" fill="#00B14F"/>
<path d="M20 21.25C24.1421 21.25 27.5 17.8921 27.5 13.75C27.5 9.60786 24.1421 6.25 20 6.25C15.8579 6.25 12.5 9.60786 12.5 13.75C12.5 17.8921 15.8579 21.25 20 21.25Z" fill="#00B14F"/>
</svg>
