<svg width="86" height="20" viewBox="0 0 86 20" fill="none" xmlns="http://www.w3.org/2000/svg">
<rect width="86" height="20" rx="10" fill="#00B14F"/>
<path d="M12.6803 14.17C10.6803 14.17 9.46031 12.6 9.46031 10.44C9.46031 8.26 10.7103 6.75 12.6703 6.75C14.1603 6.75 15.3803 7.63 15.6003 9.03H14.6503C14.4303 8.09 13.6903 7.58 12.7103 7.58C11.2703 7.58 10.4103 8.66 10.4103 10.44C10.4103 12.22 11.2603 13.34 12.7103 13.34C13.8303 13.34 14.6003 12.69 14.7703 11.41H15.6903C15.4503 13.12 14.3503 14.17 12.6803 14.17ZM19.5345 8.71C20.6145 8.71 21.2845 9.33 21.2845 10.42V14H20.3645V10.6C20.3645 9.89 20.0345 9.51 19.3345 9.51C18.6245 9.51 17.8645 9.9 17.8645 11.13V14H16.9445V6.88H17.8645V9.49C18.2245 8.99 18.8145 8.71 19.5345 8.71ZM25.372 8.19H24.672L23.642 6.64H24.832L25.372 8.19ZM26.722 9.3C27.242 9.76 27.552 10.48 27.552 11.38C27.552 13 26.512 14.13 25.062 14.13C23.582 14.13 22.582 13.04 22.582 11.42C22.582 9.76 23.612 8.71 25.092 8.71C25.392 8.71 25.672 8.75 25.932 8.84C26.512 8.83 26.862 8.58 26.882 8.07H27.492C27.462 8.64 27.242 9.08 26.722 9.3ZM25.062 13.36C26.062 13.36 26.632 12.55 26.632 11.38C26.632 10.21 26.062 9.48 25.062 9.48C24.082 9.48 23.502 10.25 23.502 11.42C23.502 12.59 24.092 13.36 25.062 13.36ZM32.8341 12.73C32.8341 13.11 32.9541 13.23 33.3341 13.23H34.0041V14H33.0641C32.2641 14 31.9141 13.65 31.9141 12.85V9.51L31.1441 9.55V8.84L31.9141 8.87V7.26H32.8341V8.88L34.0141 8.84V9.55L32.8341 9.51V12.73ZM37.7084 8.71C38.7884 8.71 39.4584 9.33 39.4584 10.42V14H38.5384V10.6C38.5384 9.89 38.2084 9.51 37.5084 9.51C36.7984 9.51 36.0384 9.9 36.0384 11.13V14H35.1184V6.88H36.0384V9.49C36.3984 8.99 36.9884 8.71 37.7084 8.71ZM45.3959 8.84V14H44.5359V13.27C44.1859 13.82 43.5659 14.13 42.8059 14.13C41.7259 14.13 41.0559 13.51 41.0559 12.42V8.84H41.9759V12.24C41.9759 12.95 42.3059 13.33 43.0059 13.33C43.7159 13.33 44.4759 12.94 44.4759 11.71V8.84H45.3959ZM52.2787 8.71C53.3587 8.71 54.0287 9.33 54.0287 10.42V14H53.1087V10.6C53.1087 9.89 52.7787 9.51 52.0787 9.51C51.3687 9.51 50.6087 9.9 50.6087 11.13V14H49.6887V6.88H50.6087V9.49C50.9687 8.99 51.5587 8.71 52.2787 8.71ZM57.8062 14.13C56.3262 14.13 55.3262 13.04 55.3262 11.42C55.3262 9.76 56.3562 8.71 57.8362 8.71C59.2762 8.71 60.2962 9.74 60.2962 11.38C60.2962 13 59.2562 14.13 57.8062 14.13ZM57.8062 13.36C58.8062 13.36 59.3762 12.55 59.3762 11.38C59.3762 10.21 58.8062 9.48 57.8062 9.48C56.8262 9.48 56.2462 10.25 56.2462 11.42C56.2462 12.59 56.8362 13.36 57.8062 13.36ZM66.293 13.32V14H65.803C65.253 14 64.953 13.75 64.913 13.24C64.583 13.74 63.923 14.13 63.043 14.13C61.993 14.13 61.313 13.58 61.313 12.63C61.313 11.78 61.823 11.18 63.073 11.02L64.393 10.85C64.643 10.82 64.763 10.7 64.763 10.46V10.24C64.763 9.7 64.403 9.44 63.603 9.44C62.863 9.44 62.493 9.67 62.433 10.36H61.523C61.613 9.22 62.343 8.68 63.673 8.68C64.953 8.68 65.693 9.2 65.693 10.33V12.87C65.693 13.21 65.803 13.32 66.143 13.32H66.293ZM63.213 13.42C64.043 13.42 64.763 12.85 64.763 12.19V11.47L63.223 11.7C62.503 11.81 62.223 12.13 62.223 12.59C62.223 13.12 62.613 13.42 63.213 13.42ZM63.183 14.97H64.103V15.96H63.183V14.97ZM69.3861 14.13C67.9461 14.13 66.9961 13.2 66.9961 11.46C66.9961 9.72 67.9461 8.71 69.4361 8.71C70.6261 8.71 71.4361 9.34 71.6161 10.53H70.7461C70.6061 9.83 70.1661 9.48 69.4461 9.48C68.4061 9.48 67.9161 10.2 67.9161 11.42C67.9161 12.64 68.4561 13.36 69.4361 13.36C70.1961 13.36 70.6161 12.93 70.7561 12.2H71.6161C71.4361 13.41 70.6861 14.13 69.3861 14.13ZM75.4525 8.71C76.5325 8.71 77.2025 9.33 77.2025 10.42V14H76.2825V10.6C76.2825 9.89 75.9525 9.51 75.2525 9.51C74.5425 9.51 73.7825 9.9 73.7825 11.13V14H72.8625V6.88H73.7825V9.49C74.1425 8.99 74.7325 8.71 75.4525 8.71Z" fill="white"/>
</svg>
