<svg width="20" height="20" viewBox="0 0 20 20" fill="none" xmlns="http://www.w3.org/2000/svg">
<g clip-path="url(#clip0_30502_41904)">
<path d="M16.4068 10.2704L16.4035 13.5192C16.4046 14.7808 15.947 15.9995 15.1148 16.9502C14.5991 17.5409 14.3512 18.2063 14.3573 18.9842L14.3628 19.685C14.3641 19.8576 14.2253 19.9986 14.0527 20C14.0519 20 14.0511 20 14.0502 20C13.8788 20 13.7392 19.8617 13.7378 19.69L13.7323 18.9891C13.7251 18.0645 14.0319 17.2402 14.6442 16.5389C15.3768 15.702 15.7795 14.6297 15.7785 13.5192L15.7818 10.2699C15.7821 9.93788 15.6527 9.68008 15.4174 9.54405C15.1968 9.41641 14.9137 9.41488 14.6964 9.5402C14.4658 9.6731 14.3387 9.93202 14.3384 10.2693C14.3383 10.4418 14.1984 10.5816 14.0259 10.5816C14.0259 10.5816 14.0258 10.5816 14.0257 10.5816C13.8532 10.5814 13.7134 10.4416 13.7134 10.2691H13.7134V9.14409C13.714 8.77134 13.5272 8.58497 13.3705 8.49418C13.1181 8.34812 12.7789 8.34772 12.5262 8.49325C12.3691 8.58371 12.1818 8.76974 12.1815 9.14211H12.1814L12.1804 10.2694C12.1802 10.4419 12.0403 10.5816 11.8679 10.5816C11.8678 10.5816 11.8677 10.5816 11.8676 10.5816C11.695 10.5814 11.5552 10.4414 11.5554 10.2688L11.5565 9.09948C11.5569 8.57616 11.1723 8.34158 10.7909 8.34129C10.7906 8.34129 10.7904 8.34129 10.7901 8.34129C10.4087 8.34129 10.0238 8.57545 10.0234 9.09893C10.0234 9.1086 10.0228 9.11813 10.0219 9.12758L10.0212 10.2693C10.0211 10.4418 9.88119 10.5816 9.7087 10.5816C9.70863 10.5816 9.70857 10.5816 9.70849 10.5816C9.53592 10.5814 9.39609 10.4414 9.3962 10.2689L9.40063 3.48794C9.40063 3.06579 9.0575 2.72216 8.63574 2.72216C8.63527 2.72216 8.63477 2.72216 8.63431 2.72216C8.432 2.72216 8.2411 2.80189 8.096 2.94677C7.95049 3.09209 7.87015 3.28376 7.86977 3.48653L7.86424 11.7497C7.86415 11.8838 7.77847 12.003 7.6513 12.0457C7.52416 12.0885 7.38391 12.0453 7.30281 11.9384L5.97076 10.1834C5.61032 9.70841 5.12605 9.584 4.79297 9.62621C4.53376 9.65894 4.33278 9.7885 4.25532 9.97277C4.1574 10.2058 4.24935 10.5262 4.51424 10.8751C5.71582 12.4585 6.13526 13.6533 6.47231 14.6134C6.73779 15.3696 6.94749 15.9669 7.45034 16.542C8.06283 17.2435 8.36965 18.0671 8.36247 18.9901L8.35694 19.69C8.35559 19.8617 8.21595 20 8.04452 20C8.04368 20 8.04284 20 8.042 20C7.8694 19.9986 7.73061 19.8576 7.73198 19.685L7.73751 18.9852C7.74354 18.2089 7.49566 17.5442 6.97971 16.9532C6.39768 16.2877 6.15897 15.6077 5.8826 14.8204C5.54324 13.8538 5.15861 12.7581 4.01643 11.253C3.46917 10.5322 3.57021 9.98979 3.67915 9.7306C3.84416 9.33801 4.23127 9.06718 4.71467 9.00613C5.36043 8.92453 6.03256 9.23091 6.46863 9.80555L7.23987 10.8217L7.24478 3.48573C7.24546 3.11593 7.39094 2.76759 7.65438 2.50453C7.91749 2.24177 8.2652 2.09716 8.6337 2.09716H8.63634C9.40214 2.09716 10.0256 2.72114 10.0256 3.48815L10.0227 7.9284C10.2459 7.79073 10.5113 7.71628 10.7901 7.71628H10.7914C11.2047 7.7166 11.6207 7.88681 11.8885 8.2175C11.9801 8.11361 12.089 8.02378 12.2142 7.95165C12.6609 7.69441 13.2376 7.69504 13.6836 7.95331C14.0693 8.17661 14.3019 8.565 14.3341 9.03001C14.3507 9.01941 14.3671 9.00859 14.3843 8.99869C14.7978 8.76036 15.3136 8.76198 15.7303 9.003C16.1607 9.25188 16.4072 9.71384 16.4068 10.2704ZM5.18045 6.54816C5.24146 6.60917 5.32144 6.63969 5.40141 6.63969C5.48138 6.63969 5.56136 6.60917 5.62238 6.54816L6.61559 5.55494C6.73764 5.43291 6.73764 5.23504 6.61559 5.11301C6.49356 4.99098 6.29569 4.99098 6.17366 5.11301L5.71391 5.57275V0.3125C5.71391 0.139902 5.57401 0 5.40141 0C5.22881 0 5.08891 0.139902 5.08891 0.3125V5.57276L4.62917 5.11301C4.50713 4.99098 4.30926 4.99098 4.18723 5.11301C4.06518 5.23504 4.06518 5.43291 4.18723 5.55495L5.18045 6.54816Z" fill="white"/>
</g>
<defs>
<clipPath id="clip0_30502_41904">
<rect width="20" height="20" fill="white"/>
</clipPath>
</defs>
</svg>
